<svg width="382" height="52" viewBox="0 0 382 52" fill="none" xmlns="http://www.w3.org/2000/svg">
<path d="M24.7261 1.60889C25.4514 0.797066 26.7214 0.797008 27.4468 1.60889L28.5923 2.89014C29.1697 3.53644 30.1217 3.68758 30.8706 3.25147L32.3559 2.38624C33.2966 1.83825 34.5048 2.23091 34.9438 3.22706L35.6372 4.8003C35.9867 5.59338 36.8458 6.03065 37.6929 5.84718L39.3725 5.48389C40.4366 5.25339 41.4651 6.0003 41.5747 7.0835L41.7475 8.79347C41.8349 9.6556 42.5163 10.3379 43.3784 10.4253L45.0893 10.5982C46.1723 10.708 46.9184 11.7354 46.688 12.7993L46.3247 14.479C46.1412 15.326 46.5787 16.1851 47.3716 16.5347L48.9448 17.2281C49.9411 17.667 50.3337 18.8752 49.7856 19.8159L48.9204 21.3013C48.4842 22.0502 48.6354 23.0032 49.2817 23.5806L50.563 24.7251C51.3749 25.4505 51.3749 26.7214 50.563 27.4468L49.2817 28.5913C48.6353 29.1688 48.4841 30.1217 48.9204 30.8706L49.7856 32.356C50.3336 33.2967 49.9411 34.5049 48.9448 34.9439L47.3716 35.6363C46.5785 35.9858 46.1412 36.8459 46.3247 37.6929L46.688 39.3726C46.9184 40.4365 46.1723 41.464 45.0893 41.5738L43.3784 41.7466C42.5162 41.834 41.8348 42.5162 41.7475 43.3784L41.5747 45.0884C41.4651 46.1716 40.4366 46.9185 39.3725 46.688L37.6929 46.3238C36.8458 46.1404 35.9866 46.5785 35.6372 47.3716L34.9438 48.9449C34.5047 49.9409 33.2966 50.3336 32.3559 49.7857L30.8706 48.9204C30.1218 48.4843 29.1697 48.6347 28.5923 49.2808L27.4468 50.563C26.7214 51.3748 25.4514 51.3747 24.7261 50.563L23.5805 49.2808C23.0031 48.6346 22.0501 48.4842 21.3012 48.9204L19.8169 49.7857C18.8763 50.3336 17.6681 49.9408 17.229 48.9449L16.5356 47.3716C16.1862 46.5785 15.327 46.1405 14.48 46.3238L12.8003 46.688C11.7362 46.9185 10.7077 46.1716 10.5981 45.0884L10.4253 43.3784C10.338 42.5161 9.65578 41.8339 8.79343 41.7466L7.08347 41.5738C6.00046 41.4641 5.25355 40.4365 5.48386 39.3726L5.84811 37.6929C6.03162 36.8458 5.59345 35.9857 4.80026 35.6363L3.228 34.9439C2.23168 34.5049 1.83918 33.2967 2.38718 32.356L3.25241 30.8706C3.68864 30.1217 3.53743 29.1688 2.89108 28.5913L1.60886 27.4468C0.797015 26.7215 0.797081 25.4505 1.60886 24.7251L2.89108 23.5806C3.53739 23.0032 3.68853 22.0502 3.25241 21.3013L2.38718 19.8159C1.83915 18.8752 2.23167 17.667 3.228 17.2281L4.80026 16.5347C5.59345 16.1852 6.03162 15.3261 5.84811 14.479L5.48386 12.7993C5.25342 11.7354 6.00041 10.7079 7.08347 10.5982L8.79343 10.4253C9.65573 10.3381 10.338 9.65574 10.4253 8.79347L10.5981 7.0835C10.7077 6.0003 11.7362 5.25339 12.8003 5.48389L14.48 5.84718C15.327 6.03056 16.1862 5.59337 16.5356 4.8003L17.229 3.22706C17.6681 2.23096 18.8762 1.83826 19.8169 2.38624L21.3012 3.25147C22.0502 3.68777 23.0031 3.53652 23.5805 2.89014L24.7261 1.60889ZM26.0864 5.08643C14.4884 5.08643 5.0864 14.4885 5.0864 26.0865C5.08658 37.6843 14.4885 47.0865 26.0864 47.0865C37.6842 47.0864 47.0862 37.6842 47.0864 26.0865C47.0864 14.4885 37.6843 5.08648 26.0864 5.08643Z" fill="url(#paint0_radial_1484_11994)"/>
<path d="M26.084 7.08594C36.5774 7.08594 45.084 15.5926 45.084 26.086C45.0838 36.5793 36.5773 45.086 26.084 45.086C15.5906 45.086 7.08411 36.5793 7.08398 26.086C7.08398 15.5926 15.5906 7.08594 26.084 7.08594ZM18.7265 35.0557V35.4415H19.8564V38.6485H20.292V35.4415H21.4219V35.0557H18.7265ZM21.6855 35.0557L22.9834 37.168V38.6485H23.4189V37.168L24.7168 35.0557H24.2187L23.2226 36.7325H23.1797L22.1836 35.0557H21.6855ZM25.1806 35.0557V38.6485H25.6162V37.336H26.4013C26.6808 37.336 26.9109 37.2853 27.0898 37.1836C27.2685 37.0808 27.401 36.9425 27.4863 36.7696C27.5727 36.5966 27.6152 36.4039 27.6152 36.1924C27.6152 35.981 27.5727 35.789 27.4863 35.6172C27.3998 35.4453 27.266 35.3086 27.0859 35.2081C26.907 35.1063 26.6763 35.0557 26.3945 35.0557H25.1806ZM28.2178 35.0557V38.6485H30.414V38.2627H28.6523V37.042H30.2734V36.6553H28.6523V35.4415H30.3857V35.0557H28.2178ZM32.3623 35.0557V38.6485H32.7969V35.0557H32.3623ZM26.3808 35.4415C26.576 35.4415 26.7325 35.4746 26.8506 35.5401C26.9686 35.6044 27.0538 35.6933 27.1064 35.8067C27.1601 35.9201 27.1875 36.0487 27.1875 36.1924C27.1874 36.3362 27.1602 36.4656 27.1064 36.5801C27.0538 36.6934 26.9694 36.784 26.8525 36.8506C26.7356 36.9172 26.5805 36.9502 26.3877 36.9502H25.6162V35.4415H26.3808ZM16.3467 24.9551C15.9446 24.9552 15.5845 25.0259 15.2666 25.168C14.9485 25.3083 14.6969 25.5063 14.5117 25.7608C14.3284 26.0152 14.2363 26.3118 14.2363 26.6504C14.2364 27.062 14.3733 27.3928 14.6465 27.6416C14.9214 27.8884 15.2955 28.0728 15.7685 28.1944L16.4228 28.3623C16.6286 28.4147 16.8085 28.4747 16.9619 28.542C17.1171 28.6075 17.2381 28.69 17.3242 28.7891C17.41 28.8863 17.4541 29.0099 17.456 29.1592C17.4541 29.3238 17.4039 29.4684 17.3066 29.5918C17.2094 29.7132 17.0751 29.8088 16.9033 29.878C16.733 29.9453 16.534 29.9795 16.3076 29.9795C16.0908 29.9795 15.8945 29.9463 15.7187 29.8809C15.5448 29.8154 15.4034 29.7158 15.2949 29.5831C15.1865 29.4503 15.1244 29.284 15.1094 29.084H14.0849C14.1 29.4654 14.1987 29.7892 14.3818 30.0547C14.567 30.3203 14.824 30.5227 15.1513 30.6612C15.4807 30.7996 15.8692 30.8692 16.3164 30.8692C16.7766 30.8692 17.1685 30.7975 17.4922 30.6553C17.8176 30.5113 18.0671 30.312 18.2392 30.0577C18.4112 29.8014 18.497 29.5046 18.497 29.168C18.497 28.9193 18.4499 28.7018 18.3564 28.5166C18.2629 28.3316 18.1354 28.1739 17.9746 28.043C17.8156 27.9121 17.6355 27.8029 17.4336 27.7168C17.2334 27.6308 17.0246 27.5623 16.8076 27.5118L16.2685 27.377C16.1508 27.349 16.0338 27.3146 15.9179 27.2735C15.802 27.2324 15.6959 27.1819 15.6006 27.1221C15.5052 27.0604 15.4291 26.9853 15.373 26.8975C15.3188 26.8097 15.292 26.7056 15.292 26.586C15.2938 26.442 15.3357 26.3135 15.4179 26.2012C15.5003 26.089 15.6192 26.0001 15.7744 25.9346C15.9297 25.8691 16.1159 25.836 16.333 25.836C16.6416 25.836 16.8922 25.9046 17.0849 26.0411C17.2795 26.1777 17.3898 26.3692 17.416 26.6143H18.4189C18.4133 26.2907 18.3222 26.0037 18.1465 25.7549C17.9706 25.5042 17.7276 25.3084 17.4189 25.168C17.1121 25.0259 16.7544 24.9551 16.3467 24.9551ZM21.7627 24.9551C21.2595 24.9551 20.8086 25.0719 20.4101 25.3057C20.0135 25.5396 19.6988 25.8778 19.4668 26.3194C19.2367 26.7591 19.1211 27.289 19.1211 27.9082C19.1212 28.5254 19.2368 29.0547 19.4668 29.4961C19.6988 29.9358 20.0135 30.2741 20.4101 30.5098C20.8086 30.7436 21.2595 30.8604 21.7627 30.8604C22.2658 30.8604 22.7157 30.7435 23.1123 30.5098C23.5108 30.2759 23.8255 29.9387 24.0556 29.4991C24.2876 29.0576 24.4042 28.5273 24.4043 27.9082C24.4043 27.289 24.2876 26.7591 24.0556 26.3194C23.8255 25.8778 23.5108 25.5396 23.1123 25.3057C22.7157 25.072 22.2658 24.9551 21.7627 24.9551ZM27.7168 24.9551C27.2155 24.9552 26.7666 25.072 26.3701 25.3057C25.9734 25.5396 25.6598 25.8778 25.4297 26.3194C25.1996 26.7591 25.084 27.289 25.084 27.9082C25.084 28.5253 25.1986 29.0547 25.4267 29.4961C25.655 29.9377 25.9676 30.2759 26.3642 30.5098C26.7608 30.7436 27.2117 30.8603 27.7168 30.8604C28.059 30.8604 28.3708 30.81 28.6513 30.709C28.932 30.6061 29.1781 30.4637 29.3877 30.2823C29.597 30.0991 29.7665 29.8877 29.8955 29.6485C30.0264 29.409 30.1111 29.1521 30.1504 28.879L29.1006 28.8731C29.0687 29.0414 29.0109 29.1914 28.9267 29.3223C28.8445 29.4531 28.7425 29.5636 28.6211 29.6534C28.5013 29.7431 28.3654 29.8117 28.2138 29.8584C28.0643 29.9033 27.9034 29.9258 27.7314 29.9258C27.4208 29.9258 27.1447 29.8498 26.9033 29.6983C26.6639 29.5449 26.4744 29.3188 26.3359 29.0196C26.1994 28.7185 26.1309 28.3477 26.1308 27.9082C26.1308 27.4762 26.1995 27.1099 26.3359 26.8106C26.4725 26.5094 26.662 26.2804 26.9033 26.125C27.1446 25.968 27.422 25.8897 27.7344 25.8897C27.9101 25.8897 28.0741 25.9143 28.2256 25.9629C28.3787 26.0097 28.5152 26.0796 28.6347 26.1729C28.7544 26.2664 28.8551 26.381 28.9355 26.5157C29.0158 26.6483 29.0706 26.8009 29.1006 26.9727H30.1504C30.1073 26.6532 30.016 26.3688 29.876 26.1202C29.7375 25.8695 29.5598 25.6575 29.3447 25.4854C29.1296 25.3115 28.8843 25.1797 28.6094 25.0899C28.3344 25.0001 28.0366 24.9551 27.7168 24.9551ZM34.6064 24.9551C34.2268 24.9552 33.8903 25.0291 33.5967 25.1768C33.3048 25.3246 33.0757 25.5334 32.9092 25.8028C32.7427 26.0721 32.6592 26.3893 32.6592 26.754H33.6494C33.6494 26.5577 33.688 26.3882 33.7646 26.2461C33.8431 26.1041 33.9537 25.9947 34.0957 25.918C34.2379 25.8394 34.4038 25.7999 34.5928 25.7998C34.7761 25.7998 34.9399 25.8352 35.084 25.9063C35.228 25.9774 35.3415 26.079 35.4238 26.21C35.5059 26.339 35.5469 26.4945 35.5469 26.6758C35.5468 26.8347 35.5157 26.9848 35.4521 27.125C35.3885 27.2653 35.2922 27.41 35.165 27.5596C35.0378 27.7092 34.8791 27.8807 34.6885 28.0733L32.6924 30.0293V30.7823H36.6338V29.9122H34.1299V29.8731L35.1201 28.8653C35.4924 28.5061 35.7824 28.1999 35.9883 27.9473C36.1958 27.6949 36.3405 27.4644 36.4228 27.2569C36.5051 27.0493 36.5458 26.8372 36.5459 26.6221C36.5458 26.3004 36.4644 26.0144 36.3017 25.7637C36.1408 25.513 35.9149 25.315 35.623 25.1709C35.3311 25.0269 34.9919 24.9551 34.6064 24.9551ZM21.7627 25.8897C22.0752 25.8897 22.3513 25.9678 22.5908 26.1231C22.8301 26.2765 23.0177 26.5036 23.1523 26.8047C23.2888 27.1041 23.3574 27.4724 23.3574 27.9082C23.3573 28.3439 23.2888 28.7126 23.1523 29.0137C23.0177 29.3129 22.8301 29.5401 22.5908 29.6954C22.3513 29.8487 22.0751 29.9258 21.7627 29.9258C21.4502 29.9258 21.174 29.8487 20.9345 29.6954C20.6952 29.5401 20.5066 29.3129 20.3701 29.0137C20.2355 28.7126 20.168 28.3439 20.1679 27.9082C20.1679 27.4724 20.2355 27.1041 20.3701 26.8047C20.5066 26.5036 20.6952 26.2765 20.9345 26.1231C21.1741 25.9678 21.4502 25.8897 21.7627 25.8897ZM14.3965 22.2881V22.7823H37.1211V22.2881H14.3965ZM24.8603 14.086C24.3702 14.086 23.9343 14.2059 23.5527 14.4454C23.1711 14.6849 22.8702 15.0253 22.6513 15.4668C22.4325 15.9084 22.3232 16.433 22.3232 17.0391C22.3233 17.645 22.4326 18.169 22.6513 18.6104C22.8702 19.0518 23.1711 19.3924 23.5527 19.6319C23.9343 19.8713 24.3703 19.9912 24.8603 19.9913C25.1503 19.9913 25.4232 19.9495 25.6777 19.8653C25.934 19.7811 26.1653 19.658 26.3711 19.4971C26.5767 19.3344 26.7493 19.1371 26.8877 18.9053C27.0261 18.6734 27.1214 18.4099 27.1738 18.1163H26.4775C26.4363 18.3145 26.3646 18.4912 26.2617 18.6446C26.1607 18.796 26.0365 18.9236 25.8906 19.0284C25.7466 19.1312 25.5869 19.2094 25.4111 19.2618C25.2352 19.3141 25.0512 19.3399 24.8603 19.3399C24.5125 19.3398 24.1974 19.252 23.915 19.0762C23.6344 18.9004 23.4106 18.6412 23.2441 18.2989C23.0795 17.9566 22.9971 17.5366 22.997 17.0391C22.997 16.5415 23.0795 16.1208 23.2441 15.7784C23.4106 15.436 23.6344 15.1769 23.915 15.001C24.1974 14.8252 24.5125 14.7374 24.8603 14.7373C25.0512 14.7373 25.2352 14.7631 25.4111 14.8155C25.5869 14.8679 25.7466 14.9471 25.8906 15.0518C26.0365 15.1547 26.1607 15.2821 26.2617 15.4336C26.3644 15.5851 26.4364 15.761 26.4775 15.961H27.1738C27.1214 15.6654 27.0261 15.402 26.8877 15.1719C26.7493 14.9401 26.5767 14.7439 26.3711 14.5831C26.1653 14.4203 25.934 14.2962 25.6777 14.212C25.4232 14.1278 25.1504 14.086 24.8603 14.086ZM17.0478 14.1641L14.9365 19.9131H15.667L16.2451 18.2852H18.5693L19.1474 19.9131H19.8769L17.7666 14.1641H17.0478ZM20.6142 14.1641V19.9131H21.3105V14.1641H20.6142ZM28.1406 14.1641V19.9131H28.8369V17.8135H30.0937C30.5409 17.8135 30.908 17.7321 31.1943 17.5694C31.4805 17.4048 31.6915 17.1831 31.8281 16.9063C31.9665 16.6295 32.0361 16.3219 32.0361 15.9834C32.0361 15.6448 31.9665 15.3376 31.8281 15.0625C31.6896 14.7876 31.4765 14.5691 31.1885 14.4082C30.9023 14.2456 30.5337 14.1641 30.083 14.1641H28.1406ZM34.0293 14.1641L31.9189 19.9131H32.6484L33.2265 18.2852H35.5508L36.1289 19.9131H36.8594L34.748 14.1641H34.0293ZM17.4297 15.0743L18.3506 17.667H16.4638L17.3847 15.0743H17.4297ZM34.4111 15.0743L35.332 17.667H33.4453L34.3662 15.0743H34.4111ZM30.0605 14.7823C30.3729 14.7823 30.6235 14.8347 30.8125 14.9395C31.0013 15.0424 31.1385 15.1848 31.2226 15.3663C31.3085 15.5476 31.3515 15.7536 31.3515 15.9834C31.3515 16.2134 31.3086 16.4203 31.2226 16.6036C31.1384 16.785 31.0025 16.9296 30.8154 17.0362C30.6283 17.1428 30.38 17.1963 30.0713 17.1963H28.8369V14.7823H30.0605Z" fill="url(#paint1_radial_1484_11994)"/>
<path d="M90.7258 1.60857C91.4511 0.797145 92.7212 0.797144 93.4465 1.60857L94.592 2.8908C95.1693 3.53699 96.1214 3.68805 96.8703 3.25212L98.3556 2.38689C99.2964 1.83886 100.505 2.23138 100.944 3.22771L101.637 4.79998C101.986 5.5931 102.846 6.03122 103.693 5.84783L105.372 5.48357C106.436 5.25309 107.465 6.0001 107.574 7.08318L107.747 8.79314C107.834 9.65549 108.517 10.3378 109.379 10.425L111.089 10.5979C112.172 10.7076 112.919 11.736 112.689 12.8L112.324 14.4797C112.141 15.3268 112.579 16.1859 113.372 16.5354L114.944 17.2287C115.941 17.6677 116.333 18.8759 115.785 19.8166L114.92 21.302C114.484 22.0508 114.635 23.0029 115.281 23.5803L116.564 24.7258C117.375 25.4511 117.375 26.7212 116.564 27.4465L115.281 28.592C114.635 29.1693 114.484 30.1215 114.92 30.8703L115.785 32.3557C116.333 33.2964 115.941 34.5046 114.944 34.9436L113.372 35.6369C112.579 35.9864 112.141 36.8455 112.324 37.6926L112.689 39.3723C112.919 40.4363 112.172 41.4647 111.089 41.5744L109.379 41.7473C108.517 41.8345 107.834 42.5168 107.747 43.3791L107.574 45.0891C107.465 46.1721 106.436 46.9192 105.372 46.6887L103.693 46.3244C102.846 46.141 101.986 46.5792 101.637 47.3723L100.944 48.9445C100.505 49.9409 99.2964 50.3334 98.3556 49.7854L96.8703 48.9201C96.1214 48.4842 95.1693 48.6353 94.592 49.2815L93.4465 50.5637C92.7212 51.3751 91.4511 51.3751 90.7258 50.5637L89.5802 49.2815C89.0029 48.6353 88.0508 48.4842 87.3019 48.9201L85.8166 49.7854C84.8758 50.3334 83.6676 49.9409 83.2287 48.9445L82.5353 47.3723C82.1859 46.5792 81.3267 46.141 80.4797 46.3244L78.8 46.6887C77.736 46.9192 76.7076 46.1721 76.5978 45.0891L76.425 43.3791C76.3377 42.5168 75.6555 41.8345 74.7931 41.7473L73.0832 41.5744C72.0001 41.4647 71.2531 40.4363 71.4836 39.3723L71.8478 37.6926C72.0312 36.8455 71.5931 35.9864 70.8 35.6369L69.2277 34.9436C68.2314 34.5046 67.8389 33.2964 68.3869 32.3557L69.2521 30.8703C69.688 30.1215 69.537 29.1693 68.8908 28.592L67.6086 27.4465C66.7971 26.7212 66.7971 25.4511 67.6086 24.7258L68.8908 23.5803C69.537 23.0029 69.6881 22.0508 69.2521 21.302L68.3869 19.8166C67.8389 18.8759 68.2314 17.6677 69.2277 17.2287L70.8 16.5354C71.5931 16.1859 72.0312 15.3268 71.8478 14.4797L71.4836 12.8C71.2531 11.736 72.0001 10.7076 73.0832 10.5979L74.7931 10.425C75.6555 10.3378 76.3377 9.65549 76.425 8.79314L76.5978 7.08318C76.7076 6.0001 77.736 5.25309 78.8 5.48357L80.4797 5.84783C81.3267 6.03122 82.1859 5.5931 82.5353 4.79998L83.2287 3.22771C83.6676 2.23138 84.8758 1.83886 85.8166 2.38689L87.3019 3.25212C88.0508 3.68805 89.0029 3.53699 89.5802 2.8908L90.7258 1.60857ZM92.0861 5.08611C80.4881 5.08611 71.0861 14.4882 71.0861 26.0861C71.0861 37.6841 80.4881 47.0861 92.0861 47.0861C103.684 47.0861 113.086 37.6841 113.086 26.0861C113.086 14.4882 103.684 5.08611 92.0861 5.08611Z" fill="url(#paint2_radial_1484_11994)"/>
<path d="M92.0859 7.08594C102.579 7.08594 111.086 15.5926 111.086 26.086C111.086 36.5793 102.579 45.086 92.0859 45.086C81.5926 45.086 73.0861 36.5793 73.0859 26.086C73.0859 15.5926 81.5925 7.08594 92.0859 7.08594ZM83.625 35.0557V35.4415H84.7549V38.6485H85.1895V35.4415H86.3193V35.0557H83.625ZM86.583 35.0557L87.8809 37.168V38.6485H88.3164V37.168L89.6143 35.0557H89.1162L88.1201 36.7325H88.0781L87.0811 35.0557H86.583ZM90.0781 35.0557V38.6485H90.5137V37.336H91.2998C91.5791 37.3359 91.8085 37.2853 91.9873 37.1836C92.1661 37.0808 92.2984 36.9425 92.3838 36.7696C92.4702 36.5966 92.5136 36.4039 92.5137 36.1924C92.5137 35.9809 92.4702 35.789 92.3838 35.6172C92.2973 35.4453 92.1635 35.3086 91.9834 35.2081C91.8045 35.1064 91.5737 35.0557 91.292 35.0557H90.0781ZM93.1152 35.0557V38.6485H95.3115V38.2627H93.5508V37.042H95.1709V36.6553H93.5508V35.4415H95.2832V35.0557H93.1152ZM97.2598 35.0557V38.6485H97.6943V35.0557H97.2598ZM98.4678 35.0557V38.6485H98.9033V35.0557H98.4678ZM91.2783 35.4415C91.4735 35.4415 91.63 35.4747 91.748 35.5401C91.8661 35.6044 91.9523 35.6933 92.0049 35.8067C92.0585 35.92 92.085 36.0488 92.085 36.1924C92.0849 36.3361 92.0586 36.4656 92.0049 36.5801C91.9522 36.6935 91.8669 36.784 91.75 36.8506C91.6331 36.9171 91.4779 36.9502 91.2852 36.9502H90.5137V35.4415H91.2783ZM82.3486 24.9551C81.9466 24.9552 81.5865 25.0259 81.2686 25.168C80.9505 25.3083 80.6989 25.5063 80.5137 25.7608C80.3304 26.0152 80.2383 26.3118 80.2383 26.6504C80.2384 27.062 80.3753 27.3928 80.6484 27.6416C80.9234 27.8884 81.2975 28.0728 81.7705 28.1944L82.4248 28.3623C82.6306 28.4147 82.8104 28.4747 82.9639 28.542C83.1191 28.6075 83.2401 28.69 83.3262 28.7891C83.412 28.8863 83.4561 29.0099 83.458 29.1592C83.4561 29.3238 83.4058 29.4684 83.3086 29.5918C83.2114 29.7132 83.0771 29.8088 82.9053 29.878C82.735 29.9453 82.536 29.9795 82.3096 29.9795C82.0927 29.9795 81.8965 29.9463 81.7207 29.8809C81.5467 29.8154 81.4054 29.7158 81.2969 29.5831C81.1885 29.4503 81.1263 29.284 81.1113 29.084H80.0869C80.1019 29.4654 80.2007 29.7892 80.3838 30.0547C80.569 30.3203 80.826 30.5227 81.1533 30.6612C81.4826 30.7996 81.8712 30.8692 82.3184 30.8692C82.7786 30.8692 83.1705 30.7975 83.4941 30.6553C83.8196 30.5113 84.0691 30.312 84.2412 30.0577C84.4132 29.8014 84.499 29.5046 84.499 29.168C84.499 28.9193 84.4519 28.7018 84.3584 28.5166C84.2649 28.3316 84.1373 28.1739 83.9766 28.043C83.8176 27.9121 83.6375 27.8029 83.4355 27.7168C83.2354 27.6308 83.0266 27.5623 82.8096 27.5118L82.2705 27.377C82.1528 27.349 82.0358 27.3146 81.9199 27.2735C81.804 27.2324 81.6979 27.1819 81.6025 27.1221C81.5072 27.0604 81.4311 26.9853 81.375 26.8975C81.3208 26.8097 81.294 26.7056 81.2939 26.586C81.2958 26.442 81.3377 26.3135 81.4199 26.2012C81.5022 26.089 81.6211 26.0001 81.7764 25.9346C81.9317 25.8691 82.1179 25.836 82.335 25.836C82.6435 25.836 82.8942 25.9046 83.0869 26.0411C83.2815 26.1777 83.3918 26.3692 83.418 26.6143H84.4209C84.4153 26.2907 84.3242 26.0037 84.1484 25.7549C83.9726 25.5042 83.7296 25.3084 83.4209 25.168C83.1141 25.0259 82.7564 24.9551 82.3486 24.9551ZM87.7646 24.9551C87.2614 24.9551 86.8106 25.0719 86.4121 25.3057C86.0155 25.5396 85.7008 25.8778 85.4688 26.3194C85.2387 26.7591 85.123 27.289 85.123 27.9082C85.1231 28.5254 85.2388 29.0547 85.4688 29.4961C85.7008 29.9358 86.0155 30.2741 86.4121 30.5098C86.8106 30.7436 87.2615 30.8604 87.7646 30.8604C88.2678 30.8604 88.7177 30.7435 89.1143 30.5098C89.5128 30.2759 89.8275 29.9387 90.0576 29.4991C90.2895 29.0576 90.4062 28.5273 90.4062 27.9082C90.4062 27.289 90.2895 26.7591 90.0576 26.3194C89.8275 25.8778 89.5128 25.5396 89.1143 25.3057C88.7177 25.072 88.2678 24.9551 87.7646 24.9551ZM93.7188 24.9551C93.2175 24.9552 92.7686 25.072 92.3721 25.3057C91.9754 25.5396 91.6618 25.8778 91.4316 26.3194C91.2016 26.7591 91.0859 27.289 91.0859 27.9082C91.086 28.5253 91.2006 29.0547 91.4287 29.4961C91.657 29.9377 91.9696 30.2759 92.3662 30.5098C92.7628 30.7436 93.2137 30.8603 93.7188 30.8604C94.061 30.8604 94.3728 30.81 94.6533 30.709C94.934 30.6061 95.1801 30.4637 95.3896 30.2823C95.599 30.0991 95.7684 29.8877 95.8975 29.6485C96.0284 29.409 96.113 29.1521 96.1523 28.879L95.1025 28.8731C95.0707 29.0414 95.0129 29.1914 94.9287 29.3223C94.8464 29.4531 94.7445 29.5636 94.623 29.6534C94.5033 29.7431 94.3673 29.8117 94.2158 29.8584C94.0662 29.9033 93.9054 29.9258 93.7334 29.9258C93.4228 29.9258 93.1466 29.8498 92.9053 29.6983C92.6659 29.5449 92.4763 29.3188 92.3379 29.0196C92.2014 28.7185 92.1329 28.3477 92.1328 27.9082C92.1328 27.4762 92.2014 27.1099 92.3379 26.8106C92.4745 26.5094 92.6639 26.2804 92.9053 26.125C93.1466 25.968 93.424 25.8897 93.7363 25.8897C93.9121 25.8897 94.0761 25.9143 94.2275 25.9629C94.3807 26.0097 94.5172 26.0796 94.6367 26.1729C94.7564 26.2664 94.8571 26.381 94.9375 26.5157C95.0178 26.6483 95.0726 26.8009 95.1025 26.9727H96.1523C96.1093 26.6532 96.018 26.3688 95.8779 26.1202C95.7395 25.8695 95.5618 25.6575 95.3467 25.4854C95.1316 25.3115 94.8862 25.1797 94.6113 25.0899C94.3363 25.0001 94.0386 24.9551 93.7188 24.9551ZM100.608 24.9551C100.229 24.9552 99.8923 25.0291 99.5986 25.1768C99.3068 25.3246 99.0776 25.5334 98.9111 25.8028C98.7447 26.0721 98.6612 26.3893 98.6611 26.754H99.6514C99.6514 26.5577 99.69 26.3882 99.7666 26.2461C99.8451 26.1041 99.9557 25.9947 100.098 25.918C100.24 25.8394 100.406 25.7999 100.595 25.7998C100.778 25.7998 100.942 25.8352 101.086 25.9063C101.23 25.9774 101.343 26.079 101.426 26.21C101.508 26.339 101.549 26.4945 101.549 26.6758C101.549 26.8347 101.518 26.9848 101.454 27.125C101.39 27.2653 101.294 27.41 101.167 27.5596C101.04 27.7092 100.881 27.8807 100.69 28.0733L98.6943 30.0293V30.7823H102.636V29.9122H100.132V29.8731L101.122 28.8653C101.494 28.5061 101.784 28.1999 101.99 27.9473C102.198 27.6949 102.342 27.4644 102.425 27.2569C102.507 27.0493 102.548 26.8372 102.548 26.6221C102.548 26.3004 102.466 26.0144 102.304 25.7637C102.143 25.513 101.917 25.315 101.625 25.1709C101.333 25.0269 100.994 24.9551 100.608 24.9551ZM87.7646 25.8897C88.0771 25.8897 88.3533 25.9678 88.5928 26.1231C88.8321 26.2765 89.0196 26.5036 89.1543 26.8047C89.2908 27.1041 89.3594 27.4724 89.3594 27.9082C89.3593 28.3439 89.2908 28.7126 89.1543 29.0137C89.0196 29.3129 88.8321 29.5401 88.5928 29.6954C88.3533 29.8487 88.0771 29.9258 87.7646 29.9258C87.4522 29.9258 87.176 29.8487 86.9365 29.6954C86.6972 29.5401 86.5086 29.3129 86.3721 29.0137C86.2375 28.7126 86.17 28.3439 86.1699 27.9082C86.1699 27.4724 86.2374 27.1041 86.3721 26.8047C86.5086 26.5036 86.6972 26.2765 86.9365 26.1231C87.176 25.9678 87.4522 25.8897 87.7646 25.8897ZM80.3984 22.2881V22.7823H103.123V22.2881H80.3984ZM90.8623 14.086C90.3722 14.086 89.9363 14.2059 89.5547 14.4454C89.1731 14.6849 88.8722 15.0253 88.6533 15.4668C88.4345 15.9084 88.3252 16.433 88.3252 17.0391C88.3253 17.645 88.4346 18.169 88.6533 18.6104C88.8722 19.0518 89.1731 19.3924 89.5547 19.6319C89.9363 19.8713 90.3723 19.9912 90.8623 19.9913C91.1523 19.9913 91.4252 19.9495 91.6797 19.8653C91.9359 19.7811 92.1673 19.658 92.373 19.4971C92.5787 19.3344 92.7513 19.1371 92.8896 18.9053C93.028 18.6734 93.1234 18.4099 93.1758 18.1163H92.4795C92.4383 18.3145 92.3665 18.4912 92.2637 18.6446C92.1627 18.796 92.0384 18.9236 91.8926 19.0284C91.7486 19.1312 91.5889 19.2094 91.4131 19.2618C91.2372 19.3141 91.0531 19.3399 90.8623 19.3399C90.5145 19.3398 90.1994 19.252 89.917 19.0762C89.6364 18.9004 89.4126 18.6412 89.2461 18.2989C89.0815 17.9566 88.9991 17.5366 88.999 17.0391C88.999 16.5415 89.0815 16.1208 89.2461 15.7784C89.4126 15.436 89.6364 15.1769 89.917 15.001C90.1994 14.8252 90.5145 14.7374 90.8623 14.7373C91.0532 14.7373 91.2372 14.7631 91.4131 14.8155C91.5889 14.8679 91.7486 14.9471 91.8926 15.0518C92.0385 15.1547 92.1627 15.2821 92.2637 15.4336C92.3664 15.5851 92.4384 15.761 92.4795 15.961H93.1758C93.1234 15.6654 93.0281 15.402 92.8896 15.1719C92.7513 14.9401 92.5787 14.7439 92.373 14.5831C92.1673 14.4203 91.936 14.2962 91.6797 14.212C91.4252 14.1278 91.1523 14.086 90.8623 14.086ZM83.0498 14.1641L80.9385 19.9131H81.6689L82.2471 18.2852H84.5713L85.1494 19.9131H85.8789L83.7686 14.1641H83.0498ZM86.6162 14.1641V19.9131H87.3125V14.1641H86.6162ZM94.1426 14.1641V19.9131H94.8389V17.8135H96.0957C96.5429 17.8135 96.91 17.7321 97.1963 17.5694C97.4825 17.4048 97.6935 17.1831 97.8301 16.9063C97.9684 16.6295 98.038 16.3219 98.0381 15.9834C98.0381 15.6448 97.9685 15.3376 97.8301 15.0625C97.6916 14.7876 97.4785 14.5691 97.1904 14.4082C96.9042 14.2456 96.5356 14.1641 96.085 14.1641H94.1426ZM100.031 14.1641L97.9209 19.9131H98.6504L99.2285 18.2852H101.553L102.131 19.9131H102.861L100.75 14.1641H100.031ZM83.4316 15.0743L84.3525 17.667H82.4658L83.3867 15.0743H83.4316ZM100.413 15.0743L101.334 17.667H99.4473L100.368 15.0743H100.413ZM96.0625 14.7823C96.3748 14.7823 96.6255 14.8347 96.8145 14.9395C97.0033 15.0424 97.1404 15.1848 97.2246 15.3663C97.3105 15.5476 97.3535 15.7536 97.3535 15.9834C97.3535 16.2134 97.3106 16.4203 97.2246 16.6036C97.1404 16.785 97.0044 16.9296 96.8174 17.0362C96.6303 17.1428 96.3819 17.1963 96.0732 17.1963H94.8389V14.7823H96.0625Z" fill="url(#paint3_radial_1484_11994)"/>
<path d="M134.92 31.7852C137.511 42.305 147.007 50.1074 158.327 50.1074C169.647 50.1074 179.143 42.305 181.734 31.7852H182.653C180.043 42.8027 170.143 51 158.327 51L157.682 50.9922C146.152 50.7 136.565 42.6015 134.002 31.7852H134.92ZM140.882 31.8037C143.313 39.1076 150.202 44.3748 158.322 44.375C166.443 44.375 173.332 39.1077 175.763 31.8037H180.804C178.225 41.8146 169.138 49.2119 158.322 49.2119L157.724 49.2041C147.173 48.9369 138.372 41.6291 135.842 31.8037H140.882ZM158.747 31.7236C159.059 31.7237 159.327 31.8018 159.552 31.959C159.776 32.1162 159.948 32.3444 160.067 32.6436C160.188 32.9429 160.248 33.3049 160.248 33.7285C160.248 34.1545 160.188 34.5185 160.067 34.8203C159.948 35.1208 159.776 35.3503 159.552 35.5088C159.329 35.6673 159.06 35.747 158.747 35.7471C158.434 35.7471 158.165 35.6673 157.94 35.5088C157.717 35.349 157.545 35.1189 157.425 34.8184C157.306 34.5166 157.246 34.1533 157.246 33.7285C157.247 33.3036 157.308 32.9416 157.427 32.6436C157.547 32.3444 157.719 32.1162 157.942 31.959C158.167 31.8018 158.435 31.7236 158.747 31.7236ZM162.213 31.7236C162.525 31.7237 162.793 31.8017 163.018 31.959C163.242 32.1162 163.414 32.3444 163.533 32.6436C163.654 32.9429 163.714 33.3049 163.714 33.7285C163.714 34.1545 163.654 34.5185 163.533 34.8203C163.414 35.1208 163.242 35.3503 163.018 35.5088C162.794 35.6673 162.526 35.7471 162.213 35.7471C161.9 35.7471 161.631 35.6673 161.406 35.5088C161.183 35.349 161.011 35.1189 160.891 34.8184C160.771 34.5166 160.712 34.1533 160.712 33.7285C160.713 33.3036 160.773 32.9416 160.893 32.6436C161.013 32.3444 161.185 32.1162 161.408 31.959C161.633 31.8018 161.901 31.7236 162.213 31.7236ZM152.431 31.7236C152.692 31.7236 152.921 31.7716 153.119 31.8691C153.317 31.9668 153.471 32.1015 153.58 32.2715C153.69 32.4413 153.745 32.6356 153.745 32.8535C153.745 32.9992 153.717 33.1425 153.661 33.2832C153.605 33.4239 153.507 33.5798 153.366 33.751C153.227 33.9222 153.031 34.1296 152.778 34.373L152.107 35.0557V35.083H153.804V35.6729H151.133V35.1631L152.485 33.8369C152.615 33.7063 152.723 33.5897 152.81 33.4883C152.896 33.3869 152.96 33.2884 153.003 33.1934C153.046 33.0984 153.068 32.9973 153.068 32.8896C153.068 32.7666 153.04 32.6608 152.984 32.5732C152.929 32.4845 152.851 32.4163 152.754 32.3682C152.656 32.32 152.545 32.2959 152.421 32.2959C152.293 32.2959 152.18 32.3227 152.084 32.376C151.988 32.428 151.914 32.5024 151.86 32.5986C151.808 32.695 151.782 32.8093 151.782 32.9424H151.11C151.11 32.6953 151.167 32.4804 151.279 32.2979C151.392 32.1152 151.548 31.9732 151.746 31.873C151.945 31.773 152.173 31.7236 152.431 31.7236ZM156.884 32.3799L155.228 35.6729H154.496L156.153 32.3926V32.3662H154.229V31.7764H156.884V32.3799ZM165.823 35.6729H165.117V32.4629H165.095L164.184 33.0449V32.3984L165.151 31.7764H165.823V35.6729ZM158.747 32.3105C158.505 32.3105 158.313 32.4319 158.172 32.6729C158.031 32.9125 157.96 33.2646 157.959 33.7285C157.958 34.039 157.989 34.3 158.053 34.5117C158.117 34.7234 158.208 34.8834 158.326 34.9912C158.444 35.0977 158.585 35.1514 158.747 35.1514C158.99 35.1513 159.183 35.0315 159.323 34.792C159.465 34.5511 159.536 34.1964 159.536 33.7285C159.536 33.4191 159.504 33.1588 159.439 32.9482C159.375 32.7377 159.283 32.5792 159.165 32.4727C159.047 32.365 158.908 32.3106 158.747 32.3105ZM162.213 32.3105C161.971 32.3105 161.779 32.4319 161.639 32.6729C161.498 32.9125 161.426 33.2644 161.425 33.7285C161.424 34.039 161.455 34.3 161.519 34.5117C161.583 34.7233 161.674 34.8834 161.792 34.9912C161.91 35.0977 162.051 35.1514 162.213 35.1514C162.456 35.1513 162.648 35.0315 162.789 34.792C162.931 34.5511 163.002 34.1964 163.002 33.7285C163.002 33.4191 162.97 33.1588 162.905 32.9482C162.841 32.7377 162.749 32.5792 162.631 32.4727C162.513 32.365 162.374 32.3106 162.213 32.3105ZM156.272 19.75C156.937 19.7625 157.597 19.8148 158.255 19.9072H160.395V22.5703L158.255 22.5723V22.0049C157.94 21.8374 157.195 21.6602 156.42 21.6602C155.423 21.6602 155.035 21.9526 155.035 22.3301C155.035 23.8925 160.74 22.1001 160.74 26C160.74 27.615 159.66 28.9355 156.42 28.9355C155.717 28.923 155.017 28.8698 154.322 28.7773H152.183V26.1152H154.322V26.6826C154.637 26.8501 155.37 27.0273 156.21 27.0273C157.322 27.0273 157.772 26.7751 157.772 26.3252C157.772 24.8577 152.121 26.5674 152.12 22.6455C152.12 20.653 153.808 19.75 156.272 19.75ZM165.976 19.75C168.805 19.7502 170.83 21.3979 170.83 24.3428C170.83 27.2875 168.805 28.9354 165.976 28.9355C163.146 28.9355 161.12 27.2901 161.12 24.3428C161.12 21.3953 163.143 19.75 165.976 19.75ZM151.546 22.1318H150.108V26.5967H151.546V28.7988H145.831V26.5967H147.267V22.1318H145.831V19.9287H151.546V22.1318ZM137.485 22.9834C137.622 22.7412 137.971 22.7411 138.107 22.9834L138.85 24.2998C138.901 24.3902 138.988 24.4541 139.09 24.4746L140.571 24.7734C140.844 24.8285 140.952 25.1604 140.764 25.3652L139.741 26.4785C139.671 26.5548 139.638 26.6578 139.649 26.7607L139.822 28.2627C139.854 28.5389 139.572 28.7443 139.319 28.6289L137.944 27.999C137.85 27.956 137.742 27.956 137.647 27.999L136.273 28.6289C136.02 28.7447 135.738 28.5391 135.77 28.2627L135.943 26.7607C135.955 26.6579 135.922 26.5548 135.852 26.4785L134.828 25.3652C134.64 25.1604 134.748 24.8284 135.021 24.7734L136.502 24.4746C136.604 24.4541 136.692 24.3902 136.743 24.2998L137.485 22.9834ZM178.558 22.9834C178.694 22.7412 179.043 22.7411 179.18 22.9834L179.922 24.2998C179.973 24.3902 180.06 24.4541 180.162 24.4746L181.644 24.7734C181.916 24.8285 182.024 25.1604 181.836 25.3652L180.813 26.4785C180.743 26.5548 180.71 26.6578 180.722 26.7607L180.895 28.2627C180.926 28.5389 180.644 28.7443 180.392 28.6289L179.017 27.999C178.922 27.956 178.814 27.956 178.72 27.999L177.346 28.6289C177.093 28.7447 176.81 28.5391 176.842 28.2627L177.016 26.7607C177.027 26.6579 176.994 26.5548 176.924 26.4785L175.9 25.3652C175.712 25.1604 175.82 24.8284 176.093 24.7734L177.574 24.4746C177.676 24.4541 177.764 24.3902 177.815 24.2998L178.558 22.9834ZM165.976 21.8379C164.853 21.8379 164.141 22.5503 164.141 24.3428C164.141 26.1351 164.853 26.8477 165.976 26.8477C167.098 26.8475 167.81 26.1349 167.811 24.3428C167.811 22.5505 167.098 21.8381 165.976 21.8379ZM158.973 1.00781C170.502 1.30005 180.09 9.39904 182.652 20.2158H181.734C179.143 9.69555 169.647 1.89261 158.327 1.89258C147.007 1.89258 137.511 9.69553 134.92 20.2158H134.002C136.612 9.19786 146.511 1 158.327 1L158.973 1.00781ZM158.322 2.7832C169.14 2.7832 178.23 10.1827 180.807 20.1963H175.765C173.336 12.8894 166.445 7.61914 158.322 7.61914C150.2 7.61931 143.309 12.8895 140.88 20.1963H135.839C138.415 10.1829 147.505 2.78338 158.322 2.7832Z" fill="url(#paint4_radial_1484_11994)"/>
<path d="M225.002 1.61816C230.428 6.0863 237.631 6.0789 243.639 6.07227C243.868 6.07202 244.097 6.07129 244.322 6.07129H245.503V27.8281C245.503 35.989 240.105 41.7786 234.973 45.4443C232.387 47.2909 229.81 48.6444 227.883 49.5352C226.918 49.9813 226.111 50.3134 225.543 50.5352C225.116 50.7016 224.685 50.8536 224.251 51C223.817 50.8537 223.386 50.7015 222.96 50.5352C222.392 50.3135 221.585 49.9812 220.62 49.5352C218.693 48.6444 216.115 47.291 213.529 45.4443C208.397 41.7786 203 35.9887 203 27.8281V6.07129H204.181C204.406 6.07129 204.634 6.07202 204.863 6.07227C210.871 6.0789 218.075 6.0865 223.501 1.61816L224.251 1L225.002 1.61816ZM223.738 2.6416C218.786 6.49701 212.534 6.97094 207.145 7.01855L204.859 7.02246H204.785L203.951 7.02148V27.8281C203.951 35.5267 209.041 41.0674 214.082 44.668C216.605 46.4703 219.128 47.7953 221.019 48.6689C221.964 49.1057 222.752 49.4308 223.305 49.6465C223.526 49.733 223.75 49.8139 223.971 49.8926L224.25 49.9922L224.53 49.8926C224.752 49.8136 224.974 49.7327 225.195 49.6465C225.748 49.4309 226.536 49.1059 227.481 48.6689C229.372 47.7952 231.894 46.4705 234.418 44.668C239.459 41.0674 244.549 35.527 244.549 27.8281V7.02148L243.715 7.02246H243.64C237.829 7.02888 230.451 7.06978 224.763 2.6416L224.25 2.24316L223.738 2.6416ZM224.25 3.29883C229.457 7.35268 235.991 7.80673 241.398 7.85254L243.641 7.85645C243.666 7.85642 243.691 7.85647 243.716 7.85645V27.8281L243.701 28.5059C243.414 35.4549 238.739 40.5581 233.934 43.9902L233.471 44.3154C231.157 45.9148 228.874 47.1069 227.132 47.9121C226.204 48.341 225.431 48.6598 224.893 48.8701L224.25 49.1074C224.033 49.0299 223.818 48.9522 223.607 48.8701C223.069 48.6598 222.296 48.3409 221.368 47.9121C219.51 47.0533 217.036 45.7538 214.566 43.9902C209.762 40.5581 205.085 35.4546 204.798 28.5059L204.784 27.8281V7.85645C204.809 7.85647 204.835 7.85642 204.86 7.85645L207.152 7.85254C212.551 7.80485 219.059 7.34019 224.25 3.29883ZM215.58 31.3223C215.155 31.3223 214.763 31.3987 214.401 31.5508C214.04 31.7008 213.725 31.9204 213.456 32.21C213.188 32.4974 212.978 32.8476 212.828 33.2598C212.68 33.6719 212.606 34.14 212.606 34.6641C212.606 35.3487 212.732 35.9407 212.983 36.4395C213.237 36.9361 213.589 37.3203 214.039 37.5908C214.491 37.8592 215.017 37.9931 215.615 37.9932C216.152 37.9932 216.628 37.8846 217.042 37.667C217.456 37.4472 217.782 37.1343 218.019 36.7285C218.255 36.3228 218.374 35.8419 218.374 35.2861V34.5059H215.739V35.4248H217.233C217.228 35.7226 217.164 35.9836 217.039 36.208C216.908 36.4405 216.721 36.6202 216.478 36.7471C216.237 36.8738 215.952 36.9375 215.622 36.9375C215.259 36.9375 214.939 36.8502 214.664 36.6748C214.389 36.4972 214.175 36.2378 214.021 35.8975C213.866 35.5572 213.789 35.1417 213.789 34.6514C213.789 34.1653 213.866 33.7532 214.021 33.415C214.177 33.0748 214.392 32.817 214.664 32.6416C214.937 32.4662 215.248 32.3779 215.597 32.3779C215.791 32.378 215.971 32.4034 216.136 32.4541C216.3 32.5027 216.446 32.5757 216.573 32.6729C216.702 32.7701 216.811 32.888 216.902 33.0254C216.995 33.1605 217.068 33.3134 217.121 33.4844H218.32C218.272 33.1653 218.169 32.8735 218.013 32.6094C217.856 32.3452 217.656 32.1171 217.413 31.9248C217.172 31.7325 216.897 31.584 216.586 31.4805C216.275 31.3748 215.939 31.3223 215.58 31.3223ZM219.109 31.4111V37.9043H221.31C221.969 37.9043 222.534 37.7746 223.003 37.5146C223.474 37.2547 223.835 36.8816 224.084 36.3955C224.335 35.9093 224.462 35.3278 224.462 34.6514C224.462 33.9772 224.337 33.398 224.088 32.9141C223.839 32.43 223.481 32.0587 223.016 31.8008C222.553 31.5409 221.999 31.4112 221.354 31.4111H219.109ZM225.178 31.4111V37.9043H226.354V35.7109H227.597C228.097 35.7109 228.519 35.6184 228.861 35.4346C229.204 35.2486 229.463 34.9942 229.639 34.6709C229.814 34.3475 229.901 33.977 229.901 33.5605C229.901 33.1485 229.814 32.7804 229.639 32.457C229.465 32.1317 229.208 31.8764 228.868 31.6904C228.53 31.5044 228.111 31.4111 227.612 31.4111H225.178ZM230.521 31.4111V37.9043H231.698V35.5264H232.895L234.171 37.9043H235.483L234.078 35.333C234.121 35.3159 234.163 35.2987 234.203 35.2793C234.545 35.1123 234.804 34.8766 234.979 34.5723C235.157 34.2659 235.246 33.9046 235.246 33.4883C235.246 33.074 235.158 32.7111 234.982 32.4004C234.809 32.0876 234.552 31.8442 234.212 31.6709C233.874 31.4978 233.456 31.4112 232.957 31.4111H230.521ZM221.288 32.4287C221.728 32.4288 222.096 32.5109 222.392 32.6758C222.69 32.8385 222.914 33.0854 223.066 33.415C223.219 33.7426 223.295 34.1547 223.295 34.6514C223.295 35.1481 223.219 35.5627 223.066 35.8945C222.914 36.2242 222.687 36.4727 222.385 36.6396C222.083 36.8045 221.705 36.8867 221.253 36.8867H220.286V32.4287H221.288ZM227.432 32.3945C227.725 32.3945 227.965 32.4437 228.151 32.543C228.339 32.6402 228.478 32.7768 228.566 32.9521C228.657 33.1275 228.703 33.3303 228.703 33.5605C228.703 33.7909 228.657 33.9953 228.566 34.1729C228.478 34.3503 228.34 34.4904 228.154 34.5918C227.968 34.693 227.73 34.7431 227.438 34.7432H226.354V32.3945H227.432ZM232.776 32.3945C233.07 32.3946 233.31 32.4378 233.496 32.5244C233.682 32.609 233.82 32.7337 233.911 32.8984C234.002 33.0612 234.048 33.258 234.048 33.4883C234.048 33.7185 234.002 33.9128 233.911 34.0713C233.822 34.2277 233.685 34.3473 233.499 34.4297C233.313 34.51 233.074 34.5498 232.782 34.5498H231.698V32.3945H232.776ZM223.982 11.7158C222.013 11.716 220.411 13.3177 220.411 15.2871V17.5312C219.161 17.6443 218.179 18.6964 218.179 19.9756V23.5469C218.179 24.9012 219.28 26.0017 220.634 26.002H227.33C228.684 26.002 229.786 24.9013 229.786 23.5469V19.9756C229.786 18.6964 228.804 17.6443 227.554 17.5312V15.2871C227.554 13.3175 225.952 11.7158 223.982 11.7158ZM223.982 20.6455C224.352 20.6456 224.652 20.9451 224.652 21.3145V22.208C224.652 22.5775 224.352 22.8769 223.982 22.877C223.613 22.8768 223.313 22.5775 223.312 22.208V21.3145C223.313 20.9451 223.613 20.6456 223.982 20.6455ZM223.982 13.0547C225.213 13.0547 226.215 14.0568 226.215 15.2871V17.5205H221.75V15.2871C221.75 14.0569 222.752 13.0549 223.982 13.0547Z" fill="url(#paint5_radial_1484_11994)"/>
<path d="M290 1C303.807 1 315 12.1929 315 26C315 39.8071 303.807 51 290 51C276.193 51 265 39.8071 265 26C265 12.1929 276.193 1 290 1ZM290 44.3027C289.262 44.3028 288.661 44.9042 288.661 45.6426V46.3115H288.549C287.995 46.3118 287.545 46.7626 287.545 47.3164V48.6553C287.545 49.209 287.995 49.6599 288.549 49.6602H291.451C292.005 49.6601 292.455 49.2091 292.455 48.6553V47.3164C292.455 46.7624 292.005 46.3116 291.451 46.3115H291.34V45.6426C291.34 44.9042 290.738 44.3027 290 44.3027ZM290 47.4277C290.185 47.4277 290.335 47.5779 290.335 47.7627V48.209C290.335 48.3937 290.185 48.5439 290 48.5439C289.815 48.5438 289.665 48.3936 289.665 48.209V47.7627C289.665 47.578 289.815 47.4279 290 47.4277ZM268.745 28.7363C269.896 37.7674 276.667 45.0416 285.44 46.9434L285.535 46.5068L285.629 46.0703C277.222 44.2478 270.732 37.2756 269.63 28.623L268.745 28.7363ZM310.37 28.623C309.267 37.2758 302.778 44.248 294.371 46.0703L294.56 46.9434C303.334 45.0416 310.105 37.7673 311.256 28.7363L310.813 28.6797L310.37 28.623ZM290 44.9727C290.369 44.9727 290.67 45.2734 290.67 45.6426V46.3115H289.33V45.6426C289.33 45.2734 289.631 44.9728 290 44.9727ZM290.001 9.03613C280.632 9.03613 273.036 16.6319 273.036 26.001C273.036 35.3699 280.632 42.9648 290.001 42.9648C299.37 42.9646 306.965 35.3697 306.965 26.001C306.965 16.632 299.37 9.03639 290.001 9.03613ZM278.794 30.4482C278.966 30.4483 279.127 30.4729 279.275 30.5225C279.425 30.5711 279.56 30.6432 279.68 30.7383C279.799 30.8323 279.898 30.9476 279.977 31.084C280.055 31.2191 280.107 31.3737 280.135 31.5479H279.641C279.622 31.4424 279.586 31.3497 279.534 31.2695C279.482 31.1892 279.419 31.1205 279.344 31.0645C279.269 31.0085 279.185 30.966 279.092 30.9375C279 30.909 278.902 30.8955 278.799 30.8955C278.612 30.8955 278.444 30.9421 278.296 31.0361C278.149 31.1302 278.033 31.2684 277.947 31.4502C277.863 31.632 277.82 31.8542 277.82 32.1162C277.82 32.3803 277.863 32.6035 277.947 32.7852C278.033 32.9668 278.15 33.1043 278.298 33.1973C278.446 33.2901 278.612 33.3369 278.797 33.3369C278.899 33.3369 278.997 33.3224 279.089 33.2949C279.182 33.2664 279.266 33.2248 279.341 33.1699C279.416 33.115 279.48 33.048 279.531 32.9688C279.584 32.8886 279.621 32.7967 279.641 32.6934L280.135 32.6943C280.108 32.8538 280.057 33.0007 279.981 33.1348C279.906 33.2678 279.81 33.3833 279.691 33.4805C279.574 33.5766 279.439 33.6513 279.288 33.7041C279.137 33.7569 278.972 33.7832 278.794 33.7832C278.513 33.7832 278.262 33.7172 278.042 33.584C277.822 33.4498 277.649 33.258 277.523 33.0088C277.397 32.7594 277.334 32.4617 277.334 32.1162C277.334 31.7696 277.398 31.472 277.524 31.2236C277.651 30.9742 277.824 30.7826 278.044 30.6494C278.264 30.5152 278.514 30.4482 278.794 30.4482ZM282.013 30.4482C282.293 30.4482 282.543 30.5152 282.763 30.6494C282.984 30.7826 283.157 30.9742 283.284 31.2236C283.411 31.472 283.475 31.7696 283.475 32.1162C283.475 32.4627 283.411 32.7605 283.284 33.0098C283.157 33.2581 282.984 33.4498 282.763 33.584C282.543 33.7171 282.293 33.7832 282.013 33.7832C281.732 33.7832 281.481 33.7171 281.26 33.584C281.04 33.4498 280.867 33.258 280.74 33.0088C280.613 32.7594 280.55 32.4617 280.55 32.1162C280.55 31.7696 280.613 31.472 280.74 31.2236C280.867 30.9742 281.04 30.7826 281.26 30.6494C281.481 30.5152 281.732 30.4483 282.013 30.4482ZM285.646 33.0166H285.685L286.718 30.4922H287.312V33.7393H286.847V31.3896H286.816L285.858 33.7344H285.472L284.515 31.3887H284.484V33.7393H284.019V30.4922H284.613L285.646 33.0166ZM289.115 30.4922C289.368 30.4922 289.577 30.5389 289.743 30.6309C289.909 30.7228 290.033 30.8484 290.115 31.0078C290.198 31.1663 290.239 31.3453 290.239 31.5439C290.239 31.7435 290.198 31.9235 290.114 32.083C290.032 32.2413 289.907 32.367 289.74 32.46C289.574 32.5519 289.365 32.5977 289.113 32.5977H288.447V33.7393H287.958V30.4922H289.115ZM291.236 33.3174H292.708V33.7393H290.746V30.4922H291.236V33.3174ZM293.69 33.7393H293.199V30.4922H293.69V33.7393ZM296.993 33.7393H296.473L296.176 32.8799H294.907L294.61 33.7393H294.09L295.259 30.4922H295.824L296.993 33.7393ZM299.5 32.877H299.53V30.4922H300.016V33.7393H299.564L297.915 31.3584H297.885V33.7393H297.395V30.4922H297.848L299.5 32.877ZM303.016 30.9141H302.002V33.7393H301.514V30.9141H300.503V30.4922H303.016V30.9141ZM282.013 30.8955C281.826 30.8955 281.659 30.9421 281.512 31.0361C281.365 31.1291 281.249 31.2666 281.163 31.4482C281.078 31.629 281.036 31.852 281.036 32.1162C281.036 32.3803 281.079 32.6035 281.163 32.7852C281.249 32.9658 281.365 33.1032 281.512 33.1973C281.659 33.2902 281.826 33.3369 282.013 33.3369C282.199 33.3369 282.366 33.2903 282.513 33.1973C282.66 33.1032 282.777 32.9657 282.861 32.7852C282.947 32.6035 282.989 32.3803 282.989 32.1162C282.989 31.852 282.947 31.629 282.861 31.4482C282.777 31.2666 282.66 31.1291 282.513 31.0361C282.366 30.9421 282.199 30.8955 282.013 30.8955ZM295.05 32.4678H296.033L295.555 31.082H295.529L295.05 32.4678ZM288.447 32.1826H289.069C289.229 32.1826 289.359 32.1545 289.458 32.0996C289.557 32.0436 289.63 31.968 289.677 31.8721C289.723 31.776 289.746 31.6664 289.746 31.5439C289.746 31.4214 289.723 31.3119 289.677 31.2168C289.63 31.1217 289.557 31.0471 289.456 30.9932C289.357 30.9393 289.225 30.9121 289.062 30.9121H288.447V32.1826ZM268.337 23.7344C268.155 23.7524 267.993 23.7987 267.85 23.873C267.705 23.9463 267.583 24.0421 267.481 24.1602C267.379 24.2781 267.299 24.414 267.243 24.5674C267.187 24.7207 267.156 24.888 267.149 25.0684C267.14 25.3513 267.197 25.6075 267.321 25.8359C267.446 26.0642 267.63 26.2482 267.875 26.3867C268.119 26.5251 268.415 26.6001 268.765 26.6123C269.113 26.6244 269.414 26.5703 269.668 26.4502C269.922 26.3301 270.119 26.1606 270.259 25.9414C270.399 25.7222 270.473 25.4695 270.483 25.1846C270.49 24.9914 270.467 24.8137 270.416 24.6533C270.363 24.4931 270.288 24.3522 270.189 24.2305C270.09 24.1086 269.974 24.0082 269.842 23.9307C269.709 23.852 269.566 23.799 269.412 23.7715L269.389 24.3643C269.483 24.3855 269.566 24.4207 269.639 24.4707C269.711 24.5197 269.771 24.58 269.819 24.6504C269.868 24.7196 269.903 24.7975 269.927 24.8838C269.949 24.9691 269.959 25.0611 269.956 25.1582C269.95 25.3333 269.902 25.4879 269.812 25.6211C269.72 25.7531 269.588 25.8555 269.417 25.9277C269.244 25.9989 269.033 26.0301 268.785 26.0215C268.541 26.013 268.336 25.9668 268.17 25.8838C268.003 25.8008 267.877 25.69 267.794 25.5508C267.71 25.4115 267.672 25.2534 267.678 25.0771C267.681 24.978 267.698 24.8853 267.729 24.8008C267.758 24.7154 267.8 24.6398 267.855 24.5742C267.911 24.5085 267.977 24.4539 268.055 24.4111C268.131 24.3684 268.219 24.3407 268.316 24.3271L268.337 23.7344ZM311.579 24.9355L311.585 25.2803L310.231 25.3047C310.079 25.3063 309.953 25.3418 309.853 25.4102C309.753 25.4794 309.679 25.5719 309.633 25.6875C309.587 25.8034 309.568 25.9337 309.574 26.0771C309.578 26.1584 309.587 26.2275 309.601 26.2832C309.614 26.3399 309.627 26.3837 309.638 26.4141L310.084 26.3096C310.079 26.2939 310.074 26.2706 310.068 26.2402C310.063 26.2108 310.059 26.1774 310.059 26.1416C310.058 26.0943 310.065 26.0509 310.079 26.0117C310.093 25.9724 310.12 25.94 310.16 25.915C310.201 25.8912 310.26 25.8783 310.337 25.877L311.595 25.8545L311.604 26.335L312.048 26.3271L312.039 25.8467L312.622 25.8369L312.612 25.2627L312.028 25.2725L312.022 24.9277L311.579 24.9355ZM280.066 19.0586C280.48 19.0586 280.864 19.1162 281.218 19.2324C281.573 19.3487 281.888 19.5191 282.162 19.7422C282.437 19.9631 282.66 20.2338 282.832 20.5547C283.006 20.8754 283.118 21.2426 283.167 21.6562H281.64C281.612 21.4588 281.555 21.2833 281.469 21.1299C281.383 20.9741 281.272 20.8417 281.137 20.7324C281.002 20.6233 280.847 20.5395 280.67 20.4814C280.496 20.4233 280.306 20.3946 280.102 20.3945C279.732 20.3945 279.409 20.4862 279.135 20.6699C278.861 20.8513 278.648 21.1163 278.497 21.4648C278.346 21.8113 278.271 22.2323 278.271 22.7275C278.271 23.2366 278.346 23.6643 278.497 24.0107C278.651 24.3572 278.864 24.6192 279.139 24.7959C279.413 24.9725 279.73 25.0605 280.091 25.0605C280.293 25.0605 280.48 25.0339 280.652 24.9805C280.827 24.927 280.981 24.8493 281.116 24.7471C281.251 24.6424 281.363 24.515 281.451 24.3662C281.542 24.2175 281.605 24.0479 281.64 23.8574L283.167 23.8643C283.128 24.1921 283.028 24.5089 282.87 24.8135C282.714 25.1155 282.504 25.3866 282.239 25.626C281.977 25.863 281.663 26.051 281.298 26.1904C280.935 26.3276 280.525 26.3965 280.066 26.3965C279.429 26.3965 278.86 26.2522 278.357 25.9639C277.858 25.6756 277.462 25.2582 277.172 24.7119C276.884 24.1656 276.739 23.504 276.739 22.7275C276.739 21.9486 276.886 21.2857 277.179 20.7393C277.472 20.1931 277.869 19.7772 278.371 19.4912C278.873 19.2029 279.439 19.0586 280.066 19.0586ZM287.206 19.0586C287.62 19.0586 288.004 19.1162 288.357 19.2324C288.713 19.3487 289.028 19.519 289.303 19.7422C289.577 19.963 289.8 20.234 289.972 20.5547C290.146 20.8755 290.258 21.2425 290.307 21.6562H288.779C288.751 21.4587 288.694 21.2833 288.608 21.1299C288.522 20.9742 288.412 20.8417 288.277 20.7324C288.142 20.6232 287.986 20.5396 287.81 20.4814C287.635 20.4233 287.446 20.3945 287.241 20.3945C286.872 20.3945 286.55 20.4863 286.275 20.6699C286.001 20.8513 285.788 21.1161 285.637 21.4648C285.486 21.8113 285.41 22.2323 285.41 22.7275C285.41 23.2366 285.486 23.6644 285.637 24.0107C285.79 24.3572 286.004 24.6192 286.278 24.7959C286.553 24.9726 286.87 25.0605 287.23 25.0605C287.433 25.0605 287.62 25.0339 287.792 24.9805C287.966 24.927 288.121 24.8493 288.256 24.7471C288.391 24.6424 288.502 24.515 288.591 24.3662C288.681 24.2175 288.744 24.048 288.779 23.8574L290.307 23.8643C290.267 24.1921 290.169 24.5089 290.011 24.8135C289.855 25.1157 289.644 25.3865 289.379 25.626C289.116 25.863 288.802 26.051 288.438 26.1904C288.075 26.3276 287.664 26.3965 287.206 26.3965C286.569 26.3965 285.999 26.2522 285.497 25.9639C284.997 25.6756 284.602 25.2582 284.312 24.7119C284.023 24.1656 283.879 23.504 283.879 22.7275C283.879 21.9486 284.025 21.2857 284.318 20.7393C284.611 20.1931 285.009 19.7772 285.511 19.4912C286.013 19.2029 286.578 19.0586 287.206 19.0586ZM293.962 19.1562C294.504 19.1562 294.965 19.2599 295.347 19.4668C295.728 19.6714 296.019 19.9563 296.219 20.3213C296.421 20.6839 296.522 21.1021 296.522 21.5762C296.522 22.0505 296.42 22.4693 296.215 22.832C296.01 23.1946 295.714 23.4774 295.326 23.6797C294.94 23.882 294.473 23.9834 293.924 23.9834H292.654V26.2988H291.145V19.1562H293.962ZM302.92 26.2988H301.302L300.772 24.6699H298.194L297.664 26.2988H296.046L298.512 19.1562H300.458L302.92 26.2988ZM310.54 22.5752C310.296 22.6033 310.084 22.6752 309.907 22.7891C309.731 22.9039 309.6 23.0532 309.514 23.2373C309.428 23.4227 309.398 23.6365 309.426 23.8779C309.449 24.0805 309.506 24.2529 309.597 24.3945C309.688 24.536 309.805 24.6428 309.946 24.7148C310.089 24.7868 310.246 24.8204 310.419 24.8145L310.356 24.2695C310.267 24.2627 310.19 24.2393 310.124 24.2012C310.058 24.163 310.004 24.1122 309.964 24.0488C309.925 23.9864 309.9 23.9129 309.891 23.8291C309.877 23.7107 309.897 23.6031 309.95 23.5078C310.004 23.4136 310.087 23.3351 310.199 23.2734C310.312 23.2116 310.451 23.1712 310.616 23.1523C310.779 23.1337 310.921 23.1419 311.043 23.1768C311.165 23.2127 311.263 23.2714 311.335 23.3525C311.408 23.4334 311.451 23.5321 311.465 23.6484C311.481 23.7858 311.453 23.9004 311.384 23.9912C311.316 24.083 311.224 24.1472 311.11 24.1826L311.173 24.7275C311.346 24.695 311.493 24.6257 311.612 24.5205C311.733 24.4152 311.821 24.2823 311.875 24.1221C311.93 23.9627 311.946 23.7841 311.924 23.5879C311.897 23.3519 311.82 23.1532 311.694 22.9922C311.57 22.832 311.407 22.7154 311.207 22.6426C311.008 22.5697 310.786 22.547 310.54 22.5752ZM269.278 21.2871C269.119 21.259 268.981 21.2642 268.864 21.3037C268.748 21.3422 268.651 21.4037 268.573 21.4873C268.494 21.5709 268.43 21.6678 268.383 21.7773C268.336 21.8869 268.302 21.9999 268.281 22.1152C268.252 22.2827 268.25 22.4407 268.275 22.5879C268.3 22.7349 268.354 22.8654 268.436 22.9785C268.516 23.0913 268.626 23.1817 268.765 23.249L268.933 22.7344C268.855 22.6918 268.793 22.6249 268.747 22.5342C268.701 22.4424 268.69 22.3268 268.715 22.1885C268.738 22.0577 268.788 21.9626 268.864 21.9043C268.941 21.846 269.039 21.8279 269.156 21.8486L269.166 21.8496C269.22 21.8592 269.257 21.8867 269.275 21.9316C269.293 21.9756 269.301 22.0433 269.298 22.1328C269.294 22.2222 269.287 22.3387 269.276 22.4814C269.268 22.6 269.269 22.717 269.277 22.8311C269.285 22.9438 269.309 23.048 269.347 23.1436C269.385 23.2392 269.443 23.3202 269.522 23.3857C269.602 23.4513 269.709 23.4966 269.845 23.5205C270.002 23.5482 270.14 23.5361 270.26 23.4854C270.379 23.4336 270.477 23.352 270.554 23.2412C270.629 23.1291 270.681 22.9966 270.708 22.8447C270.73 22.7201 270.732 22.6083 270.714 22.5098C270.695 22.4101 270.662 22.3243 270.616 22.2529C270.569 22.1802 270.515 22.1203 270.454 22.0742L270.458 22.0557L270.787 22.1133L270.883 21.5703L269.278 21.2871ZM298.577 23.4912H300.391L299.513 20.7881H299.457L298.577 23.4912ZM269.923 21.9824C270.011 21.998 270.089 22.0348 270.156 22.0938C270.223 22.1517 270.273 22.227 270.304 22.3184C270.334 22.4094 270.338 22.5118 270.318 22.625C270.298 22.7424 270.254 22.8348 270.188 22.9014C270.121 22.9678 270.036 22.992 269.932 22.9736C269.859 22.9608 269.803 22.9312 269.764 22.8848C269.724 22.838 269.697 22.7781 269.683 22.707C269.668 22.636 269.663 22.5568 269.666 22.4707C269.667 22.4325 269.669 22.387 269.671 22.335C269.673 22.2828 269.673 22.2293 269.673 22.1758C269.673 22.1225 269.67 22.0738 269.665 22.0303C269.66 21.9858 269.652 21.9529 269.641 21.9326L269.923 21.9824ZM292.654 22.7725H293.68C293.97 22.7725 294.21 22.723 294.398 22.623C294.589 22.5209 294.73 22.3799 294.823 22.2012C294.919 22.0198 294.967 21.811 294.967 21.5762C294.967 21.3392 294.919 21.1327 294.823 20.9561C294.73 20.7771 294.589 20.6387 294.398 20.541C294.208 20.441 293.966 20.3906 293.673 20.3906H292.654V22.7725ZM308.772 20.4023L309.614 20.4629L309.918 21.6445L309.211 22.1045L309.367 22.7129L312.226 20.7949L312.045 20.0918L308.616 19.7939L308.772 20.4023ZM311.487 20.5977L311.494 20.6221L310.337 21.373L310.111 20.498L311.487 20.5977ZM267.821 20.4199L270.966 21.2285L271.109 20.6729L267.965 19.8643L267.821 20.4199ZM268.891 19.5957L271.215 20.3213L271.386 19.7734L269.062 19.0488L268.891 19.5957ZM268.449 18.8076C268.367 18.7818 268.286 18.7913 268.209 18.8359C268.132 18.8792 268.079 18.9447 268.052 19.0322C268.025 19.1187 268.031 19.2026 268.069 19.2832C268.107 19.3636 268.168 19.4176 268.251 19.4434C268.332 19.4687 268.412 19.4591 268.49 19.415C268.567 19.3705 268.619 19.3044 268.646 19.2178C268.674 19.1301 268.668 19.0462 268.63 18.9668C268.591 18.8861 268.531 18.8331 268.449 18.8076ZM268.744 17.1611C268.703 17.2281 268.665 17.3092 268.631 17.4023C268.583 17.5341 268.564 17.6635 268.575 17.79C268.586 17.9165 268.631 18.031 268.709 18.1328C268.788 18.2337 268.905 18.3129 269.059 18.3691L269.273 18.4473L269.15 18.7861L269.567 18.9385L269.69 18.6006L271.562 19.2852L271.759 18.7441L269.889 18.0596L270.062 17.5869L269.646 17.4336L269.472 17.9072L269.292 17.8418C269.203 17.8091 269.142 17.7631 269.109 17.7051C269.076 17.6457 269.078 17.5659 269.114 17.4658C269.13 17.4232 269.147 17.3853 269.168 17.3535C269.187 17.3216 269.205 17.2956 269.221 17.2754L268.844 17.0156C268.819 17.046 268.785 17.0944 268.744 17.1611ZM307.675 17.6387L307.534 17.6484C307.437 17.6546 307.359 17.6431 307.303 17.6133C307.246 17.5847 307.203 17.5404 307.175 17.4814C307.147 17.4223 307.127 17.3487 307.114 17.2627L306.652 17.3271C306.654 17.3692 306.663 17.4231 306.68 17.4873C306.696 17.5529 306.72 17.6214 306.752 17.6924C306.814 17.8288 306.89 17.9361 306.979 18.0137C307.069 18.0926 307.172 18.1469 307.287 18.1768C307.402 18.207 307.528 18.2161 307.664 18.2041L310.553 17.9629L310.3 17.4072L308.393 17.6553L308.383 17.6328L309.824 16.3604L309.572 15.8066L307.675 17.6387ZM271.277 15.4561C271.066 15.456 270.874 15.5105 270.702 15.6191C270.53 15.7279 270.39 15.8882 270.283 16.1006C270.176 16.3128 270.13 16.521 270.146 16.7236C270.161 16.9262 270.232 17.1134 270.357 17.2842C270.484 17.454 270.659 17.596 270.884 17.709C271.108 17.8219 271.326 17.8783 271.537 17.8779C271.748 17.8765 271.94 17.8206 272.111 17.7119C272.283 17.6032 272.422 17.4427 272.529 17.2305C272.636 17.0181 272.682 16.8102 272.667 16.6074C272.652 16.4048 272.582 16.2182 272.457 16.0488C272.332 15.8785 272.157 15.737 271.933 15.624C271.708 15.511 271.489 15.4552 271.277 15.4561ZM271.279 16.0195C271.406 16.035 271.537 16.0756 271.67 16.1426C271.802 16.209 271.912 16.2891 272 16.3818C272.089 16.4737 272.146 16.5749 272.171 16.6846C272.195 16.7937 272.178 16.9064 272.12 17.0215C272.061 17.1391 271.979 17.2211 271.877 17.2676C271.774 17.3125 271.659 17.3279 271.532 17.3125C271.406 17.2961 271.276 17.255 271.144 17.1885C271.011 17.1216 270.9 17.0419 270.812 16.9502C270.723 16.857 270.665 16.755 270.64 16.6455C270.615 16.5349 270.632 16.4197 270.691 16.3018C270.749 16.1868 270.831 16.1066 270.934 16.0615C271.037 16.0166 271.152 16.0027 271.279 16.0195ZM307.828 14.0234C307.617 14.0427 307.406 14.1173 307.196 14.248C306.987 14.3782 306.827 14.5331 306.716 14.7119C306.606 14.8911 306.552 15.0827 306.553 15.2861C306.554 15.4905 306.62 15.6961 306.748 15.9023C306.856 16.0753 306.98 16.2067 307.123 16.2959C307.267 16.3844 307.418 16.4308 307.576 16.4355C307.736 16.4396 307.892 16.4025 308.046 16.3232L307.756 15.8574C307.673 15.8894 307.593 15.9026 307.517 15.8965C307.441 15.8903 307.371 15.867 307.308 15.8271C307.245 15.7874 307.192 15.7309 307.147 15.6592C307.084 15.5579 307.056 15.4525 307.062 15.3438C307.071 15.2354 307.113 15.1291 307.188 15.0254C307.263 14.921 307.372 14.825 307.513 14.7373C307.652 14.6508 307.784 14.5969 307.909 14.5762C308.035 14.5564 308.147 14.568 308.247 14.6104C308.348 14.6522 308.429 14.7227 308.491 14.8223C308.564 14.9397 308.589 15.0542 308.565 15.166C308.543 15.2781 308.488 15.3753 308.4 15.4561L308.69 15.9219C308.833 15.8184 308.936 15.6932 308.999 15.5469C309.063 15.4 309.084 15.2421 309.064 15.0742C309.046 14.9065 308.984 14.738 308.88 14.5703C308.754 14.3689 308.6 14.2224 308.418 14.1309C308.237 14.0396 308.04 14.0037 307.828 14.0234ZM271.739 13.5498C271.716 13.5812 271.696 13.6109 271.68 13.6377C271.606 13.7561 271.573 13.8825 271.581 14.0156C271.589 14.1471 271.641 14.2691 271.736 14.3809L271.723 14.4023L271.378 14.1875L271.084 14.6602L273.152 15.9463L273.455 15.459L272.239 14.7031C272.152 14.6486 272.087 14.5799 272.045 14.498C272.003 14.416 271.985 14.3276 271.99 14.2344C271.996 14.1396 272.026 14.0468 272.081 13.958C272.107 13.9169 272.136 13.8759 272.17 13.8359C272.203 13.7947 272.23 13.7662 272.25 13.75L271.802 13.4707C271.783 13.4903 271.762 13.5169 271.739 13.5498ZM306.593 11.9131C306.454 11.8993 306.314 11.9219 306.172 11.9814L306.447 12.4473C306.53 12.4173 306.622 12.4153 306.721 12.4404C306.82 12.4665 306.913 12.5342 307.001 12.6436C307.084 12.7474 307.123 12.8481 307.116 12.9443C307.109 13.0404 307.059 13.1257 306.966 13.2002L306.958 13.207C306.915 13.241 306.87 13.25 306.824 13.2344C306.779 13.2189 306.724 13.1803 306.659 13.1191C306.595 13.0571 306.512 12.9751 306.411 12.873C306.327 12.7886 306.239 12.7123 306.147 12.6436C306.057 12.575 305.964 12.523 305.867 12.4883C305.77 12.4535 305.67 12.4444 305.568 12.4609C305.467 12.4776 305.362 12.5295 305.255 12.6152C305.131 12.7148 305.049 12.8262 305.008 12.9492C304.968 13.0733 304.964 13.2014 304.997 13.332C305.032 13.4627 305.097 13.5887 305.193 13.709C305.273 13.8078 305.355 13.883 305.441 13.9346C305.529 13.9862 305.615 14.018 305.699 14.0303C305.785 14.0427 305.865 14.0414 305.939 14.0264L305.951 14.042L305.69 14.251L306.035 14.6816L307.308 13.6621C307.433 13.5613 307.52 13.4541 307.567 13.3408C307.615 13.2281 307.633 13.114 307.622 13C307.611 12.8854 307.58 12.7739 307.528 12.666C307.477 12.5583 307.415 12.4586 307.342 12.3672C307.235 12.2344 307.119 12.1288 306.991 12.0508C306.865 11.9722 306.732 11.9262 306.593 11.9131ZM273.66 11.7871C273.511 11.7561 273.369 11.7676 273.234 11.8213C273.101 11.8742 272.981 11.9663 272.877 12.0977C272.764 12.2399 272.7 12.3845 272.686 12.5312C272.672 12.6771 272.702 12.8147 272.773 12.9434L272.756 12.9658L272.432 12.708L272.091 13.1377L273.996 14.6533L274.354 14.2041L273.237 13.3154C273.146 13.2425 273.081 13.1633 273.043 13.0781C273.006 12.9922 272.995 12.9055 273.009 12.8184C273.023 12.7297 273.061 12.6458 273.123 12.5674C273.215 12.4516 273.323 12.389 273.447 12.3809C273.572 12.3719 273.698 12.4184 273.825 12.5195L274.97 13.4297L275.326 12.9805L274.113 12.0156C273.962 11.8938 273.81 11.8174 273.66 11.7871ZM305.786 12.9736C305.848 12.9744 305.91 12.9931 305.973 13.0293C306.036 13.0656 306.098 13.1133 306.161 13.1729C306.189 13.1992 306.223 13.2299 306.261 13.2656C306.299 13.3014 306.337 13.3378 306.378 13.373C306.418 13.4082 306.457 13.4379 306.493 13.4629C306.53 13.4887 306.56 13.504 306.583 13.5088L306.359 13.6885C306.289 13.7446 306.21 13.7788 306.121 13.79C306.033 13.8021 305.944 13.7898 305.855 13.7529C305.767 13.7154 305.687 13.6513 305.615 13.5615C305.541 13.4684 305.5 13.3741 305.494 13.2803C305.488 13.1867 305.526 13.1069 305.608 13.041C305.666 12.9948 305.725 12.9722 305.786 12.9736ZM273.762 11.0752L275.564 12.7129L275.95 12.2881L274.148 10.6504L273.762 11.0752ZM303.682 11.9785L304.131 12.4258L306.463 11.3105L306.03 10.8799L304.356 11.7676L304.339 11.749L305.217 10.0723L304.783 9.64062L303.682 11.9785ZM275.925 9.22168C275.811 9.23889 275.701 9.2757 275.597 9.33301C275.492 9.39033 275.396 9.45868 275.309 9.53711C275.182 9.65079 275.084 9.77374 275.014 9.90527C274.942 10.0362 274.904 10.1719 274.898 10.3115C274.893 10.4501 274.924 10.5886 274.991 10.7266L275.44 10.4248C275.406 10.3438 275.399 10.2531 275.418 10.1533C275.438 10.0528 275.5 9.95521 275.604 9.86133C275.703 9.77228 275.802 9.72819 275.898 9.72949C275.995 9.73093 276.083 9.77657 276.163 9.86523L276.169 9.87207C276.205 9.91283 276.218 9.95682 276.205 10.0039C276.192 10.0496 276.156 10.1071 276.099 10.1758C276.041 10.2437 275.963 10.3313 275.867 10.4375C275.788 10.526 275.717 10.6186 275.653 10.7139C275.59 10.8077 275.544 10.9043 275.515 11.0029C275.486 11.1015 275.482 11.2013 275.504 11.3018C275.526 11.4024 275.584 11.5044 275.676 11.6064C275.783 11.7249 275.899 11.8005 276.024 11.834C276.15 11.8667 276.278 11.8635 276.406 11.8232C276.535 11.7814 276.657 11.7086 276.771 11.6055C276.866 11.5207 276.936 11.4335 276.982 11.3447C277.029 11.2545 277.056 11.1668 277.064 11.082C277.071 10.9957 277.065 10.9153 277.046 10.8418L277.061 10.8291L277.284 11.0781L277.694 10.709L276.604 9.49707C276.496 9.37687 276.384 9.2964 276.268 9.25586C276.152 9.21467 276.038 9.2037 275.925 9.22168ZM276.685 10.4424C276.745 10.5091 276.783 10.5863 276.799 10.6738C276.816 10.7607 276.809 10.8504 276.777 10.9414C276.745 11.0315 276.686 11.1155 276.601 11.1924C276.512 11.2721 276.42 11.3175 276.327 11.3291C276.234 11.3406 276.152 11.307 276.081 11.2285C276.032 11.1737 276.005 11.1162 276.003 11.0557C276 10.9942 276.015 10.93 276.048 10.8652C276.08 10.8006 276.125 10.7356 276.181 10.6699C276.205 10.6406 276.235 10.6055 276.269 10.5654C276.302 10.5254 276.335 10.4838 276.368 10.4414C276.401 10.3991 276.429 10.3589 276.452 10.3213C276.476 10.2833 276.489 10.2524 276.492 10.2295L276.685 10.4424ZM302.505 10.875L302.94 11.25L304.528 9.40332L304.094 9.0293L302.505 10.875ZM273.465 10.0986C273.376 10.1052 273.301 10.1421 273.239 10.21C273.178 10.2771 273.148 10.3558 273.149 10.4453C273.15 10.534 273.182 10.6078 273.246 10.666C273.309 10.7235 273.386 10.7494 273.476 10.7422C273.564 10.7342 273.639 10.6961 273.7 10.6289C273.762 10.5609 273.792 10.4827 273.791 10.3945C273.79 10.3049 273.758 10.2314 273.694 10.1738C273.63 10.1155 273.554 10.0907 273.465 10.0986ZM301.279 9.93359L301.739 10.2764L302.596 9.13086C302.658 9.04797 302.732 8.98813 302.817 8.95312C302.903 8.91815 302.992 8.90807 303.085 8.92188C303.179 8.93551 303.268 8.97353 303.352 9.03613C303.39 9.06522 303.429 9.09787 303.466 9.13477C303.504 9.17146 303.53 9.20134 303.545 9.22266L303.861 8.7998C303.843 8.77978 303.819 8.75617 303.788 8.73047C303.759 8.70453 303.73 8.68207 303.705 8.66309C303.594 8.57975 303.471 8.53662 303.338 8.5332C303.206 8.52961 303.08 8.57028 302.96 8.65625L302.94 8.6416L303.184 8.31641L302.737 7.9834L301.279 9.93359ZM279.123 6.20703C278.968 6.18729 278.811 6.19596 278.652 6.23438C278.494 6.27282 278.337 6.33971 278.184 6.43457C277.943 6.58334 277.761 6.77287 277.64 7.00293C277.519 7.23285 277.469 7.48832 277.489 7.76855C277.509 8.04803 277.61 8.33726 277.794 8.63477C277.977 8.93134 278.189 9.15238 278.43 9.29688C278.67 9.44135 278.922 9.51112 279.182 9.50586C279.441 9.50053 279.693 9.42223 279.936 9.27246C280.1 9.17095 280.235 9.05455 280.34 8.92285C280.444 8.79034 280.52 8.64913 280.566 8.5C280.613 8.34977 280.632 8.19728 280.623 8.04395C280.615 7.89009 280.58 7.74149 280.518 7.59863L280.011 7.90723C280.045 7.99754 280.062 8.08693 280.06 8.1748C280.06 8.26208 280.043 8.34564 280.012 8.4248C279.981 8.5033 279.936 8.57625 279.877 8.64355C279.818 8.70946 279.748 8.76832 279.665 8.81934C279.516 8.91142 279.36 8.95728 279.199 8.95605C279.039 8.95326 278.881 8.90052 278.726 8.79785C278.571 8.69363 278.428 8.53543 278.298 8.32422C278.17 8.11666 278.094 7.9206 278.07 7.73633C278.047 7.55111 278.07 7.38449 278.14 7.23828C278.209 7.09139 278.319 6.97152 278.469 6.87891C278.553 6.82678 278.639 6.79015 278.727 6.76855C278.814 6.74552 278.901 6.73862 278.986 6.74805C279.072 6.75751 279.154 6.78241 279.232 6.82324C279.31 6.86321 279.382 6.92039 279.447 6.99414L279.952 6.68262C279.837 6.54164 279.708 6.43246 279.566 6.35449C279.425 6.27507 279.278 6.22592 279.123 6.20703ZM304.706 8.40039C304.617 8.40339 304.545 8.43743 304.488 8.50293C304.433 8.56778 304.409 8.64526 304.419 8.73438C304.429 8.82258 304.469 8.89687 304.538 8.95605C304.608 9.01572 304.687 9.04359 304.774 9.04004C304.864 9.03632 304.937 9.00227 304.993 8.9375C305.05 8.87189 305.072 8.79432 305.062 8.70605C305.053 8.61768 305.014 8.54331 304.944 8.4834C304.875 8.42411 304.796 8.39667 304.706 8.40039ZM299.028 8.59277L299.537 8.88672L300.085 7.93652L300.624 8.24805C300.841 8.37328 301.047 8.43929 301.241 8.44531C301.436 8.45038 301.612 8.4046 301.769 8.30859C301.925 8.21247 302.056 8.07374 302.16 7.89355C302.263 7.71519 302.317 7.5334 302.322 7.34961C302.328 7.16562 302.281 6.99059 302.181 6.8252C302.081 6.66009 301.922 6.51536 301.706 6.39062L300.652 5.78125L299.028 8.59277ZM281.974 5.61523C281.772 5.58817 281.561 5.62173 281.343 5.71582C281.125 5.80981 280.957 5.93974 280.838 6.10449C280.719 6.26943 280.653 6.45839 280.64 6.66992C280.627 6.88122 280.67 7.10308 280.77 7.33398C280.869 7.56491 281 7.74772 281.162 7.88281C281.325 8.0174 281.507 8.09886 281.708 8.12598C281.909 8.15304 282.12 8.11934 282.338 8.02539C282.556 7.93137 282.725 7.80161 282.844 7.63672C282.962 7.4717 283.028 7.28353 283.041 7.07324C283.055 6.86247 283.013 6.6411 282.913 6.41016C282.814 6.17927 282.682 5.99599 282.519 5.86035C282.357 5.72444 282.175 5.64236 281.974 5.61523ZM301.382 6.77051C301.509 6.84397 301.601 6.9261 301.656 7.01562C301.713 7.10461 301.74 7.19792 301.734 7.2959C301.73 7.39451 301.698 7.49407 301.641 7.59375C301.583 7.69335 301.512 7.7711 301.429 7.8252C301.346 7.87961 301.251 7.9059 301.146 7.90332C301.04 7.90065 300.924 7.86271 300.798 7.79004L300.327 7.51758L300.915 6.50098L301.382 6.77051ZM296.789 7.59375L297.324 7.80273L297.845 6.46973C297.882 6.37333 297.939 6.29674 298.012 6.24023C298.085 6.1838 298.168 6.14905 298.261 6.1377C298.355 6.12584 298.451 6.13973 298.548 6.17773C298.593 6.19543 298.639 6.21645 298.685 6.24219C298.731 6.2673 298.765 6.28895 298.784 6.30566L298.977 5.81348C298.954 5.79894 298.923 5.78319 298.887 5.7666C298.852 5.74952 298.819 5.73512 298.79 5.72363C298.66 5.67286 298.53 5.66404 298.4 5.69629C298.273 5.72802 298.163 5.80143 298.07 5.91602L298.046 5.90625L298.194 5.52832L297.676 5.32617L296.789 7.59375ZM281.526 6.13281C281.645 6.08184 281.758 6.07183 281.866 6.10352C281.974 6.13525 282.071 6.19912 282.158 6.29395C282.246 6.38742 282.319 6.50287 282.378 6.63965C282.436 6.77536 282.47 6.90752 282.478 7.03516C282.486 7.1622 282.465 7.27589 282.414 7.37598C282.363 7.47516 282.278 7.55058 282.159 7.60156C282.038 7.65376 281.923 7.66502 281.815 7.63477C281.707 7.60311 281.609 7.5405 281.521 7.44727C281.435 7.35347 281.362 7.2382 281.304 7.10254C281.245 6.96585 281.211 6.83329 281.202 6.70605C281.194 6.57747 281.215 6.4625 281.266 6.3623C281.318 6.26164 281.405 6.18509 281.526 6.13281ZM284.65 4.69629C284.51 4.66246 284.36 4.66947 284.198 4.7168C284.024 4.76798 283.889 4.84921 283.793 4.96094C283.698 5.07249 283.642 5.20212 283.627 5.34863L283.6 5.35645L283.483 4.95898L282.957 5.11328L283.643 7.4502L284.193 7.28906L283.792 5.91992C283.759 5.80765 283.751 5.70538 283.77 5.61426C283.789 5.52277 283.83 5.4451 283.892 5.38184C283.954 5.31725 284.034 5.27047 284.13 5.24219C284.272 5.20058 284.396 5.21169 284.502 5.27637C284.609 5.34077 284.685 5.45144 284.73 5.60742L285.143 7.00977L285.693 6.84863L285.257 5.36035C285.203 5.17366 285.123 5.02517 285.018 4.91406C284.913 4.80268 284.791 4.72986 284.65 4.69629ZM296.163 4.81738C295.94 4.753 295.73 4.74895 295.535 4.80371C295.341 4.85754 295.17 4.96223 295.025 5.11816C294.882 5.27343 294.776 5.47157 294.706 5.71191C294.635 5.95643 294.619 6.18267 294.658 6.38965C294.698 6.59564 294.789 6.77254 294.93 6.91992C295.072 7.0666 295.261 7.1745 295.495 7.24219C295.677 7.29457 295.846 7.31383 296.003 7.2998C296.16 7.2847 296.299 7.23938 296.418 7.16504C296.539 7.08992 296.635 6.98889 296.707 6.8623L296.209 6.65625C296.166 6.71504 296.113 6.76017 296.053 6.79102C295.992 6.82178 295.926 6.83912 295.854 6.84375C295.783 6.84731 295.707 6.83753 295.627 6.81445C295.507 6.77988 295.41 6.72398 295.335 6.64746C295.261 6.56997 295.212 6.47589 295.19 6.36523C295.169 6.25719 295.177 6.1375 295.213 6.00684L296.843 6.47754L296.892 6.30859C296.951 6.10367 296.973 5.91845 296.959 5.75391C296.945 5.58832 296.903 5.44252 296.831 5.31738C296.76 5.19265 296.667 5.08872 296.552 5.00586C296.437 4.92222 296.307 4.859 296.163 4.81738ZM290.73 6.41309L291.301 6.47949L291.472 5.00879C291.483 4.90924 291.514 4.8247 291.562 4.75488C291.611 4.68399 291.671 4.63177 291.743 4.59863C291.815 4.56451 291.892 4.55208 291.974 4.56152C292.094 4.57555 292.188 4.62387 292.254 4.70703C292.321 4.79033 292.347 4.89466 292.332 5.01953L292.151 6.57812L292.71 6.64355L292.886 5.13477C292.902 4.9986 292.953 4.89247 293.039 4.81641C293.127 4.73936 293.24 4.70864 293.377 4.72461C293.492 4.73803 293.586 4.78467 293.657 4.86426C293.729 4.94281 293.757 5.05697 293.739 5.20703L293.56 6.74219L294.132 6.80859L294.321 5.18555C294.353 4.91581 294.306 4.70194 294.182 4.54492C294.057 4.3879 293.884 4.29638 293.661 4.27051C293.486 4.25017 293.33 4.27309 293.192 4.33887C293.056 4.40389 292.953 4.50081 292.884 4.62891L292.858 4.62598C292.828 4.48416 292.76 4.3673 292.656 4.27539C292.553 4.18272 292.42 4.12648 292.257 4.10742C292.095 4.08865 291.951 4.11158 291.825 4.17676C291.7 4.2409 291.604 4.34003 291.537 4.47266L291.509 4.46875L291.557 4.05762L291.012 3.99512L290.73 6.41309ZM286.571 4.19434C286.38 4.22626 286.215 4.28425 286.078 4.36914C285.942 4.45281 285.842 4.55662 285.778 4.67969C285.715 4.80151 285.696 4.93631 285.722 5.08398C285.75 5.2592 285.829 5.39593 285.958 5.49219C286.087 5.58729 286.272 5.63979 286.51 5.64941L286.934 5.66699C287.048 5.67258 287.136 5.69334 287.195 5.72949C287.256 5.76547 287.291 5.81806 287.303 5.88672C287.316 5.96791 287.287 6.04344 287.214 6.1123C287.142 6.181 287.038 6.22667 286.903 6.24902C286.773 6.27062 286.663 6.26043 286.572 6.21875C286.482 6.17707 286.415 6.10404 286.372 6L285.829 6.14453C285.9 6.35973 286.035 6.51517 286.235 6.60938C286.435 6.70254 286.683 6.72467 286.977 6.67578C287.177 6.64248 287.349 6.58043 287.492 6.49023C287.635 6.40001 287.741 6.29003 287.809 6.16113C287.877 6.03092 287.899 5.88952 287.875 5.73828C287.845 5.56655 287.765 5.43638 287.636 5.34863C287.508 5.26091 287.326 5.21137 287.091 5.2002L286.666 5.18066C286.54 5.17279 286.446 5.15202 286.386 5.11719C286.326 5.08211 286.292 5.0289 286.281 4.95898C286.267 4.87792 286.295 4.80543 286.365 4.74121C286.437 4.6768 286.532 4.63485 286.649 4.61523C286.737 4.60067 286.814 4.60204 286.879 4.62012C286.944 4.63821 286.998 4.66715 287.041 4.70703C287.085 4.74682 287.118 4.79212 287.142 4.8418L287.648 4.69922C287.576 4.5014 287.448 4.35648 287.266 4.26367C287.084 4.17067 286.853 4.1475 286.571 4.19434ZM289.71 3.96777L289.759 5.37793C289.763 5.50122 289.741 5.6054 289.692 5.68945C289.645 5.77228 289.581 5.836 289.504 5.87988C289.426 5.92375 289.344 5.94728 289.26 5.9502C289.123 5.95482 289.01 5.91379 288.923 5.82617C288.835 5.73834 288.789 5.61689 288.783 5.46289L288.732 4.00195L288.159 4.02148L288.213 5.57129C288.22 5.76551 288.26 5.93056 288.333 6.06543C288.406 6.19908 288.505 6.29962 288.629 6.36719C288.754 6.43369 288.896 6.46448 289.056 6.45898C289.238 6.45267 289.391 6.40431 289.513 6.31348C289.635 6.22265 289.721 6.10759 289.771 5.96973L289.797 5.96875L289.812 6.40137L290.368 6.38184L290.284 3.94824L289.71 3.96777ZM295.727 5.24609C295.828 5.21599 295.934 5.21659 296.047 5.24902C296.153 5.2795 296.238 5.33078 296.304 5.40137C296.37 5.47213 296.414 5.55543 296.435 5.65137C296.456 5.74645 296.45 5.8473 296.421 5.95312L295.322 5.63574C295.354 5.54581 295.401 5.46715 295.465 5.40137C295.538 5.32684 295.626 5.2753 295.727 5.24609Z" fill="url(#paint6_radial_1484_11994)"/>
<path d="M377.09 7.29395V28.1104L377.075 28.8379C376.478 43.9742 357.381 50.5508 356.556 50.8281L356.045 51L355.533 50.8281C354.702 50.549 335.61 43.9702 335.014 28.8369L335 28.1104V7.29395L356.045 2L377.09 7.29395ZM336.021 8.08984V28.0908L336.033 28.8125C336.319 35.9123 340.941 41.085 345.783 44.5771C350.613 48.0606 355.483 49.7351 355.858 49.8613L356.044 49.9238L356.23 49.8613L356.573 49.7422C357.822 49.2898 362.078 47.6259 366.305 44.5781C371.147 41.0864 375.768 35.914 376.055 28.8135L376.068 28.1113V8.08984L356.044 3.05273L336.021 8.08984ZM375.048 8.88574V28.1113L375.033 28.7871C374.76 35.4215 370.439 40.3367 365.707 43.749C361.601 46.7102 357.455 48.3358 356.235 48.7783L356.043 48.8447C355.16 48.5346 350.749 46.8987 346.381 43.748C341.649 40.3352 337.327 35.4198 337.054 28.7861L337.041 28.0732V8.88574L356.044 4.10449L375.048 8.88574ZM356.344 41.2539C356.115 41.2534 355.886 41.3051 355.658 41.4092C355.647 41.4144 355.637 41.423 355.631 41.4336C355.625 41.4445 355.621 41.4581 355.622 41.4707C355.645 41.789 355.692 42.2634 355.906 42.5645C356.029 42.7369 356.18 42.82 356.326 42.8301C356.571 42.8476 356.808 42.6588 356.902 42.3271C356.996 41.9969 357.051 41.7123 357.068 41.4756C357.069 41.4629 357.067 41.4496 357.06 41.4385C357.054 41.4272 357.043 41.4177 357.031 41.4121C356.802 41.3068 356.573 41.2542 356.344 41.2539ZM354.283 40.4053C353.983 40.4501 353.693 40.4906 353.416 40.5273C353.309 40.5418 353.248 40.6041 353.235 40.7119C353.222 40.8361 353.269 40.9313 353.376 40.9961C353.429 41.028 353.49 41.0446 353.551 41.0469C353.571 41.0478 353.593 41.0486 353.613 41.0459L355.126 40.8496C355.196 40.841 355.204 40.8139 355.15 40.7686C354.936 40.5893 354.691 40.4069 354.407 40.3984C354.367 40.3971 354.325 40.399 354.283 40.4053ZM354.771 37C354.353 37.375 354.085 37.8561 354.158 38.5107C354.38 40.4866 357.668 40.954 359.16 41.0205C359.388 41.0301 359.489 40.9176 359.462 40.6846C359.457 40.6457 359.44 40.6088 359.412 40.5811C359.384 40.5534 359.347 40.5358 359.309 40.5312C358.047 40.3855 356.785 40.1907 355.671 39.542C354.654 38.9493 354.652 37.7472 355.717 37.2227C355.869 37.1476 356.047 37.0743 356.238 37H354.771ZM357.816 37.0576L357.233 37.2881C357.226 37.2911 357.219 37.2964 357.214 37.3027C357.209 37.3091 357.205 37.3172 357.204 37.3252C357.203 37.3331 357.204 37.3421 357.207 37.3496C357.21 37.3569 357.215 37.3641 357.221 37.3691C357.721 37.7717 357.885 38.244 357.712 38.7852C357.626 39.0531 357.384 39.264 357.192 39.4795C357.189 39.4835 357.187 39.4891 357.185 39.4941C357.185 39.4994 357.185 39.5057 357.187 39.5107C357.188 39.5158 357.191 39.5209 357.195 39.5244C357.199 39.5279 357.205 39.5303 357.21 39.5312L357.743 39.6406C357.807 39.6535 357.865 39.6538 357.919 39.6416C358.008 39.6225 358.083 39.5691 358.145 39.4814C358.716 38.6654 358.691 37.8789 358.069 37.1221C358.018 37.0593 357.957 37.0318 357.888 37.04C357.865 37.0422 357.841 37.0479 357.816 37.0576ZM356.341 37.6816C356.188 37.6838 356.043 37.7472 355.937 37.8564L355.803 37.9932C355.75 38.0471 355.709 38.1118 355.681 38.1816C355.68 38.1836 355.678 38.1865 355.678 38.1885C355.596 38.3976 355.642 38.6451 355.812 38.8115L355.955 38.9502C356.183 39.1712 356.547 39.1658 356.769 38.9385L356.902 38.8008C356.957 38.7441 356.999 38.6787 357.026 38.6094C357.054 38.5394 357.067 38.463 357.066 38.3877C357.065 38.3123 357.049 38.2372 357.02 38.168C356.99 38.0989 356.946 38.0359 356.893 37.9834L356.75 37.8447C356.641 37.7386 356.493 37.6795 356.341 37.6816ZM346.442 29.9092V35H347.519V32.8975H349.704V35H350.777V29.9092H349.704V32.0098H347.519V29.9092H346.442ZM351.525 29.9092V35H352.602V29.9092H351.525ZM353.347 29.9092V35H354.424V33.3496H355.328C355.719 33.3496 356.052 33.2769 356.327 33.1328C356.604 32.9887 356.815 32.7877 356.961 32.5293C357.107 32.2708 357.18 31.9719 357.18 31.6338C357.18 31.2959 357.108 30.9977 356.964 30.7393C356.821 30.4791 356.615 30.2757 356.343 30.1299C356.071 29.9824 355.742 29.9092 355.355 29.9092H353.347ZM358.633 29.9092L356.875 35H358.029L358.407 33.8389H360.244L360.621 35H361.775L360.02 29.9092H358.633ZM363.729 29.9092L361.972 35H363.125L363.503 33.8389H365.341L365.718 35H366.871L365.116 29.9092H363.729ZM364.442 31.0723L365.068 32.999H363.776L364.403 31.0723H364.442ZM359.347 31.0723L359.972 32.999H358.68L359.307 31.0723H359.347ZM355.149 30.7891C355.358 30.7891 355.53 30.8244 355.666 30.8955C355.802 30.9651 355.903 31.0639 355.97 31.1914C356.038 31.3172 356.071 31.4649 356.071 31.6338C356.071 31.8011 356.038 31.9499 355.97 32.0791C355.903 32.2067 355.802 32.307 355.666 32.3799C355.532 32.4511 355.361 32.4873 355.154 32.4873H354.424V30.7891H355.149ZM356.979 25.9346C356.531 25.8691 356.084 25.8777 355.642 25.96C355.631 25.962 355.62 25.9681 355.613 25.9766C355.606 25.9851 355.603 25.9968 355.603 26.0078V27.7773C355.603 27.7927 355.606 27.8086 355.613 27.8223C355.62 27.836 355.631 27.8484 355.644 27.8574C356.109 28.1874 356.574 28.1891 357.035 27.8633C357.046 27.8557 357.054 27.8447 357.06 27.833C357.066 27.8212 357.07 27.8073 357.07 27.7939L357.066 26.0361C357.066 26.0118 357.058 25.9872 357.042 25.9688C357.026 25.9504 357.003 25.9381 356.979 25.9346ZM359.239 19.6729C358.497 19.7437 357.837 20.2836 357.627 20.9951C357.39 21.8028 358.286 22.1891 358.935 22.1289C359.537 22.0731 360.07 21.8816 360.533 21.5547C360.742 21.4076 360.897 21.3219 360.995 21.2988C361.471 21.1885 362.066 21.4038 362.062 21.9736C362.047 23.4449 356.806 23.8645 355.782 23.9775C354.814 24.0845 353.699 24.4038 352.91 24.9902C351.655 25.9239 351.88 27.1019 352.62 28H354.478C354.007 27.7017 353.557 27.3108 353.449 26.8896C353.137 25.6642 355.388 25.3233 356.148 25.2637C358.018 25.1196 363.533 24.7979 363.762 22.167C363.835 21.324 363.551 20.6768 362.91 20.2266C362.209 19.735 361.413 19.7076 360.585 19.7412C360.135 19.7592 359.699 19.6281 359.239 19.6729ZM358.521 25.6846C358.488 25.6903 358.486 25.7004 358.517 25.7158C359.066 25.985 359.529 26.3987 359.198 27.0654C359.011 27.442 358.67 27.7452 358.259 28H360.096C360.7 27.3062 360.945 26.4427 360.301 25.4736C360.286 25.4512 360.264 25.4337 360.239 25.4229C360.215 25.4121 360.187 25.4078 360.16 25.4121L358.521 25.6846ZM353.473 19.6611C353.057 19.5879 352.463 19.7958 351.967 19.7441C350.843 19.6269 349.63 19.965 349.123 21.0439C348.868 21.589 348.845 22.3325 349.138 22.8525C349.724 23.8976 351.129 24.3985 352.168 24.665C352.183 24.6687 352.198 24.6699 352.213 24.667C352.227 24.664 352.241 24.6573 352.253 24.6484C352.806 24.2201 353.418 23.9024 354.086 23.6953C354.138 23.6792 354.137 23.6644 354.084 23.6523C353.207 23.4522 350.617 22.9982 350.64 21.9326C350.653 21.3137 351.301 21.2346 351.769 21.2939C351.796 21.2973 351.822 21.3092 351.844 21.3271C352.424 21.8147 353.097 22.087 353.86 22.1445C354.642 22.2038 355.394 21.6085 354.984 20.7607C354.691 20.1537 354.188 19.7871 353.473 19.6611ZM357.33 10.4131C355.998 9.74864 354.719 10.5304 354.44 11.5186C354.249 12.1939 354.525 12.9671 355.569 13.4404C355.58 13.4455 355.59 13.4537 355.597 13.4639C355.603 13.4739 355.606 13.4861 355.606 13.498V23.1396C355.607 23.1526 355.612 23.1659 355.62 23.1758C355.629 23.1856 355.641 23.1924 355.653 23.1943C356.112 23.2622 356.573 23.2646 357.033 23.2031C357.044 23.2015 357.055 23.1958 357.062 23.1875C357.07 23.1792 357.074 23.1681 357.074 23.1572V13.5205C357.074 13.5084 357.078 13.4957 357.084 13.4854C357.09 13.475 357.1 13.4664 357.11 13.4609C357.371 13.3277 357.558 13.2138 357.67 13.1201C358.149 12.7205 358.338 12.1811 358.271 11.6738C358.205 11.1655 357.88 10.6878 357.33 10.4131ZM352.771 13.3105C352.568 13.3262 352.287 13.3801 351.928 13.4736C349.489 14.1075 347.035 14.6174 344.558 14.6045C343.432 14.5985 342.301 14.4851 341.164 14.2256C341.154 14.2232 341.145 14.2216 341.14 14.2217H341.138C341.12 14.2218 341.122 14.2336 341.144 14.2559C343.46 16.5539 346.258 17.7919 349.536 17.9697C349.549 17.9705 349.562 17.9747 349.572 17.9814C349.583 17.9882 349.592 17.9979 349.598 18.0088C350.031 18.7877 351.866 18.9465 353.335 18.9424C354.003 18.9406 354.596 18.9056 354.946 18.8789C354.961 18.8778 354.975 18.871 354.985 18.8604C354.995 18.8496 355.001 18.8349 355.001 18.8203C355.003 17.7025 355.003 16.5897 355.001 15.4834C354.999 14.5699 353.844 13.3681 352.951 13.3076H352.948L352.771 13.3105ZM359.771 13.2969C359.598 13.3016 359.431 13.336 359.271 13.4053C358.614 13.6893 357.696 14.688 357.695 15.416C357.696 16.5568 357.696 17.697 357.696 18.835C357.696 18.8436 357.699 18.8529 357.705 18.8594C357.711 18.8657 357.72 18.8693 357.729 18.8701C358.096 18.8979 358.698 18.9351 359.369 18.9385C360.846 18.9461 362.667 18.7876 363.108 17.9873C363.114 17.9762 363.124 17.9657 363.135 17.959C363.146 17.9524 363.159 17.9488 363.172 17.9482C366.334 17.842 369.278 16.5244 371.512 14.292C371.555 14.2485 371.559 14.2263 371.523 14.2266C371.512 14.2264 371.497 14.229 371.478 14.2334C370.282 14.5015 369.114 14.6081 367.957 14.6006C365.412 14.5836 362.92 14.0105 360.305 13.3623C360.122 13.3167 359.944 13.292 359.771 13.2969Z" fill="url(#paint7_radial_1484_11994)"/>
<defs>
<radialGradient id="paint0_radial_1484_11994" cx="0" cy="0" r="1" gradientUnits="userSpaceOnUse" gradientTransform="translate(26.1231 0.001464) rotate(90) scale(49.2531 41.5283)">
<stop offset="0.461367" stop-color="#2E3038"/>
<stop offset="1" stop-color="#1C1D22"/>
</radialGradient>
<radialGradient id="paint1_radial_1484_11994" cx="0" cy="0" r="1" gradientUnits="userSpaceOnUse" gradientTransform="translate(26.1224 0.20881) rotate(90) scale(48.8398 41.182)">
<stop offset="0.461367" stop-color="#2E3038"/>
<stop offset="1" stop-color="#1C1D22"/>
</radialGradient>
<radialGradient id="paint2_radial_1484_11994" cx="0" cy="0" r="1" gradientUnits="userSpaceOnUse" gradientTransform="translate(92.1233 0.00145584) rotate(90) scale(49.2535 41.5286)">
<stop offset="0.461367" stop-color="#2E3038"/>
<stop offset="1" stop-color="#1C1D22"/>
</radialGradient>
<radialGradient id="paint3_radial_1484_11994" cx="0" cy="0" r="1" gradientUnits="userSpaceOnUse" gradientTransform="translate(92.1244 0.20881) rotate(90) scale(48.8398 41.182)">
<stop offset="0.461367" stop-color="#2E3038"/>
<stop offset="1" stop-color="#1C1D22"/>
</radialGradient>
<radialGradient id="paint4_radial_1484_11994" cx="0" cy="0" r="1" gradientUnits="userSpaceOnUse" gradientTransform="translate(158.214 1) rotate(90) scale(50 41.0214)">
<stop offset="0.461367" stop-color="#2E3038"/>
<stop offset="1" stop-color="#1C1D22"/>
</radialGradient>
<radialGradient id="paint5_radial_1484_11994" cx="0" cy="0" r="1" gradientUnits="userSpaceOnUse" gradientTransform="translate(224.152 1) rotate(90) scale(50 35.837)">
<stop offset="0.461367" stop-color="#2E3038"/>
<stop offset="1" stop-color="#1C1D22"/>
</radialGradient>
<radialGradient id="paint6_radial_1484_11994" cx="0" cy="0" r="1" gradientUnits="userSpaceOnUse" gradientTransform="translate(289.883 1) rotate(90) scale(50 42.1583)">
<stop offset="0.461367" stop-color="#2E3038"/>
<stop offset="1" stop-color="#1C1D22"/>
</radialGradient>
<radialGradient id="paint7_radial_1484_11994" cx="0" cy="0" r="1" gradientUnits="userSpaceOnUse" gradientTransform="translate(355.946 2) rotate(90) scale(49 35.4888)">
<stop offset="0.461367" stop-color="#2E3038"/>
<stop offset="1" stop-color="#1C1D22"/>
</radialGradient>
</defs>
</svg>
