<svg width="546" height="458" viewBox="0 0 546 458" fill="none" xmlns="http://www.w3.org/2000/svg">
<g filter="url(#filter0_d_935_236)">
<path d="M545 40C545 18.4609 527.539 1 506 1H40V466H545V40Z" fill="#FAFAFA"/>
<path d="M506 3.5H42.5V463.5H542.5V40C542.5 19.8416 526.158 3.5 506 3.5Z" stroke="#EBEBEB" stroke-width="5"/>
</g>
<g opacity="0.94" filter="url(#filter1_dd_935_236)">
<rect x="94" y="31" width="202" height="56" rx="11" fill="white"/>
<rect x="99" y="36" width="46" height="46" rx="5" fill="#D2CECB"/>
<path d="M130.625 55.1665V67.6183C130.625 68.152 130.199 68.5832 129.673 68.5832H114.327C113.801 68.5832 113.375 68.1577 113.375 67.6327V50.367C113.375 49.8528 113.805 49.4165 114.335 49.4165H124.872L130.625 55.1665ZM128.708 56.1248H123.917V51.3332H115.292V66.6665H128.708V56.1248ZM118.167 54.2082H121.042V56.1248H118.167V54.2082ZM118.167 58.0415H125.833V59.9582H118.167V58.0415ZM118.167 61.8748H125.833V63.7915H118.167V61.8748Z" fill="#6E6A68"/>
<path d="M162.678 53V43.6372H159.367V42.1916H167.659V43.6372H164.356V53H162.678ZM167.673 53V45.1203H169.291V46.4685H169.329C169.583 45.5472 170.243 44.9705 171.141 44.9705C171.374 44.9705 171.576 45.0079 171.703 45.0304V46.5359C171.576 46.4835 171.291 46.446 170.977 46.446C169.935 46.446 169.291 47.1277 169.291 48.3036V53H167.673ZM173.89 43.9069C173.366 43.9069 172.946 43.4874 172.946 42.9781C172.946 42.4612 173.366 42.0418 173.89 42.0418C174.422 42.0418 174.834 42.4612 174.834 42.9781C174.834 43.4874 174.422 43.9069 173.89 43.9069ZM173.081 53V45.1203H174.699V53H173.081ZM180.129 55.7789C178.107 55.7789 176.826 54.8426 176.586 53.6367L176.579 53.5693H178.182L178.212 53.6292C178.429 54.131 179.11 54.4756 180.122 54.4756C181.41 54.4756 182.121 53.7865 182.121 52.6854V51.6068H182.084C181.635 52.4607 180.736 53.0075 179.605 53.0075C177.627 53.0075 176.324 51.457 176.324 49.0002V48.9927C176.324 46.5209 177.642 44.9705 179.642 44.9705C180.751 44.9705 181.62 45.5697 182.084 46.461H182.121V45.1203H183.747V52.7828C183.747 54.5804 182.354 55.7789 180.129 55.7789ZM180.062 51.6892C181.298 51.6892 182.121 50.6481 182.121 49.0227V49.0152C182.121 47.3973 181.29 46.3562 180.062 46.3562C178.781 46.3562 177.979 47.3898 177.979 49.0152V49.0227C177.979 50.6705 178.781 51.6892 180.062 51.6892ZM189.042 53.1573C186.78 53.1573 185.305 51.5918 185.305 49.0601V49.0452C185.305 46.5284 186.795 44.9705 189.035 44.9705C191.282 44.9705 192.78 46.5209 192.78 49.0452V49.0601C192.78 51.5993 191.297 53.1573 189.042 53.1573ZM189.05 51.8016C190.315 51.8016 191.124 50.7979 191.124 49.0601V49.0452C191.124 47.3224 190.3 46.3262 189.035 46.3262C187.791 46.3262 186.96 47.3224 186.96 49.0452V49.0601C186.96 50.8054 187.784 51.8016 189.05 51.8016ZM194.337 53V45.1203H195.955V46.3112H195.993C196.405 45.5098 197.214 44.9705 198.405 44.9705C200.135 44.9705 201.131 46.0865 201.131 47.8992V53H199.506V48.2062C199.506 47.0228 198.951 46.3562 197.828 46.3562C196.689 46.3562 195.955 47.1801 195.955 48.4085V53H194.337ZM206.389 53.1573C204.127 53.1573 202.651 51.5918 202.651 49.0601V49.0452C202.651 46.5284 204.142 44.9705 206.381 44.9705C208.628 44.9705 210.127 46.5209 210.127 49.0452V49.0601C210.127 51.5993 208.643 53.1573 206.389 53.1573ZM206.396 51.8016C207.662 51.8016 208.471 50.7979 208.471 49.0601V49.0452C208.471 47.3224 207.647 46.3262 206.381 46.3262C205.138 46.3262 204.307 47.3224 204.307 49.0452V49.0601C204.307 50.8054 205.131 51.8016 206.396 51.8016ZM211.684 53V45.1203H213.302V46.3412H213.34C213.677 45.5173 214.478 44.9705 215.512 44.9705C216.598 44.9705 217.392 45.5322 217.706 46.5209H217.744C218.148 45.5622 219.077 44.9705 220.201 44.9705C221.759 44.9705 222.777 46.0041 222.777 47.5846V53H221.152V47.9741C221.152 46.9479 220.605 46.3562 219.646 46.3562C218.688 46.3562 218.021 47.0752 218.021 48.0714V53H216.433V47.8542C216.433 46.9404 215.856 46.3562 214.942 46.3562C213.984 46.3562 213.302 47.1127 213.302 48.1313V53H211.684ZM228.013 53.1573C225.698 53.1573 224.297 51.5769 224.297 49.0901V49.0826C224.297 46.6183 225.721 44.9705 227.93 44.9705C230.14 44.9705 231.496 46.5584 231.496 48.9253V49.4721H225.915C225.945 50.9627 226.762 51.8315 228.05 51.8315C229.009 51.8315 229.645 51.3372 229.848 50.7454L229.87 50.6855H231.406L231.391 50.7679C231.136 52.0188 229.923 53.1573 228.013 53.1573ZM227.938 46.2962C226.889 46.2962 226.08 47.0078 225.938 48.3261H229.893C229.758 46.9629 228.994 46.2962 227.938 46.2962ZM235.825 53.1573C234.267 53.1573 233.518 52.4982 233.518 50.9252V46.4086H232.387V45.1203H233.518V43.0679H235.173V45.1203H236.649V46.4086H235.173V50.8278C235.173 51.6293 235.533 51.869 236.214 51.869C236.386 51.869 236.529 51.854 236.649 51.839V53.0899C236.461 53.1198 236.154 53.1573 235.825 53.1573ZM238.296 53V45.1203H239.914V46.4685H239.951C240.206 45.5472 240.865 44.9705 241.764 44.9705C241.996 44.9705 242.199 45.0079 242.326 45.0304V46.5359C242.199 46.4835 241.914 46.446 241.599 46.446C240.558 46.446 239.914 47.1277 239.914 48.3036V53H238.296ZM244.805 55.6291C244.49 55.6291 244.153 55.5916 243.958 55.5542V54.2883C244.086 54.3183 244.273 54.3482 244.49 54.3482C245.254 54.3482 245.674 54.146 245.943 53.382L246.078 53.0075L243.209 45.1203H244.962L246.947 51.5319H246.999L248.984 45.1203H250.692L247.756 53.367C247.172 54.9999 246.348 55.6291 244.805 55.6291Z" fill="black" fill-opacity="0.7"/>
<path d="M163.293 75.1641C161.317 75.1641 159.943 73.9678 159.807 72.3408L159.8 72.2588H161.263L161.27 72.3135C161.399 73.2021 162.206 73.8857 163.307 73.8857C164.551 73.8857 165.419 73.0244 165.419 71.8008V71.7871C165.412 70.5771 164.544 69.7227 163.32 69.7227C162.712 69.7227 162.186 69.9004 161.789 70.2559C161.604 70.4131 161.447 70.6045 161.317 70.8232H159.978L160.463 65.1357H166.342V66.4277H161.7L161.399 69.5518H161.434C161.878 68.8887 162.698 68.5127 163.669 68.5127C165.556 68.5127 166.916 69.873 166.916 71.7598V71.7734C166.916 73.7764 165.419 75.1641 163.293 75.1641ZM168.461 75V65.1357H169.937V68.9912H169.971C170.354 68.1572 171.127 67.6719 172.2 67.6719C173.738 67.6719 174.75 68.8203 174.75 70.5566V75H173.273V70.8369C173.273 69.6475 172.672 68.9365 171.633 68.9365C170.614 68.9365 169.937 69.7158 169.937 70.8369V75H168.461ZM176.465 75V67.8086H177.942V69.0391H177.976C178.208 68.1982 178.81 67.6719 179.63 67.6719C179.842 67.6719 180.027 67.7061 180.143 67.7266V69.1006C180.027 69.0527 179.767 69.0186 179.48 69.0186C178.53 69.0186 177.942 69.6406 177.942 70.7139V75H176.465ZM187.942 75.1641C185.837 75.1641 184.463 74.0156 184.326 72.4092L184.319 72.3203H185.789L185.796 72.3955C185.891 73.2705 186.719 73.8857 187.942 73.8857C189.145 73.8857 189.959 73.2158 189.959 72.2588V72.2451C189.959 71.1309 189.152 70.5088 187.833 70.5088H186.637V69.3193H187.792C188.92 69.3193 189.685 68.6562 189.685 67.7402V67.7266C189.685 66.7764 189.043 66.2227 187.929 66.2227C186.835 66.2227 186.069 66.7969 185.974 67.7129L185.967 67.7744H184.531L184.538 67.7061C184.688 66.0586 186.001 64.9717 187.929 64.9717C189.891 64.9717 191.176 66.0107 191.176 67.5283V67.542C191.176 68.7656 190.301 69.5859 189.098 69.8389V69.873C190.547 70.0029 191.517 70.8779 191.517 72.2588V72.2725C191.517 73.9609 190.034 75.1641 187.942 75.1641ZM196.842 75.1641C194.484 75.1641 193.076 73.2021 193.076 70.0713V70.0576C193.076 66.9268 194.484 64.9717 196.842 64.9717C199.194 64.9717 200.609 66.9268 200.609 70.0576V70.0713C200.609 73.2021 199.194 75.1641 196.842 75.1641ZM196.842 73.8857C198.244 73.8857 199.064 72.4365 199.064 70.0713V70.0576C199.064 67.6924 198.244 66.2568 196.842 66.2568C195.434 66.2568 194.621 67.6924 194.621 70.0576V70.0713C194.621 72.4365 195.434 73.8857 196.842 73.8857ZM202.222 75V67.8086H203.699V68.9229H203.733C204.04 68.1709 204.772 67.6719 205.715 67.6719C206.706 67.6719 207.431 68.1846 207.718 69.0869H207.752C208.121 68.2119 208.969 67.6719 209.994 67.6719C211.416 67.6719 212.346 68.6152 212.346 70.0576V75H210.863V70.4131C210.863 69.4766 210.364 68.9365 209.489 68.9365C208.614 68.9365 208.005 69.5928 208.005 70.502V75H206.556V70.3037C206.556 69.4697 206.03 68.9365 205.196 68.9365C204.321 68.9365 203.699 69.627 203.699 70.5566V75H202.222ZM214.855 66.7012C214.376 66.7012 213.993 66.3184 213.993 65.8535C213.993 65.3818 214.376 64.999 214.855 64.999C215.34 64.999 215.716 65.3818 215.716 65.8535C215.716 66.3184 215.34 66.7012 214.855 66.7012ZM214.116 75V67.8086H215.593V75H214.116ZM217.397 75V67.8086H218.874V68.8955H218.908C219.284 68.1641 220.022 67.6719 221.109 67.6719C222.688 67.6719 223.597 68.6904 223.597 70.3447V75H222.114V70.625C222.114 69.5449 221.608 68.9365 220.583 68.9365C219.544 68.9365 218.874 69.6885 218.874 70.8096V75H217.397ZM227.999 75.1436C226.202 75.1436 225.149 74.2549 224.999 72.9424L224.992 72.8809H226.455L226.468 72.9492C226.605 73.6123 227.097 74.002 228.006 74.002C228.895 74.002 229.428 73.6328 229.428 73.0518V73.0449C229.428 72.5801 229.168 72.3135 228.396 72.1289L227.22 71.8623C225.853 71.5479 225.176 70.8916 225.176 69.8457V69.8389C225.176 68.5537 226.297 67.6719 227.952 67.6719C229.654 67.6719 230.679 68.6221 230.754 69.8457L230.761 69.9277H229.374L229.367 69.8799C229.278 69.251 228.786 68.8135 227.952 68.8135C227.159 68.8135 226.66 69.1895 226.66 69.7637V69.7705C226.66 70.2148 226.954 70.5156 227.726 70.7002L228.895 70.9668C230.365 71.3086 230.925 71.8896 230.925 72.9219V72.9287C230.925 74.2412 229.695 75.1436 227.999 75.1436Z" fill="#BCBCBC"/>
</g>
<g opacity="0.94" filter="url(#filter2_dd_935_236)">
<rect x="30" y="115" width="202" height="56" rx="11" fill="white"/>
<rect x="35" y="120" width="46" height="46" rx="5" fill="#AABCA3"/>
<path d="M66.625 139.167V151.618C66.625 152.152 66.1987 152.583 65.673 152.583H50.327C49.8014 152.583 49.375 152.158 49.375 151.633V134.367C49.375 133.853 49.805 133.417 50.3355 133.417H60.8719L66.625 139.167ZM64.7083 140.125H59.9167V135.333H51.2917V150.666H64.7083V140.125ZM54.1667 138.208H57.0417V140.125H54.1667V138.208ZM54.1667 142.041H61.8333V143.958H54.1667V142.041ZM54.1667 145.875H61.8333V147.791H54.1667V145.875Z" fill="#173330"/>
<path d="M95.9962 137V126.192H100.018C102.138 126.192 103.606 127.615 103.606 129.734V129.749C103.606 131.862 102.138 133.307 100.018 133.307H97.674V137H95.9962ZM99.599 127.607H97.674V131.899H99.599C101.06 131.899 101.899 131.113 101.899 129.757V129.742C101.899 128.394 101.06 127.607 99.599 127.607ZM105.186 137V129.12H106.804V130.469H106.842C107.096 129.547 107.756 128.97 108.654 128.97C108.887 128.97 109.089 129.008 109.216 129.03V130.536C109.089 130.483 108.804 130.446 108.49 130.446C107.448 130.446 106.804 131.128 106.804 132.304V137H105.186ZM113.568 137.157C111.306 137.157 109.83 135.592 109.83 133.06V133.045C109.83 130.528 111.321 128.97 113.56 128.97C115.807 128.97 117.305 130.521 117.305 133.045V133.06C117.305 135.599 115.822 137.157 113.568 137.157ZM113.575 135.802C114.841 135.802 115.65 134.798 115.65 133.06V133.045C115.65 131.322 114.826 130.326 113.56 130.326C112.317 130.326 111.485 131.322 111.485 133.045V133.06C111.485 134.805 112.309 135.802 113.575 135.802ZM123.05 137.157C121.919 137.157 121.043 136.588 120.578 135.667H120.541V137H118.923V126.192H120.541V130.461H120.578C121.05 129.532 121.949 128.97 123.065 128.97C125.042 128.97 126.346 130.543 126.346 133.053V133.06C126.346 135.569 125.05 137.157 123.05 137.157ZM122.623 135.764C123.896 135.764 124.69 134.738 124.69 133.06V133.053C124.69 131.39 123.896 130.356 122.623 130.356C121.402 130.356 120.533 131.42 120.533 133.053V133.06C120.533 134.7 121.395 135.764 122.623 135.764ZM130.218 137.142C128.645 137.142 127.589 136.176 127.589 134.76V134.745C127.589 133.375 128.652 132.536 130.517 132.423L132.66 132.296V131.704C132.66 130.836 132.098 130.311 131.094 130.311C130.158 130.311 129.581 130.753 129.446 131.382L129.431 131.45H127.903L127.911 131.367C128.023 130.012 129.199 128.97 131.139 128.97C133.064 128.97 134.285 129.989 134.285 131.57V137H132.66V135.757H132.63C132.173 136.603 131.259 137.142 130.218 137.142ZM129.222 134.723C129.222 135.412 129.791 135.847 130.66 135.847C131.798 135.847 132.66 135.075 132.66 134.049V133.435L130.735 133.554C129.761 133.614 129.222 134.041 129.222 134.708V134.723ZM140.352 137.157C139.221 137.157 138.344 136.588 137.88 135.667H137.843V137H136.225V126.192H137.843V130.461H137.88C138.352 129.532 139.251 128.97 140.367 128.97C142.344 128.97 143.648 130.543 143.648 133.053V133.06C143.648 135.569 142.352 137.157 140.352 137.157ZM139.925 135.764C141.198 135.764 141.992 134.738 141.992 133.06V133.053C141.992 131.39 141.198 130.356 139.925 130.356C138.704 130.356 137.835 131.42 137.835 133.053V133.06C137.835 134.7 138.697 135.764 139.925 135.764ZM146.082 127.907C145.557 127.907 145.138 127.487 145.138 126.978C145.138 126.461 145.557 126.042 146.082 126.042C146.613 126.042 147.025 126.461 147.025 126.978C147.025 127.487 146.613 127.907 146.082 127.907ZM145.273 137V129.12H146.891V137H145.273ZM148.928 137V126.192H150.545V137H148.928ZM153.391 127.907C152.867 127.907 152.448 127.487 152.448 126.978C152.448 126.461 152.867 126.042 153.391 126.042C153.923 126.042 154.335 126.461 154.335 126.978C154.335 127.487 153.923 127.907 153.391 127.907ZM152.583 137V129.12H154.2V137H152.583ZM158.941 137.157C157.383 137.157 156.634 136.498 156.634 134.925V130.409H155.503V129.12H156.634V127.068H158.29V129.12H159.765V130.409H158.29V134.828C158.29 135.629 158.649 135.869 159.331 135.869C159.503 135.869 159.646 135.854 159.765 135.839V137.09C159.578 137.12 159.271 137.157 158.941 137.157ZM162.342 139.629C162.027 139.629 161.69 139.592 161.495 139.554V138.288C161.623 138.318 161.81 138.348 162.027 138.348C162.791 138.348 163.211 138.146 163.48 137.382L163.615 137.007L160.746 129.12H162.499L164.484 135.532H164.536L166.521 129.12H168.229L165.293 137.367C164.709 139 163.885 139.629 162.342 139.629Z" fill="black" fill-opacity="0.7"/>
<path d="M95.7656 159V157.947L99.2383 154.454C100.551 153.142 100.845 152.622 100.845 151.856V151.843C100.838 150.906 100.127 150.236 99.1289 150.236C97.9736 150.236 97.1465 151.016 97.1328 152.014V152.055H95.6836V152.014C95.6836 150.25 97.1807 148.972 99.1084 148.972C101.002 148.972 102.355 150.161 102.355 151.754V151.768C102.355 152.896 101.829 153.695 100.059 155.445L97.8164 157.646V157.708H102.513V159H95.7656ZM104.174 159V149.136H105.65V152.991H105.684C106.067 152.157 106.84 151.672 107.913 151.672C109.451 151.672 110.463 152.82 110.463 154.557V159H108.986V154.837C108.986 153.647 108.384 152.937 107.345 152.937C106.327 152.937 105.65 153.716 105.65 154.837V159H104.174ZM112.178 159V151.809H113.655V153.039H113.689C113.921 152.198 114.523 151.672 115.343 151.672C115.555 151.672 115.74 151.706 115.856 151.727V153.101C115.74 153.053 115.48 153.019 115.193 153.019C114.243 153.019 113.655 153.641 113.655 154.714V159H112.178ZM124.899 159V157.038H119.964V155.705L124.154 149.136H126.369V155.753H127.729V157.038H126.369V159H124.899ZM121.386 155.773H124.913V150.346H124.872L121.386 155.732V155.773ZM132.699 159.164C130.723 159.164 129.349 157.968 129.213 156.341L129.206 156.259H130.669L130.675 156.313C130.805 157.202 131.612 157.886 132.713 157.886C133.957 157.886 134.825 157.024 134.825 155.801V155.787C134.818 154.577 133.95 153.723 132.726 153.723C132.118 153.723 131.591 153.9 131.195 154.256C131.01 154.413 130.853 154.604 130.723 154.823H129.383L129.869 149.136H135.748V150.428H131.106L130.805 153.552H130.839C131.284 152.889 132.104 152.513 133.075 152.513C134.962 152.513 136.322 153.873 136.322 155.76V155.773C136.322 157.776 134.825 159.164 132.699 159.164ZM137.812 159V151.809H139.288V152.923H139.323C139.63 152.171 140.362 151.672 141.305 151.672C142.296 151.672 143.021 152.185 143.308 153.087H143.342C143.711 152.212 144.559 151.672 145.584 151.672C147.006 151.672 147.936 152.615 147.936 154.058V159H146.452V154.413C146.452 153.477 145.953 152.937 145.078 152.937C144.203 152.937 143.595 153.593 143.595 154.502V159H142.146V154.304C142.146 153.47 141.619 152.937 140.785 152.937C139.91 152.937 139.288 153.627 139.288 154.557V159H137.812ZM150.444 150.701C149.966 150.701 149.583 150.318 149.583 149.854C149.583 149.382 149.966 148.999 150.444 148.999C150.93 148.999 151.306 149.382 151.306 149.854C151.306 150.318 150.93 150.701 150.444 150.701ZM149.706 159V151.809H151.183V159H149.706ZM152.987 159V151.809H154.464V152.896H154.498C154.874 152.164 155.612 151.672 156.699 151.672C158.278 151.672 159.187 152.69 159.187 154.345V159H157.704V154.625C157.704 153.545 157.198 152.937 156.173 152.937C155.134 152.937 154.464 153.688 154.464 154.81V159H152.987ZM163.589 159.144C161.791 159.144 160.739 158.255 160.588 156.942L160.582 156.881H162.044L162.058 156.949C162.195 157.612 162.687 158.002 163.596 158.002C164.485 158.002 165.018 157.633 165.018 157.052V157.045C165.018 156.58 164.758 156.313 163.986 156.129L162.81 155.862C161.443 155.548 160.766 154.892 160.766 153.846V153.839C160.766 152.554 161.887 151.672 163.541 151.672C165.244 151.672 166.269 152.622 166.344 153.846L166.351 153.928H164.963L164.957 153.88C164.868 153.251 164.375 152.813 163.541 152.813C162.749 152.813 162.249 153.189 162.249 153.764V153.771C162.249 154.215 162.543 154.516 163.316 154.7L164.485 154.967C165.955 155.309 166.515 155.89 166.515 156.922V156.929C166.515 158.241 165.285 159.144 163.589 159.144Z" fill="#BCBCBC"/>
</g>
<defs>
<filter id="filter0_d_935_236" x="39" y="0" width="507" height="467" filterUnits="userSpaceOnUse" color-interpolation-filters="sRGB">
<feFlood flood-opacity="0" result="BackgroundImageFix"/>
<feColorMatrix in="SourceAlpha" type="matrix" values="0 0 0 0 0 0 0 0 0 0 0 0 0 0 0 0 0 0 127 0" result="hardAlpha"/>
<feMorphology radius="1" operator="dilate" in="SourceAlpha" result="effect1_dropShadow_935_236"/>
<feOffset/>
<feComposite in2="hardAlpha" operator="out"/>
<feColorMatrix type="matrix" values="0 0 0 0 0 0 0 0 0 0 0 0 0 0 0 0 0 0 0.15 0"/>
<feBlend mode="normal" in2="BackgroundImageFix" result="effect1_dropShadow_935_236"/>
<feBlend mode="normal" in="SourceGraphic" in2="effect1_dropShadow_935_236" result="shape"/>
</filter>
<filter id="filter1_dd_935_236" x="64" y="3" width="262" height="116" filterUnits="userSpaceOnUse" color-interpolation-filters="sRGB">
<feFlood flood-opacity="0" result="BackgroundImageFix"/>
<feColorMatrix in="SourceAlpha" type="matrix" values="0 0 0 0 0 0 0 0 0 0 0 0 0 0 0 0 0 0 127 0" result="hardAlpha"/>
<feOffset/>
<feGaussianBlur stdDeviation="7.5"/>
<feComposite in2="hardAlpha" operator="out"/>
<feColorMatrix type="matrix" values="0 0 0 0 0 0 0 0 0 0 0 0 0 0 0 0 0 0 0.03 0"/>
<feBlend mode="normal" in2="BackgroundImageFix" result="effect1_dropShadow_935_236"/>
<feColorMatrix in="SourceAlpha" type="matrix" values="0 0 0 0 0 0 0 0 0 0 0 0 0 0 0 0 0 0 127 0" result="hardAlpha"/>
<feOffset dy="2"/>
<feGaussianBlur stdDeviation="15"/>
<feComposite in2="hardAlpha" operator="out"/>
<feColorMatrix type="matrix" values="0 0 0 0 0 0 0 0 0 0 0 0 0 0 0 0 0 0 0.08 0"/>
<feBlend mode="normal" in2="effect1_dropShadow_935_236" result="effect2_dropShadow_935_236"/>
<feBlend mode="normal" in="SourceGraphic" in2="effect2_dropShadow_935_236" result="shape"/>
</filter>
<filter id="filter2_dd_935_236" x="0" y="87" width="262" height="116" filterUnits="userSpaceOnUse" color-interpolation-filters="sRGB">
<feFlood flood-opacity="0" result="BackgroundImageFix"/>
<feColorMatrix in="SourceAlpha" type="matrix" values="0 0 0 0 0 0 0 0 0 0 0 0 0 0 0 0 0 0 127 0" result="hardAlpha"/>
<feOffset/>
<feGaussianBlur stdDeviation="7.5"/>
<feComposite in2="hardAlpha" operator="out"/>
<feColorMatrix type="matrix" values="0 0 0 0 0 0 0 0 0 0 0 0 0 0 0 0 0 0 0.03 0"/>
<feBlend mode="normal" in2="BackgroundImageFix" result="effect1_dropShadow_935_236"/>
<feColorMatrix in="SourceAlpha" type="matrix" values="0 0 0 0 0 0 0 0 0 0 0 0 0 0 0 0 0 0 127 0" result="hardAlpha"/>
<feOffset dy="2"/>
<feGaussianBlur stdDeviation="15"/>
<feComposite in2="hardAlpha" operator="out"/>
<feColorMatrix type="matrix" values="0 0 0 0 0 0 0 0 0 0 0 0 0 0 0 0 0 0 0.08 0"/>
<feBlend mode="normal" in2="effect1_dropShadow_935_236" result="effect2_dropShadow_935_236"/>
<feBlend mode="normal" in="SourceGraphic" in2="effect2_dropShadow_935_236" result="shape"/>
</filter>
</defs>
</svg>
