<svg width="452" height="350" viewBox="0 0 452 350" fill="none" xmlns="http://www.w3.org/2000/svg">
<g filter="url(#filter0_d_938_581)">
<mask id="path-1-inside-1_938_581" fill="white">
<path d="M82 90C82 68.4609 99.4609 51 121 51H434V349H82V90Z"/>
</mask>
<path d="M82 90C82 68.4609 99.4609 51 121 51H434V349H82V90Z" fill="#FAFAFA"/>
<path d="M77 90C77 65.6995 96.6995 46 121 46H439L429 56H121C102.222 56 87 71.2223 87 90H77ZM434 349H82H434ZM77 349V90C77 65.6995 96.6995 46 121 46V56C102.222 56 87 71.2223 87 90V349H77ZM439 46V349H429V56L439 46Z" fill="#EBEBEB" mask="url(#path-1-inside-1_938_581)"/>
</g>
<g filter="url(#filter1_dd_938_581)">
<rect x="30" y="187" width="390" height="89" rx="12" fill="white"/>
<g clip-path="url(#clip0_938_581)">
<rect x="40" y="238" width="112" height="30" rx="7" fill="#F1F1F0"/>
<g filter="url(#filter2_d_938_581)">
<rect x="42" y="240" width="26" height="26" rx="5" fill="white"/>
<path d="M54.167 252.166V247.166H55.8337V252.166H60.8337V253.833H55.8337V258.833H54.167V253.833H49.167V252.166H54.167Z" fill="black" fill-opacity="0.7"/>
</g>
<path d="M81.25 246.25V248.5H78.25V250H81.25V252.25H82.75V246.25H81.25ZM84.25 250H91.75V248.5H84.25V250ZM88.75 253.75V256H91.75V257.5H88.75V259.75H87.25V253.75H88.75ZM85.75 257.5H78.25V256H85.75V257.5Z" fill="#656565"/>
<path d="M99.0938 259V247.727H100.719L104.625 257.227H104.672L108.578 247.727H110.203V259H108.891V250.289H108.844L105.242 259H104.055L100.453 250.289H100.406V259H99.0938ZM115.387 259.156C113.129 259.156 111.621 257.523 111.621 254.938V254.922C111.621 252.336 113.137 250.719 115.379 250.719C117.621 250.719 119.145 252.328 119.145 254.922V254.938C119.145 257.531 117.629 259.156 115.387 259.156ZM115.395 257.953C116.824 257.953 117.754 256.844 117.754 254.938V254.922C117.754 253.016 116.817 251.922 115.379 251.922C113.965 251.922 113.012 253.023 113.012 254.922V254.938C113.012 256.852 113.957 257.953 115.395 257.953ZM123.414 259.156C121.336 259.156 119.961 257.5 119.961 254.938V254.93C119.961 252.367 121.352 250.719 123.391 250.719C124.539 250.719 125.485 251.297 125.993 252.234H126.024V247.727H127.383V259H126.024V257.625H125.993C125.485 258.57 124.578 259.156 123.414 259.156ZM123.68 257.953C125.055 257.953 126.032 256.758 126.032 254.938V254.93C126.032 253.117 125.047 251.922 123.68 251.922C122.243 251.922 121.352 253.078 121.352 254.93V254.938C121.352 256.805 122.243 257.953 123.68 257.953ZM132.403 259.156C130.067 259.156 128.661 257.523 128.661 254.969V254.961C128.661 252.445 130.098 250.719 132.317 250.719C134.536 250.719 135.887 252.367 135.887 254.805V255.305H130.036C130.067 256.977 130.989 257.953 132.434 257.953C133.465 257.953 134.192 257.438 134.426 256.742L134.45 256.672H135.786L135.77 256.75C135.504 258.094 134.176 259.156 132.403 259.156ZM132.309 251.922C131.129 251.922 130.208 252.727 130.059 254.242H134.504C134.372 252.664 133.497 251.922 132.309 251.922ZM139.985 259.156C138.071 259.156 136.915 258.18 136.751 256.727L136.743 256.656H138.102L138.118 256.734C138.282 257.547 138.883 258.023 139.993 258.023C141.094 258.023 141.751 257.562 141.751 256.828V256.82C141.751 256.234 141.446 255.906 140.524 255.68L139.235 255.367C137.704 255 136.962 254.289 136.962 253.117V253.109C136.962 251.711 138.188 250.719 139.946 250.719C141.727 250.719 142.86 251.758 142.962 253.117L142.969 253.219H141.673L141.665 253.164C141.555 252.375 140.954 251.852 139.946 251.852C138.962 251.852 138.352 252.328 138.352 253.047V253.055C138.352 253.609 138.719 253.992 139.618 254.211L140.907 254.523C142.548 254.922 143.141 255.57 143.141 256.727V256.734C143.141 258.156 141.798 259.156 139.985 259.156Z" fill="#656565"/>
</g>
<rect x="380" y="238" width="30" height="30" rx="7" fill="#D5D5D5"/>
<path d="M395.834 249.524V259.667H394.167V249.524L389.697 253.994L388.519 252.816L395 246.334L401.482 252.816L400.304 253.994L395.834 249.524Z" fill="white"/>
<path d="M48.25 216.156C45.9453 216.156 44.4844 214.516 44.4844 211.93V211.922C44.4844 209.359 45.9766 207.719 48.2344 207.719C50.2578 207.719 51.4531 209.062 51.625 210.453L51.6328 210.516H50.3047L50.2891 210.453C50.0859 209.641 49.4297 208.922 48.2344 208.922C46.8203 208.922 45.875 210.094 45.875 211.938V211.945C45.875 213.836 46.8438 214.953 48.25 214.953C49.3594 214.953 50.0703 214.328 50.2969 213.422L50.3125 213.359H51.6484L51.6406 213.414C51.4219 214.961 50.0859 216.156 48.25 216.156ZM52.8984 216V207.875H54.2578V209.25H54.2891C54.5625 208.312 55.2656 207.719 56.1797 207.719C56.4141 207.719 56.6172 207.758 56.7266 207.773V209.094C56.6172 209.055 56.3281 209.016 56 209.016C54.9453 209.016 54.2578 209.75 54.2578 210.984V216H52.8984ZM60.7891 216.156C58.4531 216.156 57.0469 214.523 57.0469 211.969V211.961C57.0469 209.445 58.4844 207.719 60.7031 207.719C62.9219 207.719 64.2734 209.367 64.2734 211.805V212.305H58.4219C58.4531 213.977 59.375 214.953 60.8203 214.953C61.8516 214.953 62.5781 214.438 62.8125 213.742L62.8359 213.672H64.1719L64.1562 213.75C63.8906 215.094 62.5625 216.156 60.7891 216.156ZM60.6953 208.922C59.5156 208.922 58.5938 209.727 58.4453 211.242H62.8906C62.7578 209.664 61.8828 208.922 60.6953 208.922ZM68.0234 216.156C66.4062 216.156 65.3203 215.18 65.3203 213.703V213.688C65.3203 212.305 66.3984 211.438 68.2656 211.328L70.5938 211.195V210.516C70.5938 209.523 69.9453 208.922 68.8125 208.922C67.7656 208.922 67.1094 209.422 66.9531 210.148L66.9375 210.219H65.625L65.6328 210.133C65.75 208.797 66.9141 207.719 68.8281 207.719C70.75 207.719 71.9531 208.758 71.9531 210.383V216H70.5938V214.68H70.5625C70.0859 215.57 69.1094 216.156 68.0234 216.156ZM66.7109 213.703C66.7109 214.484 67.3516 214.977 68.3281 214.977C69.6094 214.977 70.5938 214.094 70.5938 212.914V212.25L68.4219 212.383C67.3359 212.445 66.7109 212.93 66.7109 213.688V213.703ZM76.3203 216.156C74.8281 216.156 74.0938 215.484 74.0938 213.93V209H72.9062V207.875H74.0938V205.68H75.5V207.875H77.0469V209H75.5V213.922C75.5 214.789 75.8828 215.031 76.6094 215.031C76.7734 215.031 76.9297 215.008 77.0469 215V216.102C76.875 216.125 76.5859 216.156 76.3203 216.156ZM81.6172 216.156C79.2812 216.156 77.875 214.523 77.875 211.969V211.961C77.875 209.445 79.3125 207.719 81.5312 207.719C83.75 207.719 85.1016 209.367 85.1016 211.805V212.305H79.25C79.2812 213.977 80.2031 214.953 81.6484 214.953C82.6797 214.953 83.4062 214.438 83.6406 213.742L83.6641 213.672H85L84.9844 213.75C84.7188 215.094 83.3906 216.156 81.6172 216.156ZM81.5234 208.922C80.3438 208.922 79.4219 209.727 79.2734 211.242H83.7188C83.5859 209.664 82.7109 208.922 81.5234 208.922ZM92.1328 216.156C90.5156 216.156 89.4297 215.18 89.4297 213.703V213.688C89.4297 212.305 90.5078 211.438 92.375 211.328L94.7031 211.195V210.516C94.7031 209.523 94.0547 208.922 92.9219 208.922C91.875 208.922 91.2188 209.422 91.0625 210.148L91.0469 210.219H89.7344L89.7422 210.133C89.8594 208.797 91.0234 207.719 92.9375 207.719C94.8594 207.719 96.0625 208.758 96.0625 210.383V216H94.7031V214.68H94.6719C94.1953 215.57 93.2188 216.156 92.1328 216.156ZM90.8203 213.703C90.8203 214.484 91.4609 214.977 92.4375 214.977C93.7188 214.977 94.7031 214.094 94.7031 212.914V212.25L92.5312 212.383C91.4453 212.445 90.8203 212.93 90.8203 213.688V213.703ZM97.7891 216V207.875H99.1484V209.031H99.1797C99.6172 208.273 100.445 207.719 101.68 207.719C103.461 207.719 104.492 208.875 104.492 210.727V216H103.133V210.969C103.133 209.648 102.516 208.922 101.266 208.922C99.9844 208.922 99.1484 209.836 99.1484 211.219V216H97.7891ZM111.883 216.156C110.266 216.156 109.18 215.18 109.18 213.703V213.688C109.18 212.305 110.258 211.438 112.125 211.328L114.453 211.195V210.516C114.453 209.523 113.805 208.922 112.672 208.922C111.625 208.922 110.969 209.422 110.812 210.148L110.797 210.219H109.484L109.492 210.133C109.609 208.797 110.773 207.719 112.688 207.719C114.609 207.719 115.812 208.758 115.812 210.383V216H114.453V214.68H114.422C113.945 215.57 112.969 216.156 111.883 216.156ZM110.57 213.703C110.57 214.484 111.211 214.977 112.188 214.977C113.469 214.977 114.453 214.094 114.453 212.914V212.25L112.281 212.383C111.195 212.445 110.57 212.93 110.57 213.688V213.703ZM120.594 216.156C118.516 216.156 117.141 214.5 117.141 211.938V211.93C117.141 209.367 118.531 207.719 120.57 207.719C121.719 207.719 122.664 208.297 123.172 209.234H123.203V204.727H124.562V216H123.203V214.625H123.172C122.664 215.57 121.758 216.156 120.594 216.156ZM120.859 214.953C122.234 214.953 123.211 213.758 123.211 211.938V211.93C123.211 210.117 122.227 208.922 120.859 208.922C119.422 208.922 118.531 210.078 118.531 211.93V211.938C118.531 213.805 119.422 214.953 120.859 214.953ZM128.688 216L125.695 207.875H127.125L129.367 214.555H129.398L131.648 207.875H133.062L130.078 216H128.688ZM136.352 216.156C134.734 216.156 133.648 215.18 133.648 213.703V213.688C133.648 212.305 134.727 211.438 136.594 211.328L138.922 211.195V210.516C138.922 209.523 138.273 208.922 137.141 208.922C136.094 208.922 135.438 209.422 135.281 210.148L135.266 210.219H133.953L133.961 210.133C134.078 208.797 135.242 207.719 137.156 207.719C139.078 207.719 140.281 208.758 140.281 210.383V216H138.922V214.68H138.891C138.414 215.57 137.438 216.156 136.352 216.156ZM135.039 213.703C135.039 214.484 135.68 214.977 136.656 214.977C137.938 214.977 138.922 214.094 138.922 212.914V212.25L136.75 212.383C135.664 212.445 135.039 212.93 135.039 213.688V213.703ZM142.008 216V207.875H143.367V209.031H143.398C143.836 208.273 144.664 207.719 145.898 207.719C147.68 207.719 148.711 208.875 148.711 210.727V216H147.352V210.969C147.352 209.648 146.734 208.922 145.484 208.922C144.203 208.922 143.367 209.836 143.367 211.219V216H142.008ZM153.812 216.156C151.508 216.156 150.047 214.516 150.047 211.93V211.922C150.047 209.359 151.539 207.719 153.797 207.719C155.82 207.719 157.016 209.062 157.188 210.453L157.195 210.516H155.867L155.852 210.453C155.648 209.641 154.992 208.922 153.797 208.922C152.383 208.922 151.438 210.094 151.438 211.938V211.945C151.438 213.836 152.406 214.953 153.812 214.953C154.922 214.953 155.633 214.328 155.859 213.422L155.875 213.359H157.211L157.203 213.414C156.984 214.961 155.648 216.156 153.812 216.156ZM161.805 216.156C159.469 216.156 158.062 214.523 158.062 211.969V211.961C158.062 209.445 159.5 207.719 161.719 207.719C163.938 207.719 165.289 209.367 165.289 211.805V212.305H159.438C159.469 213.977 160.391 214.953 161.836 214.953C162.867 214.953 163.594 214.438 163.828 213.742L163.852 213.672H165.188L165.172 213.75C164.906 215.094 163.578 216.156 161.805 216.156ZM161.711 208.922C160.531 208.922 159.609 209.727 159.461 211.242H163.906C163.773 209.664 162.898 208.922 161.711 208.922ZM169.719 216.156C167.641 216.156 166.266 214.5 166.266 211.938V211.93C166.266 209.367 167.656 207.719 169.695 207.719C170.844 207.719 171.789 208.297 172.297 209.234H172.328V204.727H173.688V216H172.328V214.625H172.297C171.789 215.57 170.883 216.156 169.719 216.156ZM169.984 214.953C171.359 214.953 172.336 213.758 172.336 211.938V211.93C172.336 210.117 171.352 208.922 169.984 208.922C168.547 208.922 167.656 210.078 167.656 211.93V211.938C167.656 213.805 168.547 214.953 169.984 214.953ZM182.172 216.156C179.867 216.156 178.406 214.516 178.406 211.93V211.922C178.406 209.359 179.898 207.719 182.156 207.719C184.18 207.719 185.375 209.062 185.547 210.453L185.555 210.516H184.227L184.211 210.453C184.008 209.641 183.352 208.922 182.156 208.922C180.742 208.922 179.797 210.094 179.797 211.938V211.945C179.797 213.836 180.766 214.953 182.172 214.953C183.281 214.953 183.992 214.328 184.219 213.422L184.234 213.359H185.57L185.562 213.414C185.344 214.961 184.008 216.156 182.172 216.156ZM190.188 216.156C187.93 216.156 186.422 214.523 186.422 211.938V211.922C186.422 209.336 187.938 207.719 190.18 207.719C192.422 207.719 193.945 209.328 193.945 211.922V211.938C193.945 214.531 192.43 216.156 190.188 216.156ZM190.195 214.953C191.625 214.953 192.555 213.844 192.555 211.938V211.922C192.555 210.016 191.617 208.922 190.18 208.922C188.766 208.922 187.812 210.023 187.812 211.922V211.938C187.812 213.852 188.758 214.953 190.195 214.953ZM198.094 216.156C196.312 216.156 195.281 215 195.281 213.148V207.875H196.641V212.906C196.641 214.227 197.258 214.953 198.508 214.953C199.789 214.953 200.625 214.039 200.625 212.656V207.875H201.984V216H200.625V214.844H200.594C200.156 215.602 199.328 216.156 198.094 216.156ZM203.758 216V207.875H205.117V209.25H205.148C205.422 208.312 206.125 207.719 207.039 207.719C207.273 207.719 207.477 207.758 207.586 207.773V209.094C207.477 209.055 207.188 209.016 206.859 209.016C205.805 209.016 205.117 209.75 205.117 210.984V216H203.758ZM211.578 216.156C209.664 216.156 208.508 215.18 208.344 213.727L208.336 213.656H209.695L209.711 213.734C209.875 214.547 210.477 215.023 211.586 215.023C212.688 215.023 213.344 214.562 213.344 213.828V213.82C213.344 213.234 213.039 212.906 212.117 212.68L210.828 212.367C209.297 212 208.555 211.289 208.555 210.117V210.109C208.555 208.711 209.781 207.719 211.539 207.719C213.32 207.719 214.453 208.758 214.555 210.117L214.562 210.219H213.266L213.258 210.164C213.148 209.375 212.547 208.852 211.539 208.852C210.555 208.852 209.945 209.328 209.945 210.047V210.055C209.945 210.609 210.312 210.992 211.211 211.211L212.5 211.523C214.141 211.922 214.734 212.57 214.734 213.727V213.734C214.734 215.156 213.391 216.156 211.578 216.156ZM219.492 216.156C217.156 216.156 215.75 214.523 215.75 211.969V211.961C215.75 209.445 217.188 207.719 219.406 207.719C221.625 207.719 222.977 209.367 222.977 211.805V212.305H217.125C217.156 213.977 218.078 214.953 219.523 214.953C220.555 214.953 221.281 214.438 221.516 213.742L221.539 213.672H222.875L222.859 213.75C222.594 215.094 221.266 216.156 219.492 216.156ZM219.398 208.922C218.219 208.922 217.297 209.727 217.148 211.242H221.594C221.461 209.664 220.586 208.922 219.398 208.922ZM231 216.156C228.742 216.156 227.234 214.523 227.234 211.938V211.922C227.234 209.336 228.75 207.719 230.992 207.719C233.234 207.719 234.758 209.328 234.758 211.922V211.938C234.758 214.531 233.242 216.156 231 216.156ZM231.008 214.953C232.438 214.953 233.367 213.844 233.367 211.938V211.922C233.367 210.016 232.43 208.922 230.992 208.922C229.578 208.922 228.625 210.023 228.625 211.922V211.938C228.625 213.852 229.57 214.953 231.008 214.953ZM236.133 216V207.875H237.492V209.031H237.523C237.961 208.273 238.789 207.719 240.023 207.719C241.805 207.719 242.836 208.875 242.836 210.727V216H241.477V210.969C241.477 209.648 240.859 208.922 239.609 208.922C238.328 208.922 237.492 209.836 237.492 211.219V216H236.133ZM250.227 216.156C248.609 216.156 247.523 215.18 247.523 213.703V213.688C247.523 212.305 248.602 211.438 250.469 211.328L252.797 211.195V210.516C252.797 209.523 252.148 208.922 251.016 208.922C249.969 208.922 249.312 209.422 249.156 210.148L249.141 210.219H247.828L247.836 210.133C247.953 208.797 249.117 207.719 251.031 207.719C252.953 207.719 254.156 208.758 254.156 210.383V216H252.797V214.68H252.766C252.289 215.57 251.312 216.156 250.227 216.156ZM248.914 213.703C248.914 214.484 249.555 214.977 250.531 214.977C251.812 214.977 252.797 214.094 252.797 212.914V212.25L250.625 212.383C249.539 212.445 248.914 212.93 248.914 213.688V213.703ZM255.883 216V207.875H257.242V209.25H257.273C257.547 208.312 258.25 207.719 259.164 207.719C259.398 207.719 259.602 207.758 259.711 207.773V209.094C259.602 209.055 259.312 209.016 258.984 209.016C257.93 209.016 257.242 209.75 257.242 210.984V216H255.883ZM263.852 216.156C262.359 216.156 261.625 215.484 261.625 213.93V209H260.438V207.875H261.625V205.68H263.031V207.875H264.578V209H263.031V213.922C263.031 214.789 263.414 215.031 264.141 215.031C264.305 215.031 264.461 215.008 264.578 215V216.102C264.406 216.125 264.117 216.156 263.852 216.156ZM266.805 206.5C266.336 206.5 265.953 206.117 265.953 205.648C265.953 205.172 266.336 204.797 266.805 204.797C267.281 204.797 267.656 205.172 267.656 205.648C267.656 206.117 267.281 206.5 266.805 206.5ZM266.125 216V207.875H267.484V216H266.125ZM269.773 216V209H268.641V207.875H269.773V206.875C269.773 205.312 270.5 204.57 272 204.57C272.305 204.57 272.625 204.594 272.828 204.625V205.727C272.664 205.703 272.453 205.695 272.242 205.695C271.492 205.695 271.117 206.078 271.117 206.883V207.875H272.789V209H271.133V216H269.773ZM274.961 206.5C274.492 206.5 274.109 206.117 274.109 205.648C274.109 205.172 274.492 204.797 274.961 204.797C275.438 204.797 275.812 205.172 275.812 205.648C275.812 206.117 275.438 206.5 274.961 206.5ZM274.281 216V207.875H275.641V216H274.281ZM280.859 216.156C278.555 216.156 277.094 214.516 277.094 211.93V211.922C277.094 209.359 278.586 207.719 280.844 207.719C282.867 207.719 284.062 209.062 284.234 210.453L284.242 210.516H282.914L282.898 210.453C282.695 209.641 282.039 208.922 280.844 208.922C279.43 208.922 278.484 210.094 278.484 211.938V211.945C278.484 213.836 279.453 214.953 280.859 214.953C281.969 214.953 282.68 214.328 282.906 213.422L282.922 213.359H284.258L284.25 213.414C284.031 214.961 282.695 216.156 280.859 216.156ZM286.273 206.5C285.805 206.5 285.422 206.117 285.422 205.648C285.422 205.172 285.805 204.797 286.273 204.797C286.75 204.797 287.125 205.172 287.125 205.648C287.125 206.117 286.75 206.5 286.273 206.5ZM285.594 216V207.875H286.953V216H285.594ZM291.18 216.156C289.562 216.156 288.477 215.18 288.477 213.703V213.688C288.477 212.305 289.555 211.438 291.422 211.328L293.75 211.195V210.516C293.75 209.523 293.102 208.922 291.969 208.922C290.922 208.922 290.266 209.422 290.109 210.148L290.094 210.219H288.781L288.789 210.133C288.906 208.797 290.07 207.719 291.984 207.719C293.906 207.719 295.109 208.758 295.109 210.383V216H293.75V214.68H293.719C293.242 215.57 292.266 216.156 291.18 216.156ZM289.867 213.703C289.867 214.484 290.508 214.977 291.484 214.977C292.766 214.977 293.75 214.094 293.75 212.914V212.25L291.578 212.383C290.492 212.445 289.867 212.93 289.867 213.688V213.703ZM296.906 216V204.727H298.266V216H296.906ZM304.148 206.5C303.68 206.5 303.297 206.117 303.297 205.648C303.297 205.172 303.68 204.797 304.148 204.797C304.625 204.797 305 205.172 305 205.648C305 206.117 304.625 206.5 304.148 206.5ZM303.469 216V207.875H304.828V216H303.469ZM306.68 216V207.875H308.039V209.031H308.07C308.508 208.273 309.336 207.719 310.57 207.719C312.352 207.719 313.383 208.875 313.383 210.727V216H312.023V210.969C312.023 209.648 311.406 208.922 310.156 208.922C308.875 208.922 308.039 209.836 308.039 211.219V216H306.68ZM317.758 216.156C316.266 216.156 315.531 215.484 315.531 213.93V209H314.344V207.875H315.531V205.68H316.938V207.875H318.484V209H316.938V213.922C316.938 214.789 317.32 215.031 318.047 215.031C318.211 215.031 318.367 215.008 318.484 215V216.102C318.312 216.125 318.023 216.156 317.758 216.156ZM323.055 216.156C320.719 216.156 319.312 214.523 319.312 211.969V211.961C319.312 209.445 320.75 207.719 322.969 207.719C325.188 207.719 326.539 209.367 326.539 211.805V212.305H320.688C320.719 213.977 321.641 214.953 323.086 214.953C324.117 214.953 324.844 214.438 325.078 213.742L325.102 213.672H326.438L326.422 213.75C326.156 215.094 324.828 216.156 323.055 216.156ZM322.961 208.922C321.781 208.922 320.859 209.727 320.711 211.242H325.156C325.023 209.664 324.148 208.922 322.961 208.922ZM327.984 216V204.727H329.344V216H327.984ZM331.25 216V204.727H332.609V216H331.25ZM335.211 206.5C334.742 206.5 334.359 206.117 334.359 205.648C334.359 205.172 334.742 204.797 335.211 204.797C335.688 204.797 336.062 205.172 336.062 205.648C336.062 206.117 335.688 206.5 335.211 206.5ZM334.531 216V207.875H335.891V216H334.531ZM341.18 218.891C339.172 218.891 337.906 217.945 337.641 216.742L337.625 216.672H338.992L339.023 216.742C339.281 217.328 340.055 217.688 341.164 217.688C342.594 217.688 343.406 216.898 343.406 215.641V214.602H343.375C342.891 215.5 341.953 216.078 340.789 216.078C338.742 216.078 337.344 214.43 337.344 211.891V211.883C337.344 209.359 338.758 207.719 340.82 207.719C341.969 207.719 342.875 208.344 343.375 209.25H343.406V207.875H344.766V215.773C344.766 217.656 343.383 218.891 341.18 218.891ZM341.086 214.875C342.469 214.875 343.406 213.695 343.406 211.891V211.883C343.406 210.094 342.461 208.922 341.086 208.922C339.641 208.922 338.734 210.078 338.734 211.883V211.891C338.734 213.734 339.641 214.875 341.086 214.875ZM349.867 216.156C347.531 216.156 346.125 214.523 346.125 211.969V211.961C346.125 209.445 347.562 207.719 349.781 207.719C352 207.719 353.352 209.367 353.352 211.805V212.305H347.5C347.531 213.977 348.453 214.953 349.898 214.953C350.93 214.953 351.656 214.438 351.891 213.742L351.914 213.672H353.25L353.234 213.75C352.969 215.094 351.641 216.156 349.867 216.156ZM349.773 208.922C348.594 208.922 347.672 209.727 347.523 211.242H351.969C351.836 209.664 350.961 208.922 349.773 208.922ZM354.727 216V207.875H356.086V209.031H356.117C356.555 208.273 357.383 207.719 358.617 207.719C360.398 207.719 361.43 208.875 361.43 210.727V216H360.07V210.969C360.07 209.648 359.453 208.922 358.203 208.922C356.922 208.922 356.086 209.836 356.086 211.219V216H354.727ZM366.531 216.156C364.227 216.156 362.766 214.516 362.766 211.93V211.922C362.766 209.359 364.258 207.719 366.516 207.719C368.539 207.719 369.734 209.062 369.906 210.453L369.914 210.516H368.586L368.57 210.453C368.367 209.641 367.711 208.922 366.516 208.922C365.102 208.922 364.156 210.094 364.156 211.938V211.945C364.156 213.836 365.125 214.953 366.531 214.953C367.641 214.953 368.352 214.328 368.578 213.422L368.594 213.359H369.93L369.922 213.414C369.703 214.961 368.367 216.156 366.531 216.156ZM374.523 216.156C372.188 216.156 370.781 214.523 370.781 211.969V211.961C370.781 209.445 372.219 207.719 374.438 207.719C376.656 207.719 378.008 209.367 378.008 211.805V212.305H372.156C372.188 213.977 373.109 214.953 374.555 214.953C375.586 214.953 376.312 214.438 376.547 213.742L376.57 213.672H377.906L377.891 213.75C377.625 215.094 376.297 216.156 374.523 216.156ZM374.43 208.922C373.25 208.922 372.328 209.727 372.18 211.242H376.625C376.492 209.664 375.617 208.922 374.43 208.922Z" fill="black" fill-opacity="0.7"/>
</g>
<g opacity="0.94" filter="url(#filter3_dd_938_581)">
<rect x="132" y="28" width="202" height="56" rx="11" fill="white"/>
<rect x="137" y="33" width="46" height="46" rx="5" fill="#D2CECB"/>
<path d="M168.625 52.166V64.6178C168.625 65.1515 168.199 65.5827 167.673 65.5827H152.327C151.801 65.5827 151.375 65.1572 151.375 64.6322V47.3665C151.375 46.8524 151.805 46.416 152.335 46.416H162.872L168.625 52.166ZM166.708 53.1243H161.917V48.3327H153.292V63.666H166.708V53.1243ZM156.167 51.2077H159.042V53.1243H156.167V51.2077ZM156.167 55.041H163.833V56.9577H156.167V55.041ZM156.167 58.8743H163.833V60.791H156.167V58.8743Z" fill="#6E6A68"/>
<path d="M200.678 50V40.6372H197.367V39.1916H205.659V40.6372H202.356V50H200.678ZM205.673 50V42.1203H207.291V43.4685H207.329C207.583 42.5472 208.243 41.9705 209.141 41.9705C209.374 41.9705 209.576 42.0079 209.703 42.0304V43.5359C209.576 43.4835 209.291 43.446 208.977 43.446C207.935 43.446 207.291 44.1277 207.291 45.3036V50H205.673ZM211.89 40.9069C211.366 40.9069 210.946 40.4874 210.946 39.9781C210.946 39.4612 211.366 39.0418 211.89 39.0418C212.422 39.0418 212.834 39.4612 212.834 39.9781C212.834 40.4874 212.422 40.9069 211.89 40.9069ZM211.081 50V42.1203H212.699V50H211.081ZM218.129 52.7789C216.107 52.7789 214.826 51.8426 214.586 50.6367L214.579 50.5693H216.182L216.212 50.6292C216.429 51.131 217.11 51.4756 218.122 51.4756C219.41 51.4756 220.121 50.7865 220.121 49.6854V48.6068H220.084C219.635 49.4607 218.736 50.0075 217.605 50.0075C215.627 50.0075 214.324 48.457 214.324 46.0002V45.9927C214.324 43.5209 215.642 41.9705 217.642 41.9705C218.751 41.9705 219.62 42.5697 220.084 43.461H220.121V42.1203H221.747V49.7828C221.747 51.5804 220.354 52.7789 218.129 52.7789ZM218.062 48.6892C219.298 48.6892 220.121 47.6481 220.121 46.0227V46.0152C220.121 44.3973 219.29 43.3562 218.062 43.3562C216.781 43.3562 215.979 44.3898 215.979 46.0152V46.0227C215.979 47.6705 216.781 48.6892 218.062 48.6892ZM227.042 50.1573C224.78 50.1573 223.305 48.5918 223.305 46.0601V46.0452C223.305 43.5284 224.795 41.9705 227.035 41.9705C229.282 41.9705 230.78 43.5209 230.78 46.0452V46.0601C230.78 48.5993 229.297 50.1573 227.042 50.1573ZM227.05 48.8016C228.315 48.8016 229.124 47.7979 229.124 46.0601V46.0452C229.124 44.3224 228.3 43.3262 227.035 43.3262C225.791 43.3262 224.96 44.3224 224.96 46.0452V46.0601C224.96 47.8054 225.784 48.8016 227.05 48.8016ZM232.337 50V42.1203H233.955V43.3112H233.993C234.405 42.5098 235.214 41.9705 236.405 41.9705C238.135 41.9705 239.131 43.0865 239.131 44.8992V50H237.506V45.2062C237.506 44.0228 236.951 43.3562 235.828 43.3562C234.689 43.3562 233.955 44.1801 233.955 45.4085V50H232.337ZM244.389 50.1573C242.127 50.1573 240.651 48.5918 240.651 46.0601V46.0452C240.651 43.5284 242.142 41.9705 244.381 41.9705C246.628 41.9705 248.127 43.5209 248.127 46.0452V46.0601C248.127 48.5993 246.643 50.1573 244.389 50.1573ZM244.396 48.8016C245.662 48.8016 246.471 47.7979 246.471 46.0601V46.0452C246.471 44.3224 245.647 43.3262 244.381 43.3262C243.138 43.3262 242.307 44.3224 242.307 46.0452V46.0601C242.307 47.8054 243.131 48.8016 244.396 48.8016ZM249.684 50V42.1203H251.302V43.3412H251.34C251.677 42.5173 252.478 41.9705 253.512 41.9705C254.598 41.9705 255.392 42.5322 255.706 43.5209H255.744C256.148 42.5622 257.077 41.9705 258.201 41.9705C259.759 41.9705 260.777 43.0041 260.777 44.5846V50H259.152V44.9741C259.152 43.9479 258.605 43.3562 257.646 43.3562C256.688 43.3562 256.021 44.0752 256.021 45.0714V50H254.433V44.8542C254.433 43.9404 253.856 43.3562 252.942 43.3562C251.984 43.3562 251.302 44.1127 251.302 45.1313V50H249.684ZM266.013 50.1573C263.698 50.1573 262.297 48.5769 262.297 46.0901V46.0826C262.297 43.6183 263.721 41.9705 265.93 41.9705C268.14 41.9705 269.496 43.5584 269.496 45.9253V46.4721H263.915C263.945 47.9627 264.762 48.8315 266.05 48.8315C267.009 48.8315 267.645 48.3372 267.848 47.7454L267.87 47.6855H269.406L269.391 47.7679C269.136 49.0188 267.923 50.1573 266.013 50.1573ZM265.938 43.2962C264.889 43.2962 264.08 44.0078 263.938 45.3261H267.893C267.758 43.9629 266.994 43.2962 265.938 43.2962ZM273.825 50.1573C272.267 50.1573 271.518 49.4982 271.518 47.9252V43.4086H270.387V42.1203H271.518V40.0679H273.173V42.1203H274.649V43.4086H273.173V47.8278C273.173 48.6293 273.533 48.869 274.214 48.869C274.386 48.869 274.529 48.854 274.649 48.839V50.0899C274.461 50.1198 274.154 50.1573 273.825 50.1573ZM276.296 50V42.1203H277.914V43.4685H277.951C278.206 42.5472 278.865 41.9705 279.764 41.9705C279.996 41.9705 280.199 42.0079 280.326 42.0304V43.5359C280.199 43.4835 279.914 43.446 279.599 43.446C278.558 43.446 277.914 44.1277 277.914 45.3036V50H276.296ZM282.805 52.6291C282.49 52.6291 282.153 52.5916 281.958 52.5542V51.2883C282.086 51.3183 282.273 51.3482 282.49 51.3482C283.254 51.3482 283.674 51.146 283.943 50.382L284.078 50.0075L281.209 42.1203H282.962L284.947 48.5319H284.999L286.984 42.1203H288.692L285.756 50.367C285.172 51.9999 284.348 52.6291 282.805 52.6291Z" fill="black" fill-opacity="0.7"/>
<path d="M201.293 72.1641C199.317 72.1641 197.943 70.9678 197.807 69.3408L197.8 69.2588H199.263L199.27 69.3135C199.399 70.2021 200.206 70.8857 201.307 70.8857C202.551 70.8857 203.419 70.0244 203.419 68.8008V68.7871C203.412 67.5771 202.544 66.7227 201.32 66.7227C200.712 66.7227 200.186 66.9004 199.789 67.2559C199.604 67.4131 199.447 67.6045 199.317 67.8232H197.978L198.463 62.1357H204.342V63.4277H199.7L199.399 66.5518H199.434C199.878 65.8887 200.698 65.5127 201.669 65.5127C203.556 65.5127 204.916 66.873 204.916 68.7598V68.7734C204.916 70.7764 203.419 72.1641 201.293 72.1641ZM206.461 72V62.1357H207.937V65.9912H207.971C208.354 65.1572 209.127 64.6719 210.2 64.6719C211.738 64.6719 212.75 65.8203 212.75 67.5566V72H211.273V67.8369C211.273 66.6475 210.672 65.9365 209.633 65.9365C208.614 65.9365 207.937 66.7158 207.937 67.8369V72H206.461ZM214.465 72V64.8086H215.942V66.0391H215.976C216.208 65.1982 216.81 64.6719 217.63 64.6719C217.842 64.6719 218.027 64.7061 218.143 64.7266V66.1006C218.027 66.0527 217.767 66.0186 217.48 66.0186C216.53 66.0186 215.942 66.6406 215.942 67.7139V72H214.465ZM225.942 72.1641C223.837 72.1641 222.463 71.0156 222.326 69.4092L222.319 69.3203H223.789L223.796 69.3955C223.891 70.2705 224.719 70.8857 225.942 70.8857C227.145 70.8857 227.959 70.2158 227.959 69.2588V69.2451C227.959 68.1309 227.152 67.5088 225.833 67.5088H224.637V66.3193H225.792C226.92 66.3193 227.685 65.6562 227.685 64.7402V64.7266C227.685 63.7764 227.043 63.2227 225.929 63.2227C224.835 63.2227 224.069 63.7969 223.974 64.7129L223.967 64.7744H222.531L222.538 64.7061C222.688 63.0586 224.001 61.9717 225.929 61.9717C227.891 61.9717 229.176 63.0107 229.176 64.5283V64.542C229.176 65.7656 228.301 66.5859 227.098 66.8389V66.873C228.547 67.0029 229.517 67.8779 229.517 69.2588V69.2725C229.517 70.9609 228.034 72.1641 225.942 72.1641ZM234.842 72.1641C232.484 72.1641 231.076 70.2021 231.076 67.0713V67.0576C231.076 63.9268 232.484 61.9717 234.842 61.9717C237.194 61.9717 238.609 63.9268 238.609 67.0576V67.0713C238.609 70.2021 237.194 72.1641 234.842 72.1641ZM234.842 70.8857C236.244 70.8857 237.064 69.4365 237.064 67.0713V67.0576C237.064 64.6924 236.244 63.2568 234.842 63.2568C233.434 63.2568 232.621 64.6924 232.621 67.0576V67.0713C232.621 69.4365 233.434 70.8857 234.842 70.8857ZM240.222 72V64.8086H241.699V65.9229H241.733C242.04 65.1709 242.772 64.6719 243.715 64.6719C244.706 64.6719 245.431 65.1846 245.718 66.0869H245.752C246.121 65.2119 246.969 64.6719 247.994 64.6719C249.416 64.6719 250.346 65.6152 250.346 67.0576V72H248.863V67.4131C248.863 66.4766 248.364 65.9365 247.489 65.9365C246.614 65.9365 246.005 66.5928 246.005 67.502V72H244.556V67.3037C244.556 66.4697 244.03 65.9365 243.196 65.9365C242.321 65.9365 241.699 66.627 241.699 67.5566V72H240.222ZM252.855 63.7012C252.376 63.7012 251.993 63.3184 251.993 62.8535C251.993 62.3818 252.376 61.999 252.855 61.999C253.34 61.999 253.716 62.3818 253.716 62.8535C253.716 63.3184 253.34 63.7012 252.855 63.7012ZM252.116 72V64.8086H253.593V72H252.116ZM255.397 72V64.8086H256.874V65.8955H256.908C257.284 65.1641 258.022 64.6719 259.109 64.6719C260.688 64.6719 261.597 65.6904 261.597 67.3447V72H260.114V67.625C260.114 66.5449 259.608 65.9365 258.583 65.9365C257.544 65.9365 256.874 66.6885 256.874 67.8096V72H255.397ZM265.999 72.1436C264.202 72.1436 263.149 71.2549 262.999 69.9424L262.992 69.8809H264.455L264.468 69.9492C264.605 70.6123 265.097 71.002 266.006 71.002C266.895 71.002 267.428 70.6328 267.428 70.0518V70.0449C267.428 69.5801 267.168 69.3135 266.396 69.1289L265.22 68.8623C263.853 68.5479 263.176 67.8916 263.176 66.8457V66.8389C263.176 65.5537 264.297 64.6719 265.952 64.6719C267.654 64.6719 268.679 65.6221 268.754 66.8457L268.761 66.9277H267.374L267.367 66.8799C267.278 66.251 266.786 65.8135 265.952 65.8135C265.159 65.8135 264.66 66.1895 264.66 66.7637V66.7705C264.66 67.2148 264.954 67.5156 265.726 67.7002L266.895 67.9668C268.365 68.3086 268.925 68.8896 268.925 69.9219V69.9287C268.925 71.2412 267.695 72.1436 265.999 72.1436Z" fill="#BCBCBC"/>
</g>
<g opacity="0.94" filter="url(#filter4_dd_938_581)">
<rect x="220" y="96" width="202" height="56" rx="11" fill="white"/>
<rect x="225" y="101" width="46" height="46" rx="5" fill="#AABCA3"/>
<path d="M256.625 120.166V132.618C256.625 133.152 256.199 133.583 255.673 133.583H240.327C239.801 133.583 239.375 133.157 239.375 132.632V115.366C239.375 114.852 239.805 114.416 240.335 114.416H250.872L256.625 120.166ZM254.708 121.124H249.917V116.333H241.292V131.666H254.708V121.124ZM244.167 119.208H247.042V121.124H244.167V119.208ZM244.167 123.041H251.833V124.958H244.167V123.041ZM244.167 126.874H251.833V128.791H244.167V126.874Z" fill="#173330"/>
<path d="M285.996 118V107.192H290.018C292.138 107.192 293.606 108.615 293.606 110.734V110.749C293.606 112.862 292.138 114.307 290.018 114.307H287.674V118H285.996ZM289.599 108.607H287.674V112.899H289.599C291.06 112.899 291.899 112.113 291.899 110.757V110.742C291.899 109.394 291.06 108.607 289.599 108.607ZM295.186 118V110.12H296.804V111.469H296.842C297.096 110.547 297.756 109.97 298.654 109.97C298.887 109.97 299.089 110.008 299.216 110.03V111.536C299.089 111.483 298.804 111.446 298.49 111.446C297.448 111.446 296.804 112.128 296.804 113.304V118H295.186ZM303.568 118.157C301.306 118.157 299.83 116.592 299.83 114.06V114.045C299.83 111.528 301.321 109.97 303.56 109.97C305.807 109.97 307.305 111.521 307.305 114.045V114.06C307.305 116.599 305.822 118.157 303.568 118.157ZM303.575 116.802C304.841 116.802 305.65 115.798 305.65 114.06V114.045C305.65 112.322 304.826 111.326 303.56 111.326C302.317 111.326 301.485 112.322 301.485 114.045V114.06C301.485 115.805 302.309 116.802 303.575 116.802ZM313.05 118.157C311.919 118.157 311.043 117.588 310.578 116.667H310.541V118H308.923V107.192H310.541V111.461H310.578C311.05 110.532 311.949 109.97 313.065 109.97C315.042 109.97 316.346 111.543 316.346 114.053V114.06C316.346 116.569 315.05 118.157 313.05 118.157ZM312.623 116.764C313.896 116.764 314.69 115.738 314.69 114.06V114.053C314.69 112.39 313.896 111.356 312.623 111.356C311.402 111.356 310.533 112.42 310.533 114.053V114.06C310.533 115.7 311.395 116.764 312.623 116.764ZM320.218 118.142C318.645 118.142 317.589 117.176 317.589 115.76V115.745C317.589 114.375 318.652 113.536 320.517 113.423L322.66 113.296V112.704C322.66 111.836 322.098 111.311 321.094 111.311C320.158 111.311 319.581 111.753 319.446 112.382L319.431 112.45H317.903L317.911 112.367C318.023 111.012 319.199 109.97 321.139 109.97C323.064 109.97 324.285 110.989 324.285 112.57V118H322.66V116.757H322.63C322.173 117.603 321.259 118.142 320.218 118.142ZM319.222 115.723C319.222 116.412 319.791 116.847 320.66 116.847C321.798 116.847 322.66 116.075 322.66 115.049V114.435L320.735 114.554C319.761 114.614 319.222 115.041 319.222 115.708V115.723ZM330.352 118.157C329.221 118.157 328.344 117.588 327.88 116.667H327.843V118H326.225V107.192H327.843V111.461H327.88C328.352 110.532 329.251 109.97 330.367 109.97C332.344 109.97 333.648 111.543 333.648 114.053V114.06C333.648 116.569 332.352 118.157 330.352 118.157ZM329.925 116.764C331.198 116.764 331.992 115.738 331.992 114.06V114.053C331.992 112.39 331.198 111.356 329.925 111.356C328.704 111.356 327.835 112.42 327.835 114.053V114.06C327.835 115.7 328.697 116.764 329.925 116.764ZM336.082 108.907C335.557 108.907 335.138 108.487 335.138 107.978C335.138 107.461 335.557 107.042 336.082 107.042C336.613 107.042 337.025 107.461 337.025 107.978C337.025 108.487 336.613 108.907 336.082 108.907ZM335.273 118V110.12H336.891V118H335.273ZM338.928 118V107.192H340.545V118H338.928ZM343.391 108.907C342.867 108.907 342.448 108.487 342.448 107.978C342.448 107.461 342.867 107.042 343.391 107.042C343.923 107.042 344.335 107.461 344.335 107.978C344.335 108.487 343.923 108.907 343.391 108.907ZM342.583 118V110.12H344.2V118H342.583ZM348.941 118.157C347.383 118.157 346.634 117.498 346.634 115.925V111.409H345.503V110.12H346.634V108.068H348.29V110.12H349.765V111.409H348.29V115.828C348.29 116.629 348.649 116.869 349.331 116.869C349.503 116.869 349.646 116.854 349.765 116.839V118.09C349.578 118.12 349.271 118.157 348.941 118.157ZM352.342 120.629C352.027 120.629 351.69 120.592 351.495 120.554V119.288C351.623 119.318 351.81 119.348 352.027 119.348C352.791 119.348 353.211 119.146 353.48 118.382L353.615 118.007L350.746 110.12H352.499L354.484 116.532H354.536L356.521 110.12H358.229L355.293 118.367C354.709 120 353.885 120.629 352.342 120.629Z" fill="black" fill-opacity="0.7"/>
<path d="M285.766 140V138.947L289.238 135.454C290.551 134.142 290.845 133.622 290.845 132.856V132.843C290.838 131.906 290.127 131.236 289.129 131.236C287.974 131.236 287.146 132.016 287.133 133.014V133.055H285.684V133.014C285.684 131.25 287.181 129.972 289.108 129.972C291.002 129.972 292.355 131.161 292.355 132.754V132.768C292.355 133.896 291.829 134.695 290.059 136.445L287.816 138.646V138.708H292.513V140H285.766ZM294.174 140V130.136H295.65V133.991H295.684C296.067 133.157 296.84 132.672 297.913 132.672C299.451 132.672 300.463 133.82 300.463 135.557V140H298.986V135.837C298.986 134.647 298.384 133.937 297.345 133.937C296.327 133.937 295.65 134.716 295.65 135.837V140H294.174ZM302.178 140V132.809H303.655V134.039H303.689C303.921 133.198 304.523 132.672 305.343 132.672C305.555 132.672 305.74 132.706 305.856 132.727V134.101C305.74 134.053 305.48 134.019 305.193 134.019C304.243 134.019 303.655 134.641 303.655 135.714V140H302.178ZM314.899 140V138.038H309.964V136.705L314.154 130.136H316.369V136.753H317.729V138.038H316.369V140H314.899ZM311.386 136.773H314.913V131.346H314.872L311.386 136.732V136.773ZM322.699 140.164C320.723 140.164 319.349 138.968 319.213 137.341L319.206 137.259H320.669L320.675 137.313C320.805 138.202 321.612 138.886 322.713 138.886C323.957 138.886 324.825 138.024 324.825 136.801V136.787C324.818 135.577 323.95 134.723 322.726 134.723C322.118 134.723 321.591 134.9 321.195 135.256C321.01 135.413 320.853 135.604 320.723 135.823H319.383L319.869 130.136H325.748V131.428H321.106L320.805 134.552H320.839C321.284 133.889 322.104 133.513 323.075 133.513C324.962 133.513 326.322 134.873 326.322 136.76V136.773C326.322 138.776 324.825 140.164 322.699 140.164ZM327.812 140V132.809H329.288V133.923H329.323C329.63 133.171 330.362 132.672 331.305 132.672C332.296 132.672 333.021 133.185 333.308 134.087H333.342C333.711 133.212 334.559 132.672 335.584 132.672C337.006 132.672 337.936 133.615 337.936 135.058V140H336.452V135.413C336.452 134.477 335.953 133.937 335.078 133.937C334.203 133.937 333.595 134.593 333.595 135.502V140H332.146V135.304C332.146 134.47 331.619 133.937 330.785 133.937C329.91 133.937 329.288 134.627 329.288 135.557V140H327.812ZM340.444 131.701C339.966 131.701 339.583 131.318 339.583 130.854C339.583 130.382 339.966 129.999 340.444 129.999C340.93 129.999 341.306 130.382 341.306 130.854C341.306 131.318 340.93 131.701 340.444 131.701ZM339.706 140V132.809H341.183V140H339.706ZM342.987 140V132.809H344.464V133.896H344.498C344.874 133.164 345.612 132.672 346.699 132.672C348.278 132.672 349.187 133.69 349.187 135.345V140H347.704V135.625C347.704 134.545 347.198 133.937 346.173 133.937C345.134 133.937 344.464 134.688 344.464 135.81V140H342.987ZM353.589 140.144C351.791 140.144 350.739 139.255 350.588 137.942L350.582 137.881H352.044L352.058 137.949C352.195 138.612 352.687 139.002 353.596 139.002C354.485 139.002 355.018 138.633 355.018 138.052V138.045C355.018 137.58 354.758 137.313 353.986 137.129L352.81 136.862C351.443 136.548 350.766 135.892 350.766 134.846V134.839C350.766 133.554 351.887 132.672 353.541 132.672C355.244 132.672 356.269 133.622 356.344 134.846L356.351 134.928H354.963L354.957 134.88C354.868 134.251 354.375 133.813 353.541 133.813C352.749 133.813 352.249 134.189 352.249 134.764V134.771C352.249 135.215 352.543 135.516 353.316 135.7L354.485 135.967C355.955 136.309 356.515 136.89 356.515 137.922V137.929C356.515 139.241 355.285 140.144 353.589 140.144Z" fill="#BCBCBC"/>
</g>
<defs>
<filter id="filter0_d_938_581" x="81" y="50" width="354" height="300" filterUnits="userSpaceOnUse" color-interpolation-filters="sRGB">
<feFlood flood-opacity="0" result="BackgroundImageFix"/>
<feColorMatrix in="SourceAlpha" type="matrix" values="0 0 0 0 0 0 0 0 0 0 0 0 0 0 0 0 0 0 127 0" result="hardAlpha"/>
<feMorphology radius="1" operator="dilate" in="SourceAlpha" result="effect1_dropShadow_938_581"/>
<feOffset/>
<feComposite in2="hardAlpha" operator="out"/>
<feColorMatrix type="matrix" values="0 0 0 0 0 0 0 0 0 0 0 0 0 0 0 0 0 0 0.15 0"/>
<feBlend mode="normal" in2="BackgroundImageFix" result="effect1_dropShadow_938_581"/>
<feBlend mode="normal" in="SourceGraphic" in2="effect1_dropShadow_938_581" result="shape"/>
</filter>
<filter id="filter1_dd_938_581" x="0" y="159" width="450" height="149" filterUnits="userSpaceOnUse" color-interpolation-filters="sRGB">
<feFlood flood-opacity="0" result="BackgroundImageFix"/>
<feColorMatrix in="SourceAlpha" type="matrix" values="0 0 0 0 0 0 0 0 0 0 0 0 0 0 0 0 0 0 127 0" result="hardAlpha"/>
<feOffset/>
<feGaussianBlur stdDeviation="7.5"/>
<feComposite in2="hardAlpha" operator="out"/>
<feColorMatrix type="matrix" values="0 0 0 0 0 0 0 0 0 0 0 0 0 0 0 0 0 0 0.03 0"/>
<feBlend mode="normal" in2="BackgroundImageFix" result="effect1_dropShadow_938_581"/>
<feColorMatrix in="SourceAlpha" type="matrix" values="0 0 0 0 0 0 0 0 0 0 0 0 0 0 0 0 0 0 127 0" result="hardAlpha"/>
<feOffset dy="2"/>
<feGaussianBlur stdDeviation="15"/>
<feComposite in2="hardAlpha" operator="out"/>
<feColorMatrix type="matrix" values="0 0 0 0 0 0 0 0 0 0 0 0 0 0 0 0 0 0 0.08 0"/>
<feBlend mode="normal" in2="effect1_dropShadow_938_581" result="effect2_dropShadow_938_581"/>
<feBlend mode="normal" in="SourceGraphic" in2="effect2_dropShadow_938_581" result="shape"/>
</filter>
<filter id="filter2_d_938_581" x="40" y="239" width="30" height="30" filterUnits="userSpaceOnUse" color-interpolation-filters="sRGB">
<feFlood flood-opacity="0" result="BackgroundImageFix"/>
<feColorMatrix in="SourceAlpha" type="matrix" values="0 0 0 0 0 0 0 0 0 0 0 0 0 0 0 0 0 0 127 0" result="hardAlpha"/>
<feOffset dy="1"/>
<feGaussianBlur stdDeviation="1"/>
<feComposite in2="hardAlpha" operator="out"/>
<feColorMatrix type="matrix" values="0 0 0 0 0.0392157 0 0 0 0 0.0509804 0 0 0 0 0.0784314 0 0 0 0.03 0"/>
<feBlend mode="normal" in2="BackgroundImageFix" result="effect1_dropShadow_938_581"/>
<feBlend mode="normal" in="SourceGraphic" in2="effect1_dropShadow_938_581" result="shape"/>
</filter>
<filter id="filter3_dd_938_581" x="102" y="0" width="262" height="116" filterUnits="userSpaceOnUse" color-interpolation-filters="sRGB">
<feFlood flood-opacity="0" result="BackgroundImageFix"/>
<feColorMatrix in="SourceAlpha" type="matrix" values="0 0 0 0 0 0 0 0 0 0 0 0 0 0 0 0 0 0 127 0" result="hardAlpha"/>
<feOffset/>
<feGaussianBlur stdDeviation="7.5"/>
<feComposite in2="hardAlpha" operator="out"/>
<feColorMatrix type="matrix" values="0 0 0 0 0 0 0 0 0 0 0 0 0 0 0 0 0 0 0.03 0"/>
<feBlend mode="normal" in2="BackgroundImageFix" result="effect1_dropShadow_938_581"/>
<feColorMatrix in="SourceAlpha" type="matrix" values="0 0 0 0 0 0 0 0 0 0 0 0 0 0 0 0 0 0 127 0" result="hardAlpha"/>
<feOffset dy="2"/>
<feGaussianBlur stdDeviation="15"/>
<feComposite in2="hardAlpha" operator="out"/>
<feColorMatrix type="matrix" values="0 0 0 0 0 0 0 0 0 0 0 0 0 0 0 0 0 0 0.08 0"/>
<feBlend mode="normal" in2="effect1_dropShadow_938_581" result="effect2_dropShadow_938_581"/>
<feBlend mode="normal" in="SourceGraphic" in2="effect2_dropShadow_938_581" result="shape"/>
</filter>
<filter id="filter4_dd_938_581" x="190" y="68" width="262" height="116" filterUnits="userSpaceOnUse" color-interpolation-filters="sRGB">
<feFlood flood-opacity="0" result="BackgroundImageFix"/>
<feColorMatrix in="SourceAlpha" type="matrix" values="0 0 0 0 0 0 0 0 0 0 0 0 0 0 0 0 0 0 127 0" result="hardAlpha"/>
<feOffset/>
<feGaussianBlur stdDeviation="7.5"/>
<feComposite in2="hardAlpha" operator="out"/>
<feColorMatrix type="matrix" values="0 0 0 0 0 0 0 0 0 0 0 0 0 0 0 0 0 0 0.03 0"/>
<feBlend mode="normal" in2="BackgroundImageFix" result="effect1_dropShadow_938_581"/>
<feColorMatrix in="SourceAlpha" type="matrix" values="0 0 0 0 0 0 0 0 0 0 0 0 0 0 0 0 0 0 127 0" result="hardAlpha"/>
<feOffset dy="2"/>
<feGaussianBlur stdDeviation="15"/>
<feComposite in2="hardAlpha" operator="out"/>
<feColorMatrix type="matrix" values="0 0 0 0 0 0 0 0 0 0 0 0 0 0 0 0 0 0 0.08 0"/>
<feBlend mode="normal" in2="effect1_dropShadow_938_581" result="effect2_dropShadow_938_581"/>
<feBlend mode="normal" in="SourceGraphic" in2="effect2_dropShadow_938_581" result="shape"/>
</filter>
<clipPath id="clip0_938_581">
<rect x="40" y="238" width="112" height="30" rx="7" fill="white"/>
</clipPath>
</defs>
</svg>
