<svg width="312" height="224" viewBox="0 0 312 224" fill="none" xmlns="http://www.w3.org/2000/svg">
<rect width="312" height="224" rx="13" fill="#171717"/>
<path d="M49.4565 23.1758C46.5049 23.1758 44.6152 21.0298 44.6152 17.6606V17.6533C44.6152 14.3501 46.5049 12.2554 49.4565 12.2554C51.8882 12.2554 53.3457 13.6543 53.8364 15.522L53.873 15.6611H52.4888L52.4595 15.5806C51.9688 14.2402 50.9434 13.4712 49.4565 13.4712C47.2812 13.4712 45.9629 15.0459 45.9629 17.6533V17.6606C45.9629 20.3193 47.3032 21.96 49.4565 21.96C51.3315 21.96 52.6206 20.7441 52.6206 18.9717V18.7812H49.6396V17.624H53.939V18.6274C53.939 21.4839 52.2764 23.1758 49.4565 23.1758ZM58.7398 23.1465C56.6231 23.1465 55.2096 21.6157 55.2096 19.1914V19.1768C55.2096 16.7524 56.6305 15.2363 58.7325 15.2363C60.8346 15.2363 62.2628 16.7451 62.2628 19.1768V19.1914C62.2628 21.623 60.8419 23.1465 58.7398 23.1465ZM58.7472 22.0186C60.0875 22.0186 60.9591 20.9785 60.9591 19.1914V19.1768C60.9591 17.3896 60.0802 16.3643 58.7325 16.3643C57.4068 16.3643 56.5133 17.397 56.5133 19.1768V19.1914C56.5133 20.9858 57.3995 22.0186 58.7472 22.0186ZM66.8586 23.1465C64.7419 23.1465 63.3283 21.6157 63.3283 19.1914V19.1768C63.3283 16.7524 64.7492 15.2363 66.8513 15.2363C68.9533 15.2363 70.3815 16.7451 70.3815 19.1768V19.1914C70.3815 21.623 68.9606 23.1465 66.8586 23.1465ZM66.8659 22.0186C68.2062 22.0186 69.0778 20.9785 69.0778 19.1914V19.1768C69.0778 17.3896 68.1989 16.3643 66.8513 16.3643C65.5256 16.3643 64.632 17.397 64.632 19.1768V19.1914C64.632 20.9858 65.5183 22.0186 66.8659 22.0186ZM74.6844 23.1465C72.7361 23.1465 71.4471 21.5938 71.4471 19.1914V19.1841C71.4471 16.7817 72.7508 15.2363 74.6624 15.2363C75.7391 15.2363 76.6253 15.7783 77.1014 16.6572H77.1307V12.4312H78.4051V23H77.1307V21.7109H77.1014C76.6253 22.5972 75.7757 23.1465 74.6844 23.1465ZM74.9334 22.0186C76.2225 22.0186 77.138 20.8979 77.138 19.1914V19.1841C77.138 17.4849 76.2151 16.3643 74.9334 16.3643C73.5857 16.3643 72.7508 17.4482 72.7508 19.1841V19.1914C72.7508 20.9419 73.5857 22.0186 74.9334 22.0186ZM83.7002 23V12.4312H85.2236L88.8857 21.3374H88.9297L92.5918 12.4312H94.1152V23H92.8848V14.8335H92.8408L89.4644 23H88.3511L84.9746 14.8335H84.9307V23H83.7002ZM99.275 23.1465C97.1583 23.1465 95.7447 21.6157 95.7447 19.1914V19.1768C95.7447 16.7524 97.1656 15.2363 99.2677 15.2363C101.37 15.2363 102.798 16.7451 102.798 19.1768V19.1914C102.798 21.623 101.377 23.1465 99.275 23.1465ZM99.2823 22.0186C100.623 22.0186 101.494 20.9785 101.494 19.1914V19.1768C101.494 17.3896 100.615 16.3643 99.2677 16.3643C97.942 16.3643 97.0484 17.397 97.0484 19.1768V19.1914C97.0484 20.9858 97.9347 22.0186 99.2823 22.0186ZM104.237 23V15.3828H105.511V16.6719H105.541C105.797 15.793 106.456 15.2363 107.313 15.2363C107.533 15.2363 107.723 15.2729 107.826 15.2876V16.5254C107.723 16.4888 107.452 16.4521 107.145 16.4521C106.156 16.4521 105.511 17.1406 105.511 18.2979V23H104.237ZM109.016 23V15.3828H110.29V16.4668H110.32C110.73 15.7563 111.506 15.2363 112.663 15.2363C114.333 15.2363 115.3 16.3203 115.3 18.0562V23H114.026V18.2832C114.026 17.0454 113.447 16.3643 112.275 16.3643C111.074 16.3643 110.29 17.2212 110.29 18.5176V23H109.016ZM117.794 14.0938C117.354 14.0938 116.996 13.7349 116.996 13.2954C116.996 12.8486 117.354 12.4971 117.794 12.4971C118.241 12.4971 118.592 12.8486 118.592 13.2954C118.592 13.7349 118.241 14.0938 117.794 14.0938ZM117.157 23V15.3828H118.431V23H117.157ZM120.317 23V15.3828H121.591V16.4668H121.621C122.031 15.7563 122.807 15.2363 123.964 15.2363C125.634 15.2363 126.601 16.3203 126.601 18.0562V23H125.327V18.2832C125.327 17.0454 124.748 16.3643 123.576 16.3643C122.375 16.3643 121.591 17.2212 121.591 18.5176V23H120.317ZM131.6 25.71C129.717 25.71 128.531 24.8237 128.282 23.6958L128.267 23.6299H129.549L129.578 23.6958C129.82 24.2451 130.545 24.582 131.585 24.582C132.925 24.582 133.687 23.8423 133.687 22.6631V21.689H133.658C133.204 22.5312 132.325 23.0732 131.233 23.0732C129.315 23.0732 128.004 21.5278 128.004 19.1475V19.1401C128.004 16.7744 129.329 15.2363 131.263 15.2363C132.339 15.2363 133.189 15.8223 133.658 16.6719H133.687V15.3828H134.962V22.7876C134.962 24.5527 133.665 25.71 131.6 25.71ZM131.512 21.9453C132.808 21.9453 133.687 20.8394 133.687 19.1475V19.1401C133.687 17.4629 132.801 16.3643 131.512 16.3643C130.157 16.3643 129.307 17.4482 129.307 19.1401V19.1475C129.307 20.876 130.157 21.9453 131.512 21.9453ZM136.247 25.0728L136.891 21.4912H138.224L137.155 25.0728H136.247ZM142.824 23V12.4312H146.83C148.639 12.4312 149.862 13.4858 149.862 15.0679V15.0825C149.862 16.1738 149.042 17.2358 147.951 17.3896V17.4189C149.474 17.5947 150.397 18.6201 150.397 20.019V20.0337C150.397 21.894 149.064 23 146.815 23H142.824ZM146.53 13.5957H144.142V16.9868H146.12C147.68 16.9868 148.529 16.3643 148.529 15.2217V15.207C148.529 14.167 147.804 13.5957 146.53 13.5957ZM146.493 18.1221H144.142V21.8354H146.618C148.2 21.8354 149.042 21.1982 149.042 19.9824V19.9678C149.042 18.7446 148.178 18.1221 146.493 18.1221ZM154.978 23.1465C152.788 23.1465 151.47 21.6157 151.47 19.2207V19.2134C151.47 16.855 152.817 15.2363 154.897 15.2363C156.978 15.2363 158.245 16.7817 158.245 19.0669V19.5356H152.759C152.788 21.103 153.652 22.0186 155.007 22.0186C155.974 22.0186 156.655 21.5352 156.875 20.8833L156.897 20.8174H158.149L158.135 20.8906C157.886 22.1504 156.641 23.1465 154.978 23.1465ZM154.89 16.3643C153.784 16.3643 152.92 17.1187 152.781 18.5396H156.948C156.824 17.0601 156.003 16.3643 154.89 16.3643ZM159.684 23V15.3828H160.958V16.4668H160.987C161.398 15.7563 162.174 15.2363 163.331 15.2363C165.001 15.2363 165.968 16.3203 165.968 18.0562V23H164.693V18.2832C164.693 17.0454 164.115 16.3643 162.943 16.3643C161.742 16.3643 160.958 17.2212 160.958 18.5176V23H159.684Z" fill="#3A74DC"/>
<rect x="44.5" y="36.5" width="255" height="175" rx="6.5" fill="#2E2E2E" stroke="#323232"/>
<rect x="8" y="36" width="24" height="24" rx="5" fill="#616161"/>
<rect x="9" y="7" width="22" height="22" rx="11" fill="#616161"/>
<path d="M12.1185 29C11.1515 25.7839 16.3267 22.407 19.5302 22.407C22.7337 22.407 27.5863 26.1055 26.9418 29H12.1185ZM19.5302 21.6834C17.1266 21.6834 15.1798 19.7405 15.1798 17.3417C15.1798 14.9429 17.1266 13 19.5302 13C21.9338 13 23.8806 14.9429 23.8806 17.3417C23.8806 19.7405 21.9338 21.6834 19.5302 21.6834Z" fill="#A8A8A8"/>
<rect x="60" y="59" width="68.6667" height="38" rx="5" fill="#616161"/>
<rect x="137.666" y="59" width="68.6667" height="38" rx="5" fill="#616161"/>
<rect x="215.334" y="59" width="68.6667" height="38" rx="5" fill="#616161"/>
<rect x="60" y="107" width="68.6667" height="38" rx="5" fill="#616161"/>
<rect x="137.666" y="107" width="68.6667" height="38" rx="5" fill="#616161"/>
<rect x="215.334" y="107" width="68.6667" height="38" rx="5" fill="#616161"/>
<rect x="8" y="66" width="24" height="24" rx="5" fill="#616161"/>
<rect x="8" y="96" width="24" height="24" rx="5" fill="#616161"/>
<rect x="8" y="126" width="24" height="24" rx="5" fill="#616161"/>
<rect x="8" y="188" width="24" height="24" rx="5" fill="#616161"/>
</svg>
