<svg width="20" height="20" viewBox="0 0 20 20" fill="none" xmlns="http://www.w3.org/2000/svg">
<path d="M12.167 9.41797C11.4629 9.41797 10.8477 8.98047 10.5879 8.36523H3.64258C3.28711 8.36523 3 8.06445 3 7.70898C3 7.35352 3.28711 7.05957 3.64258 7.05957H10.5879C10.8477 6.4375 11.4561 6 12.167 6C12.8779 6 13.4932 6.4375 13.7529 7.05957H15.8447C16.1865 7.05957 16.4668 7.34668 16.4668 7.70898C16.4668 8.06445 16.1865 8.36523 15.8447 8.36523H13.7461C13.4863 8.98047 12.8779 9.41797 12.167 9.41797ZM12.167 8.51562C12.625 8.51562 12.9736 8.15332 12.9736 7.70898C12.9736 7.25098 12.625 6.90234 12.167 6.90234C11.7227 6.90234 11.3604 7.25098 11.3604 7.70898C11.3604 8.15332 11.7227 8.51562 12.167 8.51562ZM3.62891 12.1133H5.7959C6.05566 11.498 6.66406 11.0605 7.375 11.0605C8.08594 11.0605 8.69434 11.498 8.9541 12.1133H15.8242C16.1865 12.1133 16.4668 12.4072 16.4668 12.7695C16.4668 13.125 16.1865 13.4258 15.8242 13.4258H8.9541C8.69434 14.041 8.08594 14.4785 7.375 14.4785C6.66406 14.4785 6.05566 14.041 5.7959 13.4258H3.62891C3.28711 13.4258 3 13.125 3 12.7695C3 12.4072 3.28711 12.1133 3.62891 12.1133ZM7.375 13.5762C7.83301 13.5762 8.18164 13.2207 8.18164 12.7695C8.18164 12.3115 7.83301 11.9629 7.375 11.9629C6.92383 11.9629 6.56836 12.3115 6.56836 12.7695C6.56836 13.2207 6.92383 13.5762 7.375 13.5762Z" fill="#323232" fill-opacity="0.5"/>
</svg>
