<svg width="98" height="19" viewBox="0 0 98 19" fill="none" xmlns="http://www.w3.org/2000/svg">
<path d="M6.666 18.264C5.566 18.264 4.598 18.0293 3.762 17.56C2.926 17.076 2.27333 16.4013 1.804 15.536C1.33467 14.6707 1.1 13.6733 1.1 12.544C1.1 11.3707 1.32733 10.344 1.782 9.464C2.25133 8.584 2.904 7.89467 3.74 7.396C4.59067 6.89733 5.57333 6.648 6.688 6.648C7.77333 6.648 8.71933 6.89 9.526 7.374C10.3327 7.858 10.956 8.51067 11.396 9.332C11.836 10.1387 12.056 11.048 12.056 12.06C12.056 12.2067 12.056 12.368 12.056 12.544C12.056 12.72 12.0413 12.9033 12.012 13.094H2.992V11.4H9.394C9.36467 10.5933 9.09333 9.96267 8.58 9.508C8.06667 9.03867 7.42867 8.804 6.666 8.804C6.12333 8.804 5.62467 8.92867 5.17 9.178C4.71533 9.42733 4.356 9.80133 4.092 10.3C3.828 10.784 3.696 11.4 3.696 12.148V12.786C3.696 13.4753 3.82067 14.0693 4.07 14.568C4.334 15.0667 4.686 15.448 5.126 15.712C5.58067 15.9613 6.08667 16.086 6.644 16.086C7.26 16.086 7.766 15.954 8.162 15.69C8.57267 15.426 8.87333 15.074 9.064 14.634H11.748C11.5427 15.3233 11.2053 15.9467 10.736 16.504C10.2667 17.0467 9.68733 17.4793 8.998 17.802C8.30867 18.11 7.53133 18.264 6.666 18.264ZM19.4215 18.264C18.3949 18.264 17.4782 18.0147 16.6715 17.516C15.8649 17.0173 15.2342 16.328 14.7795 15.448C14.3395 14.568 14.1195 13.5707 14.1195 12.456C14.1195 11.3413 14.3469 10.3513 14.8015 9.486C15.2562 8.606 15.8869 7.91667 16.6935 7.418C17.5149 6.90467 18.4389 6.648 19.4655 6.648C20.3015 6.648 21.0275 6.80933 21.6435 7.132C22.2742 7.44 22.7729 7.88 23.1395 8.452V2.16H25.7795V18H23.4035L23.1395 16.394C22.9049 16.7167 22.6189 17.0247 22.2815 17.318C21.9442 17.5967 21.5409 17.824 21.0715 18C20.6022 18.176 20.0522 18.264 19.4215 18.264ZM19.9715 15.976C20.6022 15.976 21.1595 15.8293 21.6435 15.536C22.1275 15.228 22.5015 14.81 22.7655 14.282C23.0295 13.754 23.1615 13.1453 23.1615 12.456C23.1615 11.7667 23.0295 11.158 22.7655 10.63C22.5015 10.102 22.1275 9.69133 21.6435 9.398C21.1595 9.10467 20.6022 8.958 19.9715 8.958C19.3702 8.958 18.8275 9.10467 18.3435 9.398C17.8595 9.69133 17.4782 10.102 17.1995 10.63C16.9355 11.158 16.8035 11.7667 16.8035 12.456C16.8035 13.1453 16.9355 13.754 17.1995 14.282C17.4782 14.81 17.8595 15.228 18.3435 15.536C18.8275 15.8293 19.3702 15.976 19.9715 15.976ZM32.8302 18.264C31.9355 18.264 31.1655 18.088 30.5202 17.736C29.8895 17.3693 29.4055 16.8267 29.0682 16.108C28.7309 15.3747 28.5622 14.4727 28.5622 13.402V6.912H31.2022V13.138C31.2022 14.0913 31.4002 14.8173 31.7962 15.316C32.2069 15.8 32.8229 16.042 33.6442 16.042C34.1722 16.042 34.6415 15.9173 35.0522 15.668C35.4775 15.4187 35.8075 15.0593 36.0422 14.59C36.2915 14.106 36.4162 13.5193 36.4162 12.83V6.912H39.0562V18H36.7242L36.5262 16.152C36.1889 16.7973 35.6975 17.3107 35.0522 17.692C34.4215 18.0733 33.6809 18.264 32.8302 18.264ZM41.9935 18V2.16H44.6335V18H41.9935ZM51.6935 18.264C50.7988 18.264 50.0288 18.088 49.3835 17.736C48.7528 17.3693 48.2688 16.8267 47.9315 16.108C47.5941 15.3747 47.4255 14.4727 47.4255 13.402V6.912H50.0655V13.138C50.0655 14.0913 50.2635 14.8173 50.6595 15.316C51.0701 15.8 51.6861 16.042 52.5075 16.042C53.0355 16.042 53.5048 15.9173 53.9155 15.668C54.3408 15.4187 54.6708 15.0593 54.9055 14.59C55.1548 14.106 55.2795 13.5193 55.2795 12.83V6.912H57.9195V18H55.5875L55.3895 16.152C55.0521 16.7973 54.5608 17.3107 53.9155 17.692C53.2848 18.0733 52.5441 18.264 51.6935 18.264ZM60.8568 18V6.912H63.1888L63.4088 8.43C63.7608 7.87267 64.2228 7.44 64.7948 7.132C65.3815 6.80933 66.0488 6.648 66.7968 6.648C67.3541 6.648 67.8528 6.72133 68.2928 6.868C68.7475 7.01467 69.1435 7.23467 69.4808 7.528C69.8328 7.82133 70.1188 8.188 70.3388 8.628C70.7495 8.012 71.2848 7.528 71.9448 7.176C72.6048 6.824 73.3235 6.648 74.1008 6.648C75.0248 6.648 75.8095 6.83867 76.4548 7.22C77.1001 7.58667 77.5915 8.13667 77.9288 8.87C78.2661 9.58867 78.4348 10.476 78.4348 11.532V18H75.8168V11.796C75.8168 10.8573 75.6261 10.1387 75.2448 9.64C74.8635 9.14133 74.2988 8.892 73.5508 8.892C73.0375 8.892 72.5828 9.01667 72.1868 9.266C71.8055 9.51533 71.5048 9.882 71.2848 10.366C71.0648 10.8353 70.9548 11.4147 70.9548 12.104V18H68.3368V11.796C68.3368 10.8573 68.1461 10.1387 67.7648 9.64C67.3835 9.14133 66.8115 8.892 66.0488 8.892C65.5648 8.892 65.1248 9.01667 64.7288 9.266C64.3475 9.51533 64.0468 9.882 63.8268 10.366C63.6068 10.8353 63.4968 11.4147 63.4968 12.104V18H60.8568ZM86.416 18.264C85.316 18.264 84.348 18.0293 83.512 17.56C82.676 17.076 82.0233 16.4013 81.554 15.536C81.0847 14.6707 80.85 13.6733 80.85 12.544C80.85 11.3707 81.0773 10.344 81.532 9.464C82.0013 8.584 82.654 7.89467 83.49 7.396C84.3407 6.89733 85.3233 6.648 86.438 6.648C87.5233 6.648 88.4693 6.89 89.276 7.374C90.0827 7.858 90.706 8.51067 91.146 9.332C91.586 10.1387 91.806 11.048 91.806 12.06C91.806 12.2067 91.806 12.368 91.806 12.544C91.806 12.72 91.7913 12.9033 91.762 13.094H82.742V11.4H89.144C89.1147 10.5933 88.8433 9.96267 88.33 9.508C87.8167 9.03867 87.1787 8.804 86.416 8.804C85.8733 8.804 85.3747 8.92867 84.92 9.178C84.4653 9.42733 84.106 9.80133 83.842 10.3C83.578 10.784 83.446 11.4 83.446 12.148V12.786C83.446 13.4753 83.5707 14.0693 83.82 14.568C84.084 15.0667 84.436 15.448 84.876 15.712C85.3307 15.9613 85.8367 16.086 86.394 16.086C87.01 16.086 87.516 15.954 87.912 15.69C88.3227 15.426 88.6233 15.074 88.814 14.634H91.498C91.2927 15.3233 90.9553 15.9467 90.486 16.504C90.0167 17.0467 89.4373 17.4793 88.748 17.802C88.0587 18.11 87.2813 18.264 86.416 18.264Z" fill="#8F8E8E"/>
<path d="M85 4.33334L98 0L93.6666 13C94.4355 7.93897 90.0636 3.58126 85 4.33334Z" fill="#8F8E8E"/>
</svg>
