<svg width="20" height="40" viewBox="0 0 20 40" fill="none" xmlns="http://www.w3.org/2000/svg">
<rect width="20" height="40" fill="white"/>
<path d="M2.5 17.3327L6.22472 13.6079C6.50769 13.325 6.89148 13.166 7.29167 13.166C7.69185 13.166 8.07564 13.325 8.35858 13.6079L11.6667 16.916M11.6667 16.916L12.9167 18.166M11.6667 16.916L13.3081 15.2746C13.591 14.9917 13.9748 14.8327 14.375 14.8327C14.7752 14.8327 15.159 14.9917 15.4419 15.2746L17.5 17.3327" stroke="#888888" stroke-width="1.25" stroke-linecap="round" stroke-linejoin="round"/>
<path d="M12.9167 10.6673C13.1467 10.6673 13.3333 10.4808 13.3333 10.2507C13.3333 10.0205 13.1467 9.83398 12.9167 9.83398M12.9167 10.6673C12.6866 10.6673 12.5 10.4808 12.5 10.2507C12.5 10.0205 12.6866 9.83398 12.9167 9.83398M12.9167 10.6673V9.83398" stroke="#888888" stroke-width="1.25" stroke-linecap="round" stroke-linejoin="round"/>
<path d="M3.08034 20.4567C2.08203 19.2878 2.08203 17.5254 2.08203 14.0007C2.08203 10.4759 2.08203 8.71348 3.08034 7.54462C3.2221 7.37863 3.37668 7.22405 3.54266 7.08229C4.71153 6.08398 6.47392 6.08398 9.9987 6.08398C13.5234 6.08398 15.2859 6.08398 16.4547 7.08229C16.6207 7.22405 16.7753 7.37863 16.917 7.54462C17.9154 8.71348 17.9154 10.4759 17.9154 14.0007C17.9154 17.5254 17.9154 19.2878 16.917 20.4567C16.7753 20.6227 16.6207 20.7772 16.4547 20.919C15.2859 21.9173 13.5234 21.9173 9.9987 21.9173C6.47392 21.9173 4.71153 21.9173 3.54266 20.919C3.37668 20.7772 3.2221 20.6227 3.08034 20.4567Z" stroke="#888888" stroke-width="1.25" stroke-linecap="round" stroke-linejoin="round"/>
<path d="M3 8.5L10 9V13H2L3 8.5Z" fill="#888888"/>
<path d="M3 7.5L7.5 6L10.5 10.5H3V7.5Z" fill="#888888"/>
<path d="M2 13H4H6L2 17V13Z" fill="#888888"/>
<path d="M17.5 8.5L14 6H12H6.5L11.5 12L17.5 16.5V8.5Z" fill="#888888"/>
<path d="M8.94874 8.80455L6.97519 9.81012L5.00165 10.8157L11.5571 16.4715L15.6443 13.4269L8.94874 8.80455Z" fill="#888888"/>
<circle cx="13.75" cy="11.0801" r="1.25" fill="white"/>
</svg>
