<svg width="20" height="20" viewBox="0 0 20 20" fill="none" xmlns="http://www.w3.org/2000/svg">
<path d="M2.5 13.3327L6.22472 9.60793C6.50769 9.32502 6.89148 9.16602 7.29167 9.16602C7.69185 9.16602 8.07564 9.32502 8.35858 9.60793L11.6667 12.916M11.6667 12.916L12.9167 14.166M11.6667 12.916L13.3081 11.2746C13.591 10.9917 13.9748 10.8327 14.375 10.8327C14.7752 10.8327 15.159 10.9917 15.4419 11.2746L17.5 13.3327" stroke="#888888" stroke-width="1.25" stroke-linecap="round" stroke-linejoin="round"/>
<path d="M12.9167 6.66732C13.1467 6.66732 13.3333 6.48077 13.3333 6.25065C13.3333 6.02053 13.1467 5.83398 12.9167 5.83398M12.9167 6.66732C12.6866 6.66732 12.5 6.48077 12.5 6.25065C12.5 6.02053 12.6866 5.83398 12.9167 5.83398M12.9167 6.66732V5.83398" stroke="#888888" stroke-width="1.25" stroke-linecap="round" stroke-linejoin="round"/>
<path d="M3.08034 16.4567C2.08203 15.2878 2.08203 13.5254 2.08203 10.0007C2.08203 6.47588 2.08203 4.71348 3.08034 3.54462C3.2221 3.37863 3.37668 3.22405 3.54266 3.08229C4.71153 2.08398 6.47392 2.08398 9.9987 2.08398C13.5234 2.08398 15.2859 2.08398 16.4547 3.08229C16.6207 3.22405 16.7753 3.37863 16.917 3.54462C17.9154 4.71348 17.9154 6.47588 17.9154 10.0007C17.9154 13.5254 17.9154 15.2878 16.917 16.4567C16.7753 16.6227 16.6207 16.7772 16.4547 16.919C15.2859 17.9173 13.5234 17.9173 9.9987 17.9173C6.47392 17.9173 4.71153 17.9173 3.54266 16.919C3.37668 16.7772 3.2221 16.6227 3.08034 16.4567Z" stroke="#888888" stroke-width="1.25" stroke-linecap="round" stroke-linejoin="round"/>
<path d="M3 4.5L10 5V9H2L3 4.5Z" fill="#888888"/>
<path d="M3 3.5L7.5 2L10.5 6.5H3V3.5Z" fill="#888888"/>
<path d="M2 9H4H6L2 13V9Z" fill="#888888"/>
<path d="M17.5 4.5L14 2H12H6.5L11.5 8L17.5 12.5V4.5Z" fill="#888888"/>
<path d="M8.94874 4.80455L6.97519 5.81012L5.00165 6.81569L11.5571 12.4715L15.6443 9.42687L8.94874 4.80455Z" fill="#888888"/>
<circle cx="13.75" cy="7.08008" r="1.25" fill="white"/>
</svg>
