<svg width="18" height="18" viewBox="0 0 18 18" fill="none" xmlns="http://www.w3.org/2000/svg">
<path d="M9 15.9375C12.8315 15.9375 15.9375 12.8315 15.9375 9C15.9375 5.16852 12.8315 2.0625 9 2.0625C5.16852 2.0625 2.0625 5.16852 2.0625 9C2.0625 12.8315 5.16852 15.9375 9 15.9375Z" stroke="#DE0604" stroke-width="2"/>
<path d="M8.48364 9.26332L8.29322 5.99873C8.26952 5.59247 8.59262 5.25 8.99957 5.25C9.40652 5.25 9.72962 5.59247 9.70592 5.99873L9.51549 9.26332C9.49952 9.53655 9.27332 9.75 8.99957 9.75C8.72582 9.75 8.49962 9.53655 8.48364 9.26332Z" fill="#DE0604"/>
<path d="M8.9998 12.7496C9.45544 12.7496 9.8248 12.3802 9.8248 11.9246C9.8248 11.469 9.45544 11.0996 8.9998 11.0996C8.54417 11.0996 8.1748 11.469 8.1748 11.9246C8.1748 12.3802 8.54417 12.7496 8.9998 12.7496Z" fill="#DE0604"/>
</svg>
