<svg width="21" height="21" viewBox="0 0 21 21" fill="none" xmlns="http://www.w3.org/2000/svg">
<path fill-rule="evenodd" clip-rule="evenodd" d="M10.5003 1.75C10.8628 1.75004 11.1565 2.04387 11.1565 2.40631L11.1562 5.46881C11.1562 5.83124 10.8623 6.12503 10.4999 6.125C10.1375 6.12496 9.84375 5.83113 9.84375 5.46869L9.84401 2.40619C9.84401 2.04375 10.1379 1.74997 10.5003 1.75ZM4.31304 4.31259C4.56935 4.05632 4.98487 4.05636 5.24112 4.31266L7.40645 6.47837C7.66271 6.73467 7.66267 7.15018 7.40637 7.40645C7.15006 7.66271 6.73455 7.66267 6.47829 7.40637L4.31296 5.24066C4.0567 4.98436 4.05674 4.56885 4.31304 4.31259ZM16.6876 4.31325C16.9439 4.56953 16.9439 4.98504 16.6876 5.24133L14.5221 7.40684C14.2658 7.66312 13.8503 7.66312 13.594 7.40684C13.3377 7.15056 13.3377 6.73504 13.594 6.47876L15.7595 4.31325C16.0158 4.05696 16.4314 4.05696 16.6876 4.31325ZM1.75 10.5006C1.75 10.1382 2.04382 9.84436 2.40625 9.84436H5.46875C5.83118 9.84436 6.125 10.1382 6.125 10.5006C6.125 10.863 5.83118 11.1569 5.46875 11.1569H2.40625C2.04382 11.1569 1.75 10.863 1.75 10.5006ZM14.875 10.5006C14.875 10.1382 15.1688 9.84436 15.5312 9.84436H18.5937C18.9562 9.84436 19.25 10.1382 19.25 10.5006C19.25 10.863 18.9562 11.1569 18.5937 11.1569H15.5312C15.1688 11.1569 14.875 10.863 14.875 10.5006ZM13.5937 13.5934C13.85 13.3371 14.2656 13.3371 14.5218 13.5934L16.6874 15.7589C16.9437 16.0152 16.9437 16.4307 16.6874 16.687C16.4311 16.9432 16.0156 16.9432 15.7593 16.687L13.5937 14.5215C13.3375 14.2652 13.3375 13.8497 13.5937 13.5934ZM7.40684 13.594C7.66312 13.8503 7.66312 14.2658 7.40684 14.5221L5.24133 16.6876C4.98504 16.9439 4.56953 16.9439 4.31325 16.6876C4.05696 16.4314 4.05696 16.0158 4.31325 15.7595L6.47876 13.594C6.73504 13.3377 7.15056 13.3377 7.40684 13.594ZM10.5003 14.875C10.8627 14.875 11.1565 15.1688 11.1565 15.5312V18.5937C11.1565 18.9562 10.8627 19.25 10.5003 19.25C10.1378 19.25 9.84401 18.9562 9.84401 18.5937V15.5312C9.84401 15.1688 10.1378 14.875 10.5003 14.875Z" fill="#FA7318"/>
</svg>
