<svg width="56" height="56" viewBox="0 0 56 56" fill="none" xmlns="http://www.w3.org/2000/svg">
<g clip-path="url(#clip0_1809_11236)">
<mask id="mask0_1809_11236" style="mask-type:luminance" maskUnits="userSpaceOnUse" x="0" y="0" width="56" height="56">
<path d="M56 28C56 12.536 43.464 0 28 0C12.536 0 0 12.536 0 28C0 43.464 12.536 56 28 56C43.464 56 56 43.464 56 28Z" fill="white"/>
</mask>
<g mask="url(#mask0_1809_11236)">
<path d="M56 28C56 12.536 43.464 0 28 0C12.536 0 0 12.536 0 28C0 43.464 12.536 56 28 56C43.464 56 56 43.464 56 28Z" fill="#FFCD9C"/>
<path d="M13.3558 33.6871C16.8929 30.6084 21.7965 28.7363 27.309 29.8004L27.3558 29.8092H27.4037C32.9874 29.8092 37.8983 31.3336 41.4603 33.7682C45.0237 36.2037 47.2094 39.5261 47.4418 43.1363C47.6751 46.7633 47.1835 49.429 46.183 51.3961C45.1873 53.3534 43.6665 54.6624 41.7562 55.5435C39.8346 56.4299 37.5187 56.8829 34.9535 57.1109C32.3894 57.3388 29.6124 57.3394 26.7719 57.3394H26.7465L26.7211 57.3424C20.6476 57.9605 15.4803 56.7177 12.0453 54.3697C8.62379 52.0308 6.92807 48.6115 7.67325 44.7672L7.68204 44.7203V44.6725C7.68204 41.0393 9.80499 36.778 13.3558 33.6871Z" fill="#FF5A00" stroke="#2D2826"/>
<path d="M17.6161 29.231L16.6576 27.314C15.9275 25.8537 15.5624 25.1236 15.9052 24.6354C16.248 24.1471 17.0587 24.2425 18.6801 24.4333L23.0578 24.9483C23.2784 24.9742 23.3887 24.9872 23.4983 24.976C23.6079 24.9647 23.7132 24.9296 23.924 24.8593L26.9265 23.8585C27.4512 23.6836 27.7136 23.5961 27.89 23.4005C28.0665 23.2049 28.1265 22.9349 28.2464 22.395L28.5669 20.9528C28.7715 20.0324 28.8737 19.5722 29.2232 19.3499C29.5726 19.1275 30.0328 19.2297 30.9532 19.4343L31.5484 19.5665C32.4688 19.7711 32.929 19.8733 33.1513 20.2228C33.3737 20.5722 33.2715 21.0324 33.0669 21.9528L32.739 23.4287C32.6225 23.9528 32.5643 24.2148 32.636 24.461C32.7076 24.7072 32.8975 24.8971 33.2771 25.2767L34.5633 26.5629C34.7804 26.78 34.8889 26.8885 35.0226 26.959C35.1563 27.0296 35.3072 27.0578 35.6089 27.1144L39.274 27.8016C40.9115 28.1086 41.7302 28.2622 41.9084 28.8383C42.0867 29.4145 41.4977 30.0035 40.3196 31.1816L39.2634 32.2378C39.1325 32.3687 39.067 32.4342 39.0149 32.5101C38.9628 32.586 38.9252 32.6706 38.85 32.8397L37.8688 35.0475C37.462 35.9627 37.2586 36.4203 36.8488 36.5625C36.4391 36.7047 35.9959 36.4715 35.1096 36.0051L28.2282 32.3833C27.8692 32.1943 27.6897 32.0998 27.4931 32.0812C27.2965 32.0626 27.1025 32.1216 26.7144 32.2397L19.8309 34.3347C18.1599 34.8433 17.3244 35.0976 16.899 34.6489C16.4736 34.2002 16.7721 33.3794 17.369 31.7379L17.7068 30.8089C17.8517 30.4104 17.9242 30.2111 17.9124 30.0055C17.9005 29.7999 17.8057 29.6102 17.6161 29.231Z" fill="#486227" stroke="black"/>
</g>
</g>
<defs>
<clipPath id="clip0_1809_11236">
<rect width="56" height="56" fill="white"/>
</clipPath>
</defs>
</svg>
